<?xml version="1.0" encoding="utf-8"?>
<!-- Generator: Adobe Illustrator 20.0.0, SVG Export Plug-In . SVG Version: 6.00 Build 0)  -->
<svg version="1.1" xmlns="http://www.w3.org/2000/svg" xmlns:xlink="http://www.w3.org/1999/xlink" x="0px" y="0px"
	 viewBox="0 0 209 173" style="enable-background:new 0 0 209 173;" xml:space="preserve">
<style type="text/css">
	.st0{fill:#231F20;}
</style>
<g id="Layer_2">
</g>
<g id="Layer_1">
	<title>Solti-logo</title>
	<g>
		<polygon class="st0" points="56.2,115.1 56.2,111.1 58.8,111.1 58.8,111.7 56.8,111.7 56.8,112.7 57.9,112.7 57.9,113.3 
			56.8,113.3 56.8,114.5 58.8,114.5 58.8,115.1 		"/>
		<path class="st0" d="M63.3,115.1l-0.3-1h-1.6l-0.3,1h-0.6l1.4-4h0.6l1.5,4H63.3z M62.5,112.7c-0.1-0.3-0.3-0.8-0.3-0.9
			c0,0.2-0.2,0.6-0.3,0.9l-0.3,0.9h1.2L62.5,112.7z"/>
		<path class="st0" d="M66.9,115.2c-0.5,0-1.1-0.2-1.4-0.6l0.4-0.4c0.3,0.3,0.6,0.5,1,0.5c0.6,0,0.8-0.2,0.8-0.6
			c0-0.3-0.2-0.5-0.9-0.7c-0.9-0.3-1.3-0.5-1.3-1.2c0-0.7,0.6-1.1,1.3-1.1c0.5,0,1,0.2,1.3,0.5l-0.4,0.4c-0.2-0.3-0.6-0.4-0.9-0.4
			c-0.5,0-0.7,0.2-0.7,0.5c0,0.3,0.2,0.4,0.9,0.6c0.8,0.2,1.3,0.5,1.3,1.2C68.4,114.7,67.9,115.2,66.9,115.2"/>
		<polygon class="st0" points="71.6,111.7 71.6,115.1 71,115.1 71,111.7 69.9,111.7 69.9,111.1 72.8,111.1 72.8,111.7 		"/>
		<polygon class="st0" points="79.6,115.1 79.6,113.3 77.7,113.3 77.7,115.1 77.1,115.1 77.1,111.1 77.7,111.1 77.7,112.7 
			79.6,112.7 79.6,111.1 80.2,111.1 80.2,115.1 		"/>
		<path class="st0" d="M84.9,115.1l-0.3-1h-1.6l-0.3,1H82l1.4-4H84l1.5,4H84.9z M84,112.7c-0.1-0.3-0.3-0.8-0.3-0.9
			c0,0.2-0.2,0.6-0.3,0.9l-0.3,0.9h1.2L84,112.7z"/>
		<path class="st0" d="M90.3,115.1V113c0-0.2,0-0.6,0-0.7c0,0.1-0.2,0.4-0.3,0.6l-1,2.3l-1-2.3c-0.1-0.2-0.2-0.5-0.3-0.6
			c0,0.1,0,0.5,0,0.7v2.1h-0.6v-4h0.6l0.9,2.1c0.1,0.2,0.2,0.5,0.3,0.7c0.1-0.2,0.2-0.5,0.3-0.7l0.9-2.1h0.6v4L90.3,115.1z"/>
		<path class="st0" d="M94.5,113.6h-1.1v1.5h-0.6v-4h1.7c0.7,0,1.3,0.4,1.3,1.3C95.9,113.2,95.3,113.6,94.5,113.6 M94.6,111.7h-1.1
			v1.4h1.1c0.5,0,0.7-0.3,0.7-0.7c0-0.3-0.2-0.7-0.6-0.7C94.7,111.7,94.6,111.7,94.6,111.7"/>
		<polygon class="st0" points="99.1,111.7 99.1,115.1 98.5,115.1 98.5,111.7 97.3,111.7 97.3,111.1 100.3,111.1 100.3,111.7 		"/>
		<path class="st0" d="M103.4,115.2c-1,0-1.7-0.9-1.7-2.1s0.7-2.1,1.7-2.1c1,0,1.7,0.9,1.7,2.1C105.1,114.3,104.4,115.2,103.4,115.2
			 M103.4,111.6c-0.7,0-1.1,0.6-1.1,1.5s0.4,1.5,1.1,1.5c0.7,0,1.1-0.6,1.1-1.5S104.1,111.6,103.4,111.6"/>
		<path class="st0" d="M109.4,115.1l-1.6-2.5c-0.1-0.2-0.2-0.4-0.3-0.5c0,0.2,0,0.7,0,0.9v2.1h-0.6v-4h0.6l1.5,2.5
			c0.1,0.2,0.3,0.5,0.3,0.6c0-0.2,0-0.7,0-0.9v-2.1h0.6v4L109.4,115.1z"/>
		<polygon class="st0" points="111.9,114.3 111.8,115.8 112.2,115.8 112.6,114.3 		"/>
		<path class="st0" d="M119.5,115.1l-1.6-2.5c-0.1-0.2-0.2-0.4-0.3-0.5c0,0.2,0,0.7,0,0.9v2.1H117v-4h0.6l1.5,2.5
			c0.1,0.2,0.3,0.5,0.3,0.6c0-0.2,0-0.7,0-0.9v-2.1h0.6v4L119.5,115.1z"/>
		<polygon class="st0" points="122.1,115.1 122.1,111.1 124.6,111.1 124.6,111.7 122.7,111.7 122.7,112.7 123.8,112.7 123.8,113.3 
			122.7,113.3 122.7,114.5 124.7,114.5 124.7,115.1 		"/>
		<path class="st0" d="M129.8,115.1h-0.6l-0.6-2.6c0-0.1-0.1-0.4-0.1-0.5c0,0.1-0.1,0.4-0.1,0.5l-0.7,2.6h-0.6l-0.8-4h0.6l0.5,2.5
			c0,0.1,0.1,0.4,0.1,0.5c0-0.1,0.1-0.4,0.1-0.5l0.6-2.5h0.5l0.7,2.6c0,0.1,0.1,0.3,0.1,0.5c0-0.2,0.1-0.4,0.1-0.5l0.5-2.6h0.6
			L129.8,115.1z"/>
		<path class="st0" d="M136.7,113.5v1.6h-0.6v-1.6l-1.4-2.4h0.7l0.6,1.1c0.1,0.2,0.3,0.7,0.4,0.8c0.1-0.2,0.3-0.5,0.4-0.8l0.6-1.1
			h0.7L136.7,113.5z"/>
		<path class="st0" d="M141.1,115.2c-1,0-1.7-0.9-1.7-2.1s0.7-2.1,1.7-2.1c1,0,1.7,0.9,1.7,2.1C142.8,114.3,142.2,115.2,141.1,115.2
			 M141.1,111.6c-0.7,0-1.1,0.6-1.1,1.5s0.4,1.5,1.1,1.5c0.7,0,1.1-0.6,1.1-1.5S141.8,111.6,141.1,111.6"/>
		<path class="st0" d="M146.8,113.5l0.8,1.6H147l-0.8-1.6h-0.9v1.6h-0.6v-4h1.8c0.7,0,1.3,0.4,1.3,1.2
			C147.7,112.9,147.4,113.3,146.8,113.5 M146.4,111.7h-1.2v1.3h1.2c0.4,0,0.7-0.2,0.7-0.6C147.1,111.9,146.8,111.7,146.4,111.7"/>
		<path class="st0" d="M152.1,115.1l-1.1-2.1l-0.7,0.9v1.2h-0.6v-4h0.6v1.4c0,0.2,0,0.6,0,0.7c0.1-0.1,0.3-0.4,0.5-0.6l1.2-1.5h0.7
			l-1.2,1.5l1.4,2.6L152.1,115.1z"/>
		<path class="st0" d="M38.4,102.4h-6.6v-1.2H33c0.9,0,1.1-0.1,1.2-0.8c0.1-1.5,0.1-8.3,0-9.5c0-0.8-0.3-1-1-1h-1.3v-1.2
			c0.3,0,3,0,3.4,0c0.9,0,2.1,0,3,0c3.3,0,5.2,1.1,5.2,3.4c0,1.5-0.8,2.6-2.3,3.1c1.7,0.4,2.8,1.5,2.8,3.1
			C43.9,100.9,42.7,102.4,38.4,102.4 M36.5,94.9h1.3c2.3,0,3.1-0.6,3.1-2.7c0-1.5-0.8-2.5-2.9-2.5h-0.7c-0.6,0-0.7,0.3-0.8,0.8
			C36.5,91.3,36.5,93.1,36.5,94.9 M36.5,95.9c0,2,0,4,0,4.7c0,0.7,0.3,0.8,0.7,0.8h1.1c2.3,0,3-1,3-2.9c0-1.8-1.1-2.6-3.5-2.6
			L36.5,95.9z"/>
		<path class="st0" d="M47.1,101.2h1.1c0.9,0,1.1-0.1,1.1-0.8c0.1-1.5,0.1-8.3,0-9.5c0-0.8-0.3-1-1-1h-1.2v-1.2c0,0,2.2,0.1,3.4,0.1
			c1.2,0,3.1-0.1,3.4-0.1V90h-1.2c-0.7,0-1,0.2-1,1c-0.1,1.2-0.1,8,0,9.5c0,0.7,0.3,0.8,1.2,0.8h1.1v1.2c0,0-2.2,0-3.4,0
			c-1.2,0-3.4,0-3.4,0L47.1,101.2z"/>
		<path class="st0" d="M67,89.2c1.1,0.6,1.3,0.4,1.4-0.6h1.2c-0.2,1-0.4,3.4-0.3,5c-0.4,0-0.9,0-1.3,0c-0.4-2.2-1-4.1-4.1-4.1
			c-2.8,0-4,1.9-4,6.1c0,4.9,1.7,6.1,3.9,6.1c2,0,3.6-1,3.6-3.4c0-1.3-0.2-1.8-1.3-1.8h-0.8v-1.1c0,0,1.9,0.1,3,0.1
			c1.1,0,3-0.1,3-0.1v1.1h-0.7c-0.6,0-0.8,0.3-0.8,1c0,1,0,3.6,0.1,5c-0.4,0-0.9,0-1.3,0c-0.1-0.5-0.3-1.4-0.6-2.2
			c-0.7,1.4-2.4,2.5-4.4,2.5c-4,0-6.6-2-6.6-7.2c0-5.1,3-7.2,6.7-7.2C64.8,88.4,65.7,88.5,67,89.2"/>
		<path class="st0" d="M88.6,92.5c0,1.1-0.1,2.2-0.1,3s0,2.1,0.1,3.1h-1v-0.4c0-1.5-0.7-2.1-2.4-2.2h-1c0,1.7,0,3.3,0,4
			c0,0.7,0.3,1.2,1.2,1.2h1.4v1.2c0,0-2.3,0-3.6,0c-1.3,0-3.6,0-3.6,0v-1.2h1.1c0.9,0,1.1-0.5,1.2-1.2c0.1-1.5,0.1-7.9,0-9.1
			c0-0.8-0.3-1-1-1h-1.3v-1.2c0.3,0,3.1,0,3.4,0c0.4,0,2,0,4.7,0c0.8,0,3.2,0,4.1-0.1c-0.1,1.4-0.1,3.5-0.1,5h-1.1
			c0-2.9-0.9-3.6-3.2-3.6h-2.2c-0.6,0-0.9,0.4-0.9,0.9c0,0.5,0,2.3,0,4H85c1.7,0,2.6-0.4,2.6-2.1v-0.4H88.6z"/>
		<path class="st0" d="M101.5,90h-1.2c-0.7,0-1,0.2-1,1c-0.1,1.2-0.1,8,0,9.5c0,0.6,0.4,0.8,1,0.8h1.7c2.2,0,3.2-0.7,3.3-4.1h1.2
			c-0.1,1.3-0.2,4-0.2,5.3c-0.9-0.1-2.8-0.1-3.7-0.1H98c-0.8,0-2.8,0-3.3,0v-1.2h1.1c0.9,0,1.1-0.1,1.1-0.8c0.1-1.5,0.1-8.3,0-9.5
			c0-0.8-0.3-1-1-1h-1.2v-1.2c0,0,2.2,0.1,3.4,0.1c1.2,0,3-0.1,3.4-0.1L101.5,90z"/>
		<path class="st0" d="M108.7,95.6c0-4.6,2.8-7.2,6.6-7.2c4.4,0,6.6,2.6,6.6,7.1c0,4.6-2.8,7.2-6.6,7.2
			C111,102.8,108.7,100.1,108.7,95.6 M119.3,95.6c0-4.4-1.2-6.1-4-6.1c-2.7,0-3.9,2-3.9,6.1c0,4.3,1,6.1,3.9,6.1
			C118.2,101.7,119.3,99.6,119.3,95.6"/>
		<path class="st0" d="M136.2,102.5c-0.6-2.3-2-7.1-2.8-9.9c-0.9,2.8-2.4,7.6-3,9.9h-2c-0.7-2.7-2.4-8.5-3.2-11.2
			c-0.3-0.9-0.6-1.3-1.5-1.3H123v-1.2c0,0,2,0.1,3.2,0.1s2.9-0.1,3.2-0.1V90h-0.7c-0.9,0-1.1,0.4-0.9,1.3c0.5,2.1,1.7,6.3,2.4,8.7
			c0.8-2.4,2-6.7,2.5-8.8c0.2-0.9,0.1-1.3-0.9-1.3h-0.4v-1.2c0,0,1.8,0.1,2.8,0.1s2.5-0.1,2.8-0.1V90h-0.6c-0.8,0-1,0.4-0.8,1.2
			c0.6,2.1,1.7,6.4,2.5,8.8c0.7-2.4,1.9-6.5,2.3-8.5c0.2-1,0-1.5-1-1.5h-0.4v-1.2c0,0,1.7,0.1,2.6,0.1c0.9,0,2.2-0.1,2.5-0.1V90
			h-0.7c-0.9,0-1.3,0.4-1.7,1.6c-0.8,2.6-2.6,8.3-3.3,11L136.2,102.5z"/>
		<path class="st0" d="M154.8,92.4h1.1c0,1.1-0.1,1.6-0.1,3c0,1.4,0,2.1,0.1,3.2h-1.1v-0.2c0-1.7-0.7-2.4-2.6-2.4h-0.9
			c0,1.9,0,3.7,0.1,4.3c0,0.7,0.5,1,1,1h2.8c2.5,0,3.2-1.2,3.2-4h1.2c-0.1,1.5-0.2,3.6-0.2,5.3c-0.9-0.1-2.9-0.1-3.7-0.1H150
			c-0.9,0-3.3,0-3.3,0v-1.2h1.1c0.9,0,1.1-0.5,1.2-1.2c0.1-1.1,0.1-7.9,0-9.1c-0.1-0.8-0.3-1-1-1h-1.2v-1.2c0.3,0,3.1,0,3.4,0
			s2.5,0,5.3,0c0.8,0,3.2,0,4.1-0.1c-0.1,1.4-0.1,3.5-0.1,4.9h-1.1c0-2.9-0.7-3.6-3.1-3.6h-3c-0.7,0-0.9,0.4-0.9,0.9s-0.1,2.2-0.1,4
			h1c1.7,0,2.5-0.5,2.5-2.3L154.8,92.4z"/>
		<path class="st0" d="M176.2,100.1c0,0.8-0.3,1.3-0.8,1.3c-0.7,0-1.1-0.4-1.4-2.8c-0.2-1.4-1-2.3-2.5-2.6c1.8-0.2,3.2-1.6,3.2-3.5
			c0-2.4-1.9-3.6-5.2-3.6c-0.8,0-2.4,0-3.3,0c-0.4,0-3.1,0-3.4,0V90h1.3c0.7,0,1,0.2,1,1c0.1,1.2,0.1,8,0,9.1c0,0.9-0.5,1.2-1.3,1.2
			h-0.9v1.2c0,0,2.1,0,3.4,0c1,0,3.4,0,3.4,0v-1.2h-0.9c-0.7,0-1.1-0.3-1.1-1.2c0-0.5-0.1-2.1-0.1-3.8h1.4c1.3,0,2.6,0.4,2.7,2.6
			c0.1,2.5,1.1,4.2,3.7,4.1c1.3-0.1,2-1,2-2.6C176.9,100.3,176.5,100.2,176.2,100.1 M168.9,95.3h-1.6c0-2,0-4,0.1-4.7
			c0-0.5,0.2-0.8,0.8-0.8h1c2.1,0,2.9,0.7,2.9,2.7C172.1,94.5,171.3,95.3,168.9,95.3"/>
		<path class="st0" d="M105.2,52.3c0,0.4-0.3,0.7-0.7,0.7s-0.7-0.3-0.7-0.7c0-0.4,0.3-0.7,0.7-0.7C104.9,51.6,105.2,51.9,105.2,52.3
			L105.2,52.3"/>
		<path class="st0" d="M102.4,52.7c0.2,0.3,0.1,0.8-0.3,1s-0.8,0.1-1-0.3c-0.2-0.3-0.1-0.8,0.3-1C101.7,52.2,102.2,52.3,102.4,52.7
			C102.4,52.7,102.4,52.7,102.4,52.7"/>
		<path class="st0" d="M100.1,54.4c0.3,0.2,0.5,0.6,0.3,1s-0.6,0.5-1,0.3c-0.3-0.2-0.5-0.6-0.3-1C99.3,54.4,99.7,54.3,100.1,54.4
			C100.1,54.4,100.1,54.4,100.1,54.4"/>
		<path class="st0" d="M99,57.1c0.4,0,0.7,0.3,0.7,0.7c0,0.4-0.3,0.7-0.7,0.7c-0.4,0-0.7-0.3-0.7-0.7S98.6,57.1,99,57.1L99,57.1"/>
		<path class="st0" d="M99.4,59.9c0.3-0.2,0.8-0.1,1,0.3c0.2,0.3,0.1,0.8-0.3,1c-0.3,0.2-0.8,0.1-1-0.3C98.9,60.6,99,60.1,99.4,59.9
			C99.4,59.9,99.4,59.9,99.4,59.9"/>
		<path class="st0" d="M101.1,62.2c0.2-0.3,0.6-0.5,1-0.3s0.5,0.6,0.3,1c-0.2,0.3-0.6,0.5-1,0.3C101,63,100.9,62.5,101.1,62.2
			C101.1,62.2,101.1,62.2,101.1,62.2"/>
		<path class="st0" d="M103.8,63.3c0-0.4,0.3-0.7,0.7-0.7c0.4,0,0.7,0.3,0.7,0.7c0,0.4-0.3,0.7-0.7,0.7S103.8,63.7,103.8,63.3
			L103.8,63.3"/>
		<path class="st0" d="M106.6,62.9c-0.2-0.3-0.1-0.8,0.3-1c0.3-0.2,0.8-0.1,1,0.3c0.2,0.3,0.1,0.8-0.3,1
			C107.2,63.4,106.8,63.3,106.6,62.9C106.6,62.9,106.6,62.9,106.6,62.9"/>
		<path class="st0" d="M108.9,61.2c-0.3-0.2-0.5-0.6-0.3-1c0.2-0.3,0.6-0.5,1-0.3c0.3,0.2,0.5,0.6,0.3,1
			C109.7,61.2,109.2,61.4,108.9,61.2C108.9,61.2,108.9,61.2,108.9,61.2"/>
		<path class="st0" d="M110,58.5c-0.4,0-0.7-0.3-0.7-0.7s0.3-0.7,0.7-0.7c0.4,0,0.7,0.3,0.7,0.7S110.4,58.5,110,58.5L110,58.5"/>
		<path class="st0" d="M109.6,55.7c-0.3,0.2-0.8,0.1-1-0.3c-0.2-0.3-0.1-0.8,0.3-1c0.3-0.2,0.8-0.1,1,0.3c0,0,0,0,0,0
			C110.1,55,109.9,55.5,109.6,55.7C109.6,55.7,109.6,55.7,109.6,55.7"/>
		<path class="st0" d="M107.8,53.4c-0.2,0.3-0.6,0.5-1,0.3c-0.3-0.2-0.5-0.6-0.3-1c0.2-0.3,0.6-0.5,1-0.3
			C107.9,52.6,108,53.1,107.8,53.4C107.8,53.4,107.8,53.4,107.8,53.4"/>
		<path class="st0" d="M106.6,43.6c-0.1-0.4-0.5-1-1.1-1.7c-0.6-0.6-0.9-0.8-1-0.8c0,0-0.4,0.1-1,0.8c-0.6,0.7-1,1.3-1.1,1.7
			c-0.1,0.4,0.2,2.8,1,4.9c0.3-0.4,0.7-0.8,1-0.8c0.4,0,0.7,0.4,1,0.8C106.4,46.4,106.7,44,106.6,43.6"/>
		<path class="st0" d="M97.8,45.1c-0.3-0.3-1-0.5-1.9-0.7c-0.9-0.2-1.2-0.1-1.2-0.1c0,0-0.2,0.3-0.3,1.2c-0.1,0.9-0.1,1.6,0.1,2
			s1.8,2.1,3.7,3.3c0-0.5,0.1-1,0.4-1.3s0.9-0.1,1.3,0C99.3,47.5,98.1,45.4,97.8,45.1"/>
		<path class="st0" d="M114.5,47.5c0.2-0.4,0.2-1.1,0.1-2c-0.1-0.9-0.3-1.2-0.3-1.2c0,0-0.4-0.1-1.2,0c-0.9,0.2-1.6,0.4-1.9,0.7
			s-1.5,2.4-2,4.5c0.5-0.1,1-0.3,1.3,0c0.3,0.2,0.3,0.8,0.4,1.3C112.7,49.7,114.4,47.9,114.5,47.5"/>
		<path class="st0" d="M91.6,51.4c-0.4,0-1.1,0.1-1.9,0.5c-0.8,0.4-1,0.7-1,0.7c0,0,0,0.4,0.4,1.2c0.4,0.8,0.9,1.4,1.2,1.6
			c0.4,0.2,2.7,0.7,4.9,0.5c-0.3-0.4-0.6-0.9-0.5-1.2s0.7-0.6,1.1-0.7C94.2,52.5,92,51.5,91.6,51.4"/>
		<path class="st0" d="M90.3,60.2c-0.4,0.2-0.8,0.7-1.2,1.6c-0.4,0.8-0.4,1.1-0.4,1.2c0,0,0.3,0.3,1,0.7c0.8,0.4,1.5,0.6,1.9,0.5
			c0.4,0,2.6-1.1,4.3-2.5c-0.4-0.2-1-0.4-1.1-0.7s0.2-0.8,0.5-1.2C93.1,59.5,90.7,60,90.3,60.2"/>
		<path class="st0" d="M94.5,68.1c-0.2,0.4-0.2,1.1-0.1,2c0.1,0.9,0.3,1.2,0.3,1.2c0,0,0.4,0.1,1.2,0c0.9-0.2,1.6-0.4,1.9-0.7
			s1.5-2.4,2-4.5c-0.5,0.1-1,0.3-1.3,0c-0.3-0.2-0.3-0.8-0.4-1.3C96.3,65.9,94.6,67.7,94.5,68.1"/>
		<path class="st0" d="M102.4,72c0.1,0.4,0.5,1,1.1,1.7c0.6,0.6,0.9,0.8,1,0.8c0,0,0.4-0.1,1-0.8c0.6-0.7,1-1.3,1.1-1.7
			c0.1-0.4-0.2-2.8-1-4.9c-0.3,0.4-0.7,0.8-1,0.8s-0.7-0.4-1-0.8C102.6,69.2,102.3,71.6,102.4,72"/>
		<path class="st0" d="M111.2,70.5c0.3,0.3,1,0.5,1.9,0.7c0.9,0.2,1.2,0.1,1.2,0.1c0,0,0.2-0.3,0.3-1.2c0.1-0.9,0.1-1.6-0.1-2
			c-0.2-0.4-1.8-2.1-3.7-3.3c0,0.5-0.1,1-0.4,1.3c-0.3,0.2-0.9,0.1-1.3,0C109.7,68.1,110.9,70.2,111.2,70.5"/>
		<path class="st0" d="M117.4,64.2c0.4,0,1.1-0.1,1.9-0.5c0.8-0.4,1-0.7,1-0.7c0,0,0-0.4-0.4-1.2c-0.4-0.8-0.9-1.4-1.2-1.6
			c-0.4-0.2-2.7-0.7-4.9-0.5c0.3,0.4,0.6,0.9,0.5,1.2c-0.1,0.4-0.7,0.6-1.1,0.7C114.8,63.1,117,64.1,117.4,64.2"/>
		<path class="st0" d="M118.6,55.4c0.4-0.2,0.8-0.7,1.2-1.6c0.4-0.8,0.4-1.1,0.4-1.2c0,0-0.3-0.3-1-0.7c-0.8-0.4-1.5-0.6-1.9-0.5
			c-0.4,0-2.6,1.1-4.3,2.5c0.4,0.2,1,0.4,1.1,0.7c0.1,0.4-0.2,0.8-0.5,1.2C115.9,56.1,118.3,55.6,118.6,55.4"/>
		<path class="st0" d="M100.5,42.4C99.8,42,99.4,42,99.4,42c0,0-0.3,0.3-0.7,1c-0.2,0.3-0.3,0.7-0.4,1c0.1,0.1,0.6,0.3,0.9,0.8
			c0.2,0.4,0.4,0.8,0.6,1.2c0.4,0.9,0.8,2.1,0.9,2.8c0.1-0.3,0.3-0.6,0.6-0.7s0.6,0.1,0.9,0.2c-0.2-0.6-0.6-1.8-0.9-2.8
			c-0.1-0.4-0.2-0.9-0.2-1.4c0-0.6,0.2-1.1,0.3-1.2C101.2,42.8,100.8,42.6,100.5,42.4"/>
		<path class="st0" d="M92.2,47.7C91.4,47.8,91.1,48,91,48c0,0-0.1,0.4,0.1,1.2c0.1,0.4,0.2,0.7,0.3,1.1c0.1,0,0.7-0.1,1.2,0.1
			c0.4,0.2,0.8,0.4,1.2,0.6c0.8,0.5,1.9,1.3,2.4,1.7c-0.1-0.3-0.1-0.7,0.1-0.9c0.2-0.2,0.5-0.3,0.9-0.3c-0.6-0.4-1.6-1.1-2.3-1.8
			c-0.4-0.3-0.7-0.6-1-1c-0.4-0.4-0.5-1-0.5-1.1C93,47.6,92.6,47.6,92.2,47.7"/>
		<path class="st0" d="M88.6,56.8c-0.6,0.6-0.8,0.9-0.8,1c0,0,0.1,0.4,0.8,1c0.3,0.3,0.6,0.5,0.9,0.7c0.1-0.1,0.5-0.5,1.1-0.6
			c0.4-0.1,0.9-0.2,1.4-0.2c1-0.1,2.3-0.1,2.9,0c-0.3-0.2-0.5-0.5-0.5-0.8c0-0.3,0.2-0.5,0.5-0.8c-0.7,0-1.9,0-2.9,0
			c-0.5,0-0.9-0.1-1.4-0.2c-0.6-0.1-1-0.6-1.1-0.6C89.2,56.3,88.9,56.6,88.6,56.8"/>
		<path class="st0" d="M91.1,66.3c-0.2,0.9-0.1,1.2-0.1,1.2c0,0,0.3,0.2,1.2,0.3c0.4,0,0.7,0.1,1.1,0.1c0-0.1,0.1-0.7,0.5-1.1
			c0.3-0.3,0.6-0.7,1-1c0.8-0.6,1.8-1.4,2.3-1.8c-0.4,0-0.7-0.1-0.9-0.3c-0.2-0.2-0.1-0.6-0.1-0.9c-0.5,0.4-1.6,1.2-2.4,1.7
			c-0.4,0.2-0.8,0.4-1.2,0.6c-0.5,0.2-1.1,0.1-1.2,0.1C91.2,65.6,91.1,66,91.1,66.3"/>
		<path class="st0" d="M98.6,72.6c0.4,0.8,0.7,1,0.7,1c0,0,0.4,0,1.2-0.4c0.3-0.2,0.6-0.4,0.9-0.6c0-0.1-0.3-0.6-0.3-1.2
			c0-0.5,0.1-0.9,0.2-1.4c0.2-1,0.6-2.2,0.9-2.8c-0.3,0.2-0.6,0.3-0.9,0.2c-0.3-0.1-0.4-0.4-0.6-0.7c-0.2,0.6-0.6,1.9-0.9,2.8
			c-0.2,0.4-0.4,0.8-0.6,1.2c-0.3,0.5-0.8,0.8-0.9,0.8C98.4,71.9,98.5,72.3,98.6,72.6"/>
		<path class="st0" d="M108.5,73.2c0.8,0.4,1.1,0.4,1.2,0.4c0,0,0.3-0.3,0.7-1c0.2-0.3,0.3-0.7,0.4-1c-0.1-0.1-0.6-0.3-0.9-0.8
			c-0.2-0.4-0.4-0.8-0.6-1.2c-0.4-0.9-0.8-2.1-0.9-2.8c-0.1,0.3-0.3,0.6-0.6,0.7s-0.6-0.1-0.9-0.2c0.2,0.6,0.6,1.8,0.9,2.8
			c0.1,0.4,0.2,0.9,0.2,1.4c0,0.6-0.2,1.1-0.3,1.2C107.8,72.8,108.1,73,108.5,73.2"/>
		<path class="st0" d="M116.8,67.9c0.9-0.1,1.2-0.3,1.2-0.3c0,0,0.1-0.4-0.1-1.2c-0.1-0.4-0.2-0.7-0.3-1.1c-0.1,0-0.7,0.1-1.2-0.1
			c-0.4-0.2-0.8-0.4-1.2-0.6c-0.8-0.5-1.9-1.3-2.4-1.7c0.1,0.3,0.1,0.7-0.1,0.9c-0.2,0.2-0.5,0.3-0.9,0.3c0.6,0.4,1.6,1.1,2.3,1.8
			c0.4,0.3,0.7,0.6,1,1c0.4,0.4,0.5,1,0.5,1.1C116,68,116.4,68,116.8,67.9"/>
		<path class="st0" d="M120.4,58.8c0.6-0.6,0.8-0.9,0.8-1c0,0-0.1-0.4-0.8-1c-0.3-0.3-0.6-0.5-0.9-0.7c-0.1,0.1-0.5,0.5-1.1,0.6
			c-0.4,0.1-0.9,0.2-1.4,0.2c-1,0.1-2.3,0.1-2.9,0c0.3,0.2,0.5,0.5,0.5,0.8s-0.2,0.5-0.5,0.8c0.7,0,1.9,0,2.9,0
			c0.5,0,0.9,0.1,1.4,0.2c0.6,0.1,1,0.6,1.1,0.6C119.8,59.3,120.1,59,120.4,58.8"/>
		<path class="st0" d="M117.9,49.3c0.2-0.9,0.1-1.2,0.1-1.2c0,0-0.3-0.2-1.2-0.3c-0.4,0-0.7-0.1-1.1-0.1c0,0.1-0.1,0.7-0.5,1.1
			c-0.3,0.3-0.6,0.7-1,1c-0.8,0.6-1.8,1.4-2.3,1.8c0.3,0,0.7,0.1,0.9,0.3s0.1,0.6,0.1,0.9c0.5-0.4,1.6-1.2,2.4-1.7
			c0.4-0.2,0.8-0.4,1.2-0.6c0.5-0.2,1.1-0.1,1.2-0.1C117.8,50,117.9,49.6,117.9,49.3"/>
		<path class="st0" d="M110.3,43c-0.4-0.8-0.7-1-0.7-1c0,0-0.4,0-1.2,0.4c-0.3,0.2-0.6,0.4-0.9,0.6c0,0.1,0.3,0.6,0.3,1.2
			c0,0.5-0.1,0.9-0.2,1.4c-0.2,1-0.6,2.2-0.9,2.8c0.3-0.2,0.6-0.3,0.9-0.2c0.3,0.1,0.4,0.4,0.6,0.7c0.2-0.6,0.6-1.9,0.9-2.8
			c0.2-0.4,0.4-0.8,0.6-1.2c0.3-0.5,0.8-0.8,0.9-0.8C110.6,43.7,110.5,43.3,110.3,43"/>
		<path class="st0" d="M105.2,49.8c0,0.4-0.3,0.7-0.7,0.7s-0.7-0.3-0.7-0.7c0-0.4,0.3-0.7,0.7-0.7C104.9,49.1,105.2,49.4,105.2,49.8
			C105.2,49.8,105.2,49.8,105.2,49.8"/>
		<path class="st0" d="M102.7,50c0.1,0.4-0.1,0.8-0.5,0.9c-0.4,0.1-0.8-0.1-0.9-0.5c-0.1-0.4,0.1-0.8,0.5-0.9
			C102.2,49.4,102.6,49.6,102.7,50C102.7,50,102.7,50,102.7,50"/>
		<path class="st0" d="M100.4,50.9c0.2,0.3,0.2,0.8-0.2,1c-0.3,0.2-0.8,0.2-1-0.2c-0.2-0.3-0.2-0.8,0.2-1
			C99.7,50.5,100.1,50.6,100.4,50.9"/>
		<path class="st0" d="M98.4,52.5c0.3,0.2,0.4,0.7,0.2,1c-0.2,0.3-0.7,0.4-1,0.2c-0.3-0.2-0.4-0.7-0.2-1
			C97.7,52.4,98.1,52.3,98.4,52.5"/>
		<path class="st0" d="M97.1,54.7c0.4,0.1,0.6,0.5,0.5,0.9c-0.1,0.4-0.5,0.6-0.9,0.5c-0.4-0.1-0.6-0.5-0.5-0.9
			C96.3,54.7,96.7,54.5,97.1,54.7C97.1,54.7,97.1,54.7,97.1,54.7"/>
		<path class="st0" d="M96.5,57.1c0.4,0,0.7,0.3,0.7,0.7c0,0.4-0.3,0.7-0.7,0.7c-0.4,0-0.7-0.3-0.7-0.7S96.1,57.1,96.5,57.1
			L96.5,57.1"/>
		<path class="st0" d="M96.7,59.6c0.4-0.1,0.8,0.1,0.9,0.5c0.1,0.4-0.1,0.8-0.5,0.9c-0.4,0.1-0.8-0.1-0.9-0.5
			C96.1,60.1,96.3,59.7,96.7,59.6C96.7,59.6,96.7,59.6,96.7,59.6"/>
		<path class="st0" d="M97.6,61.9c0.3-0.2,0.8-0.2,1,0.2c0.2,0.3,0.2,0.8-0.2,1c-0.3,0.2-0.8,0.2-1-0.2
			C97.2,62.6,97.3,62.2,97.6,61.9"/>
		<path class="st0" d="M99.2,63.9c0.2-0.3,0.7-0.4,1-0.2c0.3,0.2,0.4,0.7,0.2,1c-0.2,0.3-0.7,0.4-1,0.2C99,64.6,99,64.2,99.2,63.9"
			/>
		<path class="st0" d="M101.3,65.2c0.1-0.4,0.5-0.6,0.9-0.5c0.4,0.1,0.6,0.5,0.5,0.9c-0.1,0.4-0.5,0.6-0.9,0.5
			C101.4,66,101.2,65.6,101.3,65.2C101.3,65.2,101.3,65.2,101.3,65.2"/>
		<path class="st0" d="M103.8,65.8c0-0.4,0.3-0.7,0.7-0.7c0.4,0,0.7,0.3,0.7,0.7c0,0.4-0.3,0.7-0.7,0.7S103.8,66.2,103.8,65.8
			L103.8,65.8"/>
		<path class="st0" d="M106.3,65.6c-0.1-0.4,0.1-0.8,0.5-0.9c0.4-0.1,0.8,0.1,0.9,0.5c0.1,0.4-0.1,0.8-0.5,0.9
			C106.8,66.2,106.4,66,106.3,65.6C106.3,65.6,106.3,65.6,106.3,65.6"/>
		<path class="st0" d="M108.6,64.7c-0.2-0.3-0.2-0.8,0.2-1s0.8-0.2,1,0.2c0.2,0.3,0.2,0.8-0.2,1C109.3,65.1,108.8,65,108.6,64.7"/>
		<path class="st0" d="M110.5,63.1c-0.3-0.2-0.4-0.7-0.2-1s0.7-0.4,1-0.2c0.3,0.2,0.4,0.7,0.2,1C111.3,63.2,110.9,63.3,110.5,63.1"
			/>
		<path class="st0" d="M111.9,61c-0.4-0.1-0.6-0.5-0.5-0.9c0.1-0.4,0.5-0.6,0.9-0.5c0.4,0.1,0.6,0.5,0.5,0.9
			C112.7,60.9,112.3,61.1,111.9,61C111.9,61,111.9,61,111.9,61"/>
		<path class="st0" d="M112.5,58.5c-0.4,0-0.7-0.3-0.7-0.7s0.3-0.7,0.7-0.7s0.7,0.3,0.7,0.7S112.9,58.5,112.5,58.5L112.5,58.5"/>
		<path class="st0" d="M112.3,56c-0.4,0.1-0.8-0.1-0.9-0.5c-0.1-0.4,0.1-0.8,0.5-0.9c0.4-0.1,0.8,0.1,0.9,0.5
			C112.9,55.5,112.7,55.9,112.3,56C112.3,56,112.3,56,112.3,56"/>
		<path class="st0" d="M111.4,53.7c-0.3,0.2-0.8,0.2-1-0.2c-0.2-0.3-0.2-0.8,0.2-1c0.3-0.2,0.8-0.2,1,0.2
			C111.8,53,111.7,53.4,111.4,53.7"/>
		<path class="st0" d="M109.8,51.7c-0.2,0.3-0.7,0.4-1,0.2s-0.4-0.7-0.2-1c0.2-0.3,0.7-0.4,1-0.2C109.9,51,110,51.4,109.8,51.7"/>
		<path class="st0" d="M107.6,50.4c-0.1,0.4-0.5,0.6-0.9,0.5c-0.4-0.1-0.6-0.5-0.5-0.9c0.1-0.4,0.5-0.6,0.9-0.5
			C107.6,49.6,107.8,50,107.6,50.4C107.6,50.4,107.6,50.4,107.6,50.4"/>
	</g>
	<path class="st0" d="M585.4,510.4c-0.1,0-0.2,0.1-0.3,0.2c-0.2,0.3-0.3,0.7-0.3,1v1.4h1.3v0.8h-1.3v3.3h1v0.8h-2.7v-0.8h0.8v-3.3
		H583v-0.8h0.9v-1.2c-0.1-0.6,0.1-1.3,0.6-1.8c0.3-0.3,0.8-0.5,1.2-0.5c0.6,0,1,0.3,1,0.7c0,0.3-0.2,0.6-0.5,0.6c0,0,0,0-0.1,0
		C585.7,510.9,585.5,510.7,585.4,510.4z"/>
	<path class="st0" d="M590.7,513.7c0,0.4-0.3,0.6-0.6,0.7c-0.3,0-0.5-0.2-0.7-0.4c-0.5,0.2-0.8,0.6-1,1v2.2h0.9v0.8h-2.6v-0.8h0.8
		v-3.3h-0.8v-0.8h1.7v1.1c0.4-0.7,1-1.2,1.5-1.2c0.4,0,0.8,0.2,0.8,0.6C590.7,513.6,590.7,513.7,590.7,513.7z"/>
	<path class="st0" d="M591.7,515.9c0.1,0.9,0.9,1.5,1.8,1.4c0.6,0,1.2-0.2,1.8-0.6l-0.1,0.9c-0.6,0.3-1.2,0.5-1.8,0.5
		c-1.4,0.1-2.6-0.9-2.7-2.3c0-0.1,0-0.2,0-0.3c-0.1-1.3,1-2.5,2.3-2.6c0,0,0.1,0,0.1,0c1.2-0.1,2.3,0.9,2.3,2.1c0,0.1,0,0.2,0,0.3
		c0,0.2,0,0.4,0,0.6L591.7,515.9z M591.7,515.1h2.8c0-0.7-0.5-1.3-1.2-1.3c0,0-0.1,0-0.1,0C592.4,513.8,591.8,514.4,591.7,515.1z"/>
	<path class="st0" d="M597,515.9c0.1,0.9,0.9,1.5,1.8,1.4c0.6,0,1.2-0.2,1.8-0.6l-0.1,0.9c-0.6,0.3-1.2,0.5-1.8,0.5
		c-1.4,0.1-2.6-0.9-2.7-2.3c0-0.1,0-0.2,0-0.3c-0.1-1.3,1-2.5,2.3-2.6c0,0,0.1,0,0.1,0c1.2-0.1,2.3,0.9,2.3,2.1c0,0.1,0,0.2,0,0.3
		c0,0.2,0,0.4,0,0.6L597,515.9z M597,515.1h2.8c0-0.7-0.5-1.3-1.2-1.3c0,0-0.1,0-0.1,0C597.6,513.8,597,514.4,597,515.1z"/>
	<path class="st0" d="M604.7,517.5c-0.1-0.2-0.2-0.5-0.1-0.7v-2.8h-0.9v-0.8h0.9v-1.1l1-0.4v1.5h1.5v0.8h-1.5v2.7
		c0,0.1,0,0.3,0.1,0.4c0.1,0.2,0.3,0.3,0.6,0.2c0.3,0,0.6-0.1,0.9-0.3l-0.1,0.9c-0.3,0.2-0.7,0.3-1.1,0.3
		C605.4,518.2,604.9,517.9,604.7,517.5z"/>
	<path class="st0" d="M607.2,515.6c0-1.4,1.1-2.6,2.6-2.6c1.4,0,2.6,1.1,2.6,2.6c0,1.4-1.1,2.6-2.6,2.6c0,0,0,0,0,0
		c-1.4,0-2.5-1-2.6-2.4C607.2,515.7,607.2,515.6,607.2,515.6z M611.3,515.6c-0.1-0.9-0.8-1.5-1.7-1.4c-0.9,0.1-1.5,0.8-1.4,1.7
		c0.1,0.8,0.8,1.4,1.6,1.4c0.9,0,1.6-0.7,1.6-1.6C611.3,515.6,611.3,515.6,611.3,515.6L611.3,515.6z"/>
	<path class="st0" d="M615,520.2c-0.2-0.2-0.3-0.5-0.3-0.7c0-0.4,0.3-0.7,0.7-0.8c0,0,0,0,0,0c0.4,0,0.7,0.3,0.7,0.7c0,0,0,0,0,0
		c0,0.1,0,0.2-0.1,0.3c0.3,0.1,0.6,0.2,0.9,0.2c0.5,0,0.9-0.1,1.3-0.5c0.3-0.4,0.6-0.9,0.6-1.4l0.2-1.1c-0.4,0.7-1.2,1.1-1.9,1.1
		c-1.3,0-2.1-0.9-2.1-2.3c0-1.8,1.3-3.4,3-3.4c0.8,0,1.5,0.5,1.8,1.3l0.4-1.2h1.1l-1.4,5.8c-0.1,0.7-0.4,1.3-0.8,1.8
		c-0.6,0.5-1.3,0.8-2.1,0.7C616.3,520.9,615.6,520.6,615,520.2z M619.6,514.8c0-0.7-0.5-1.3-1.2-1.4c-0.1,0-0.1,0-0.2,0
		c-1.1,0-1.9,1.1-1.9,2.3c-0.1,0.7,0.5,1.3,1.2,1.4c0.1,0,0.1,0,0.2,0C618.7,517.2,619.6,516.1,619.6,514.8L619.6,514.8z"/>
	<path class="st0" d="M622.8,513.5h-1.1l0.2-1h2l-0.4,1.6c0.7-1.1,1.4-1.7,2-1.7c0.4,0,0.8,0.3,0.9,0.7c0,0.4-0.3,0.8-0.7,0.9
		c0,0-0.1,0-0.1,0c-0.4,0-0.7-0.2-0.8-0.6c-0.8,0.5-1.3,1.3-1.5,2.2l-0.6,2.5h-1.1L622.8,513.5z"/>
	<path class="st0" d="M626.2,515.8c0-1.8,1.4-3.3,3.2-3.4c1.3-0.1,2.5,1,2.6,2.3c0,0.1,0,0.1,0,0.2c0,1.8-1.4,3.3-3.2,3.4
		c-1.3,0.1-2.5-1-2.6-2.3C626.2,516,626.2,515.9,626.2,515.8z M630.8,515c0.1-0.8-0.5-1.5-1.3-1.5c-0.1,0-0.1,0-0.2,0
		c-1.1,0-2,1.1-2,2.4c-0.1,0.8,0.5,1.5,1.3,1.5c0.1,0,0.1,0,0.2,0C629.9,517.4,630.8,516.3,630.8,515L630.8,515z"/>
	<path class="st0" d="M633.1,513.5h-1l0.2-1h1.8l0.2,4.3l2-3.7h0.7l0.8,3.8c0.8-1.2,1.4-2.3,1.5-3c-0.3-0.1-0.6-0.4-0.6-0.7
		c0-0.4,0.3-0.8,0.7-0.8c0,0,0,0,0,0c0.5,0,0.9,0.4,0.9,0.9c0,0,0,0.1,0,0.1c0,1-0.8,2.6-2.5,5h-0.7l-0.7-3.5l-2.1,3.4h-0.8
		L633.1,513.5z"/>
	<path class="st0" d="M618.1,478.1c-0.3-0.9-0.8-1.8-1.5-2.4c1.7,0.5,3.6,0.5,5.3,0.1c2.5-0.6,5.1-3.4,4.5-6.2
		c-0.6-2.8-4.2-3.3-7.5-2.2l-0.3,0.1l0.1-0.2c2.4-3.3,1.3-8.3-1-9.7s-6.4,2.4-7.7,5.4c-0.2,0.5-0.3,0.9-0.4,1.4
		c-1.5-2-4.5-3.1-6.3-2.5c-2.2,0.8-2.1,5.1-0.8,7.4c0.6,1.1,1.3,2,2.2,2.9c-0.4,0.1-0.8,0.2-1.2,0.3c-2.9,1-4.4,3.4-3.9,5.6
		c0.4,2.3,4.5,2.5,6.7,2c1.3-0.4,2.5-1.2,3.3-2.4c-0.3,1.7,0.1,3.4,0.9,4.9c1.6,3,4.4,3.9,5.8,2.9
		C617.6,484.7,619.2,481.8,618.1,478.1"/>
	<path class="st0" d="M641.5,476.2c2.1,0.4,1.7,2,2.4,3.9c0.2,0.4,0.2,1.5,0.6,1.7c0.6,0.2,1.7-0.2,2.1-0.3c1.8-0.2,2.7,0,4.5,0.7
		c0.4,0.2,0.8,0.3,1.2,0.5c0.4,0.3,0.1,1,0.2,1.5c0.1,0.4,0.6,0.8,0.5,1.3c-0.6,0.3-1.1,0.4-1.6,0.8c-0.7,0.2-1.4,0.3-2.1,0.4
		c-1.1,0.2-2,0.5-3.4,0.6c0.3,2.2,0.5,3.8,0.6,6.1c0.3,3.1-1.6,8.3-2.7,10.7c-0.8,1.7-2.4,5.1-4.9,4.3c-1.8-0.6-3.3-2.1-2.6-4.2
		l1-2.1c0.9-2.3,1.6-4.8,2-7.2c0.2-0.8,0.2-1.6,0.2-2.4c0-1.1,0-2.2,0-3.3c0-0.3,0-1-0.1-1.2c-0.9-0.2-1.9-0.2-2.9,0l-0.9-0.3
		c-0.3,0-1.2-0.6-0.9-0.9c-0.1-0.1-0.3-0.1-0.4-0.3c-0.1-0.2-0.1-0.5,0-0.7l-0.5-0.3l0.1-0.4c1.3-0.7,2.5-1.4,3.9-2
		c0.3-0.1,1.4-0.2,1.3-0.6c0.3-1.2-0.5-3.9,0.2-5C639.6,476.6,640.8,476.5,641.5,476.2z"/>
	<path class="st0" d="M557.7,481.6c2.1-0.1,5.3,0.3,6.4,1.4c0.5,0.5,1.1,1.4,0.6,2.4c-0.6,0.9-1.7,0.5-2.8,0.7
		c-2.3,0.4-4,0.2-5.4,1.7c-0.2,0.3-0.6,0.6-0.5,1.2c0.3,1.2,1.9,1.8,2.8,2.4c2,1.5,5.2,4.2,5.1,7.5c0,1.4-0.1,2.4-0.8,3.4
		c-0.6,0.6-1.3,1.2-2,1.7c-0.8,0.6-1.5,1.3-2.4,1.9c-1.7,1.1-5.6,2.1-7.9,1.9c-1.3-0.1-4.2-0.3-4.6-1c0.3-0.5,0.3-1.1,0-1.7
		l-0.5-0.1c-0.9-5.2,9.7-3.5,11-7.2c-2.7-1.8-5.9-2.9-7.7-5.7c-0.8-1.3-1-2.9-0.7-4.4c0.2-0.6,0.5-1.1,0.9-1.6
		c0.5-0.8,1.1-1.6,1.9-2.2c1.4-1,3-1.7,4.7-2.1L557.7,481.6z"/>
	<path class="st0" d="M596.2,481.7l1.5,0.1c0.7,0.2,2.2,1,2.5,1.7c0.3,0.6,0.2,1,0.4,1.6c0.3,0.6,0.6,1.3,0.8,2
		c-1.7,2.6-5.2,0.2-6.8,2.5c-1.4,2-1,6.5-1.3,9.6c-0.2,1.5,0.3,3.2-0.1,4.5c-0.3,0.9-2,1.4-3.1,0.9c-0.9-0.6-1.5-3.4-2-4.5
		c-0.5-1.2-0.9-2.4-1-3.7c0-0.6,0-1.2-0.1-1.8c-0.9-5,1.3-9.2,4.2-11.2c1-0.7,2.3-1,3.6-1.4L596.2,481.7z"/>
	<path class="st0" d="M620.5,487.2c1.9,0,2.5,1.6,2.3,3.7c-0.3,3.1,0.6,8.9,3.6,9.7c0.9,0.2,1.9-0.7,2.2-1.1
		c1.8-2.3,0.8-6.1,0.3-9.2c-0.1-0.9-0.1-2.7,0.5-3l0.4-0.1c0.6,0.4,0.7,1.1,1.3,1.5l1.4,0.6l0.7,0.7c0.2,0.1,0.6-0.1,0.8,0.2
		c0.1,0.1,0.6,1.1,0.7,1.2c0.5,1.1,0.5,2,0.7,3.3c0.9,4.8-1.7,8.9-5.3,10.4c-1.1,0.3-2.2,0.6-3.3,0.6c-3.7,0.5-7-2.9-8.4-5.6
		c-0.8-1.4-1-5-0.9-6.5c0.1-1.7,0.5-5.4,1.8-6.2C619.6,487.3,620.1,487.3,620.5,487.2z"/>
	<path class="st0" d="M579,495.2c-0.6,1.9-0.9,2.5-3,3.2c-0.6,0.3-1.2,0.4-1.8,0.4c-2.1-0.3-3.2-3-2.8-5.3c0.1-0.8,0-1.2,0.3-1.9
		c0.2-0.5,1.1-1.7,1.7-1.9l1.5-0.3c2.9-0.1,3.4,0.9,4.1,3.4C579.1,493.6,579.2,494.4,579,495.2 M576.3,483.5
		c-1.2,0.2-2.3,0.5-3.4,0.9c-2.4,1.1-4.3,2.8-5.7,5c-4,7.1-1.3,16.2,2.2,22c0.7,1.2,1.5,3.6,2.4,4.5l0,0.1h0l-0.3-0.6l0.9,0.6
		c0.5,0.2,0.6,0,1,0c1.9,0.2,2.1-0.1,3.6-0.7c0.2-2.2-0.8-4.7-1.5-6.5l-1.8-5c1.9,0.5,3.6-0.2,5.4-0.9c3.2-1.2,5-3.6,5.8-6.8
		C586.6,489.7,582.3,483.2,576.3,483.5z"/>
	<path class="st0" d="M611.4,500.1c-0.6,1.9-3.3,3.7-6.1,2.6c-2.9-1.1-3.2-6.1-0.8-7.9c1-0.7,2.3-1,3.9-1.2
		C611.1,493.8,612.2,497.3,611.4,500.1 M616.2,497.4c0-0.7-0.3-1.4-0.3-2.2c-0.3-0.9-0.8-1.8-1.4-2.6c-0.2-0.4-0.6-0.8-0.7-1.2
		c-1.2-1.6-4-3.4-6.8-3.3l-1.3,0.3c-3.2,1.2-6.3,2.2-8,4.9c-0.6,1-1.1,2-1.3,3.1c-1,4,0.5,6.8,2.2,9c0.5,0.7,1.1,1.3,1.9,1.8
		c0.3,0.1,0.7,0.4,1.1,0.5c1,0.3,2,0.5,3,0.7c0.4,0.1,0.7,0.1,1.1,0c0.6,0,1.3-0.1,1.9-0.2c0.2,0,0.3-0.1,0.5-0.2
		c1-0.3,1.9-0.3,2.7-0.8c0.6-0.4,1.1-0.6,1.7-1c0.6-0.3,1.1-0.7,1.6-1.2c0.6-0.8,0.9-1.6,1.3-2.5c0.5-0.9,0.8-2,1-3
		C616.4,498.8,616.4,498.1,616.2,497.4L616.2,497.4z"/>
	<path class="st0" d="M641.7,512.2h-0.3v0.9c0,0,0,0.1,0,0.1c0,0-0.1,0-0.1,0c0,0-0.1,0-0.1,0c0,0,0-0.1,0-0.1v-0.9h-0.3
		c0,0-0.1,0-0.1,0c0,0,0,0,0-0.1c0,0,0-0.1,0-0.1c0,0,0.1,0,0.1,0h0.8c0,0,0.1,0,0.1,0c0,0,0,0,0,0.1c0,0,0,0.1,0,0.1
		C641.8,512.2,641.7,512.2,641.7,512.2z"/>
	<path class="st0" d="M642.4,513.1l-0.2-0.8v0.9c0,0,0,0.1,0,0.1c0,0-0.1,0-0.2,0c0,0,0,0,0,0c0,0,0-0.1,0-0.1v-1c0,0,0-0.1,0-0.1
		c0,0,0.1,0,0.1,0h0.1c0,0,0.1,0,0.1,0c0,0,0,0,0,0c0,0,0,0.1,0,0.1l0.2,0.7l0.2-0.7c0,0,0-0.1,0-0.1c0,0,0,0,0,0c0,0,0.1,0,0.1,0
		h0.1c0,0,0.1,0,0.1,0c0,0,0,0.1,0,0.1v1c0,0,0,0.1,0,0.1c0,0-0.1,0-0.1,0c0,0-0.1,0-0.1,0c0,0,0-0.1,0-0.1v-0.9l-0.2,0.8l0,0.1
		c0,0,0,0,0,0.1c0,0-0.1,0-0.1,0c0,0-0.1,0-0.1,0c0,0,0,0,0,0C642.4,513.2,642.4,513.2,642.4,513.1L642.4,513.1z"/>
	<polygon class="st0" points="893.9,486.2 893.9,494.2 883.9,494.2 883.9,486.2 879.4,486.2 879.4,508.3 883.9,508.3 883.9,498.4 
		893.9,498.4 893.9,508.3 898.3,508.3 898.3,486.2 	"/>
	<polygon class="st0" points="820.7,494.2 810.6,494.2 810.6,486.2 806.2,486.2 806.2,508.3 810.6,508.3 810.6,498.4 820.7,498.4 
		820.7,508.3 825.1,508.3 825.1,486.2 820.7,486.2 	"/>
	<path class="st0" d="M862,505.8c0.3-0.4,0.5-0.9,0.7-1.2c0.7-1.4,1.3-2.9,1.7-4.4c0.2-0.6,0.6-1,1.1-1.3c1-0.3,1.9-0.8,2.8-1.4
		c0.9-0.7,1.3-2,1.6-3.6c-1,0.1-2,0.3-3,0.7c-0.9,0.5-1.5,1.3-1.7,2.3c-0.2,0.7-0.6,1.4-1.2,1.9c-0.2-0.6-0.3-1.3-0.3-2
		c0-1.4,0.7-3-0.1-4.9c-0.8-1.9-3.6-3.5-3.6-3.5c-0.6,1.7-0.6,3.5-0.1,5.2c0.6,1.8,2.3,2.6,2.8,3.8c0.4,0.9,0.4,1.8,0.2,2.7l0,0
		c-0.3,1.6-1.1,3.1-2.1,4.4l-8.8-8.8c0.2-0.3,0.5-0.7,0.8-1.2l0,0c0.2-0.2,0.3-0.6,0.5-0.9l0.1-0.1l0,0c1-1.9,2.5-5,2.3-7.5
		c-0.4-4.7-4.8-6.8-7.2-6.9c-2.6-0.1-7.2,0.7-8.1,5.9c-0.9,4.8,5,9.7,7.5,12.1c1.4,1.4,6.2,6.1,10.1,10l-0.1,0.1
		c-1.8,1.3-5.7,2.1-8.7,1.6c-5.5-0.9-8.2-5.1-8.6-8.2c-0.4-2.6,0.3-5.3,1.8-7.5l-0.9-1c-1,1.1-3.7,3.7-4.4,7.4
		c-0.7,4.5,1.3,9,5.1,11.4c3.2,2.2,8.5,2.7,12.5,1.1c1.9-0.8,3.6-2,5-3.4c2,1.9,3.4,3.4,3.8,3.6h5.5L862,505.8z M843.8,485.1
		c0-2.2,0.9-4,2.9-4.3c1.9-0.3,4,1.6,5.1,3.5c1.3,2.3,1.1,4.2,0.9,6.2c-0.2,1-0.5,2-1,2.9c-0.2,0.3-0.4,0.7-0.8,1.4l-2.9-2.8
		C846.3,490.2,843.8,487.3,843.8,485.1z"/>
	<polygon class="st0" points="835.1,463.5 833.4,460.9 836.2,459.2 837.8,461.8 839.1,461 835.5,455.1 834.2,455.9 835.5,458.1 
		832.8,459.8 831.4,457.6 830.1,458.5 833.8,464.3 	"/>
	<path class="st0" d="M845.6,457.4l3.2-0.5l0.9,1.4l1.7-0.2l-4.2-6.4l-1.3,0.2l-2.2,7.3l1.6-0.2L845.6,457.4z M846.6,453.6
		L846.6,453.6l1.5,2.3l-2.1,0.3L846.6,453.6z"/>
	<polygon class="st0" points="861.8,458.7 857.8,457.7 859.2,452.3 857.7,451.9 856,458.6 861.5,460 	"/>
	<polygon class="st0" points="865.9,462.1 867.1,463 868.8,460.6 870.9,462.1 871.6,461 869.5,459.6 870.4,458.4 873.8,460.9 
		874.5,459.8 869.9,456.5 	"/>
	<polygon class="st0" points="836.3,534.7 833.5,533 834.9,530.8 833.5,530 829.9,535.9 831.3,536.7 832.9,534.1 835.7,535.8 
		834.1,538.4 835.4,539.2 839,533.3 837.7,532.5 	"/>
	<path class="st0" d="M846.4,535.5l-4.2,6.4l1.6,0.2l0.9-1.4l3.2,0.5l0.4,1.5l1.7,0.2l-2.1-7.3L846.4,535.5z M845.3,539.6l1.4-2.3
		h0.1l0.7,2.6L845.3,539.6z"/>
	<polygon class="st0" points="858.1,540.9 856.9,535.4 855.5,535.7 856.9,542.5 862.4,541.3 862.1,540 	"/>
	<polygon class="st0" points="870.1,532.7 868,534.1 867.2,532.9 870.8,530.6 870.1,529.5 865.2,532.6 869,538.5 870.3,537.6 
		868.7,535.2 870.8,533.8 	"/>
	<path class="st0" d="M1052.7,477.4h-12.9v0.8c3.1,0,3.8,1,3.8,4.4v17.7c0,3.4-0.7,4.4-3.8,4.4v0.8h12.9c10,0,16.1-5.5,16.1-14
		S1062.8,477.4,1052.7,477.4z M1051.9,504.5h-1.6v-26.3h1.7c7.3,0,9.8,6.4,9.8,13.1S1059.2,504.5,1051.9,504.5L1051.9,504.5z"/>
	<path class="st0" d="M1081.6,486.6c-6,0-10.1,4.2-10.1,9.6c0,5,3.5,9.6,10.2,9.6c3.6,0.1,7-1.6,9-4.7l-0.7-0.5
		c-1.3,1.9-3.7,3.9-6.3,3.9c-4,0-5.9-3.4-5.9-9.3h12.9C1090.5,489.8,1086.8,486.6,1081.6,486.6z M1077.8,494.4
		c0.1-3.5,1.1-7.1,3.7-7.1c3.1,0,3.2,5,3.2,7.1H1077.8z"/>
	<path class="st0" d="M1125.3,486.6c-2.4,0-4.2,1.9-5.2,4.2v-4.2l-8.9,1.1v0.8c2.4,0,2.9,1.2,2.9,3.4v9.2c0,2.2-0.5,3.4-2.9,3.4v0.8
		h11.8v-0.8c-2.4,0-2.9-1.2-2.9-3.4v-6.5c0-2.4,1-4.6,2.2-5c-0.1,1.8,1.3,3.3,3.1,3.4c1.8,0.1,3.3-1.3,3.4-3.1s-1.3-3.3-3.1-3.4
		C1125.5,486.6,1125.4,486.6,1125.3,486.6L1125.3,486.6z"/>
	<path class="st0" d="M1106.4,486.6c-2.4,0-4.2,1.9-5.2,4.2v-4.2l-8.9,1.1v0.8c2.4,0,2.9,1.2,2.9,3.4v9.2c0,2.2-0.5,3.4-2.9,3.4v0.8
		h11.8v-0.8c-2.4,0-2.9-1.2-2.9-3.4v-6.5c0-2.4,1-4.6,2.2-5c-0.1,1.8,1.3,3.3,3.1,3.4c1.8,0.1,3.3-1.3,3.4-3.1s-1.3-3.3-3.1-3.4
		C1106.7,486.6,1106.6,486.6,1106.4,486.6L1106.4,486.6z"/>
	<path class="st0" d="M1139,501.1v-14.6l-8.9,1.1v0.8c2.4,0,2.9,1.2,2.9,3.4v9.2c0,2.2-0.5,3.4-2.9,3.4v0.8h11.8v-0.8
		C1139.5,504.6,1139,503.4,1139,501.1z"/>
	<circle class="st0" cx="1135.8" cy="480.6" r="3.5"/>
	<path class="st0" d="M1151,505.1c-4,0-5-2.7-6.4-5.9l-0.7,0l0.2,5.8c2.3,0.5,4.7,0.8,7.1,0.9c5.1,0,8.3-2.1,8.3-6
		c0-7.2-11-5.4-11-10.1c0-1.3,0.9-2.4,3.4-2.4c3.4,0,4.6,2.7,5.9,5.6l0.7,0l-0.2-5.5c-2.2-0.4-4.4-0.7-6.7-0.8
		c-4.9,0-7.6,2.1-7.6,5.7c0,7.2,10.9,5.2,10.9,10.2C1154.9,503.7,1154.1,505.1,1151,505.1z"/>
</g>
</svg>
