<?xml version="1.0" encoding="utf-8"?>
<!-- Generator: Adobe Illustrator 20.0.0, SVG Export Plug-In . SVG Version: 6.00 Build 0)  -->
<svg version="1.1" xmlns="http://www.w3.org/2000/svg" xmlns:xlink="http://www.w3.org/1999/xlink" x="0px" y="0px"
	 viewBox="0 0 209 173" style="enable-background:new 0 0 209 173;" xml:space="preserve">
<style type="text/css">
	.st0{fill:#231F20;}
</style>
<g id="Layer_2">
</g>
<g id="Layer_1">
	<title>Solti-logo</title>
	<g>
		<g>
			<g>
				<path class="st0" d="M125.6,82.9c3.3-1.2,5.4-4.3,5.4-7.9c0-5.2-3.6-8.2-9.1-8.2h-14c1.3,1.6,2.3,3.3,3,5.2h10.9
					c2.5,0,3.5,1.2,3.5,3s-0.9,2.9-3.6,2.9h-9.4c0,0.6,0.1,1.2,0.1,1.7c0,1.2-0.1,2.4-0.3,3.5h7.6l6.3,11h6.2L125.6,82.9z"/>
				<path class="st0" d="M66.7,89.2c-5.6,0-8.8-3.5-8.8-8.5c0-5,3-8.5,8.8-8.5l5.7-0.1c0.7-1.9,1.8-3.6,3-5.2h-1l-7.7,0.1
					c-9,0-14.3,5.8-14.3,13.6c0,7.9,5.6,13.8,14.3,13.8h9c-1.5-1.5-2.7-3.3-3.6-5.2H66.7z"/>
				<path class="st0" d="M153.4,89.2h-6.1c-4.6,0-7.6-2.4-8.5-6.1h13.2c-0.1-0.7-0.1-1.4-0.1-2.2c0-0.9,0.1-1.9,0.2-2.8h-13.2
					c0.9-3.5,3.7-5.8,8.5-5.8h6.2c0.8-1.9,1.8-3.6,3.2-5.2h-9.4c-9,0-14.3,5.8-14.3,13.6c0,7.9,5.6,13.7,14.3,13.7h9.1
					C155.1,92.9,154.1,91.1,153.4,89.2"/>
			</g>
			<g>
				<path class="st0" d="M58.4,105.6c-0.8,0-1.2,0.2-1.2,0.5c0,0.2,0.1,0.3,0.3,0.4c0.4,0.1,1,0.1,1.8,0.2c0.9,0.1,1.4,0.4,1.4,1.1
					c0,0.8-0.7,1.2-2,1.2c-0.9,0-1.7-0.2-2.2-0.6l0.3-0.4c0.6,0.4,1.2,0.5,1.9,0.5c0.9,0,1.4-0.3,1.4-0.7c0-0.5-0.6-0.5-1.7-0.6
					c-1.1-0.1-1.7-0.3-1.7-1s0.7-1.1,1.9-1.1c0.7,0,1.4,0.2,2,0.5l-0.4,0.4C59.5,105.8,59,105.6,58.4,105.6z"/>
				<path class="st0" d="M79.4,106.4c0,0.7-0.5,1.1-1.4,1.1h-2.2v1.4h-0.6v-3.7h2.9C78.9,105.2,79.4,105.6,79.4,106.4z M78.7,106.4
					c0-0.4-0.3-0.6-0.8-0.6h-2.2v1.2H78C78.5,106.9,78.7,106.7,78.7,106.4L78.7,106.4z"/>
				<path class="st0" d="M96.7,108.9l-0.4-0.8h-2.5l-0.4,0.8h-0.7l2-3.7h0.8l2,3.7H96.7z M95,105.7l-0.9,1.8H96L95,105.7z"/>
				<path class="st0" d="M115.2,106.2c-0.4-0.4-1-0.6-1.6-0.6c-1,0-1.7,0.6-1.7,1.4c0,0.8,0.7,1.4,1.8,1.4c0.6,0,1.1-0.2,1.5-0.6
					l0.5,0.3c-0.5,0.6-1.2,0.9-2.1,0.9c-0.6,0-1.2-0.2-1.6-0.5c-0.8-0.6-1-1.7-0.4-2.5c0.1-0.2,0.2-0.3,0.4-0.4
					c0.5-0.3,1-0.5,1.6-0.5c0.8,0,1.6,0.3,2.1,1L115.2,106.2z"/>
				<path class="st0" d="M130.4,108.9v-3.7h3.7v0.5H131v0.9h2.2v0.5H131v1.1h3.3v0.5L130.4,108.9z"/>
				<path class="st0" d="M150.2,105.6c-0.8,0-1.2,0.2-1.2,0.5c0,0.2,0.1,0.3,0.3,0.4c0.4,0.1,1,0.1,1.8,0.2c0.9,0.1,1.4,0.4,1.4,1.1
					c0,0.8-0.7,1.2-2,1.2c-0.9,0-1.7-0.2-2.2-0.6l0.3-0.4c0.6,0.4,1.2,0.5,1.9,0.5c0.9,0,1.4-0.3,1.4-0.7c0-0.5-0.6-0.5-1.7-0.6
					c-1.1-0.1-1.7-0.3-1.7-1s0.7-1.1,1.9-1.1c0.7,0,1.4,0.2,2,0.5l-0.4,0.4C151.4,105.8,150.8,105.6,150.2,105.6z"/>
			</g>
		</g>
		<path class="st0" d="M105.3,70.7c-5.6-7.4-16.2-8.8-23.6-3.2s-8.8,16.2-3.2,23.6c5.6,7.4,16.2,8.8,23.6,3.2c0,0,0,0,0,0
			C109.5,88.6,110.9,78.1,105.3,70.7z M98.2,89.2c-4.6,3.5-11.2,2.6-14.7-2s-2.6-11.2,2-14.7c4.6-3.5,11.2-2.6,14.7,2
			C103.7,79.1,102.8,85.7,98.2,89.2C98.2,89.2,98.2,89.2,98.2,89.2z"/>
	</g>
	<path class="st0" d="M588.3,82.1h-3.7v11.4h-5.2V67.3h12.4c4.4,0,7.5,2.8,7.5,7.1c0,4.6-2.8,6.9-5.8,7.2l8.1,11.9H596L588.3,82.1z
		 M590.3,77.5c1.6,0,3.8-0.5,3.8-2.8c0-2.2-2.3-2.9-3.8-2.9h-5.7v5.7H590.3z"/>
	<path class="st0" d="M604.8,93.6V67.3h19.5v4.8h-14.4v5.4h12.2v4.6h-12.2v6.6h15v4.8H604.8z"/>
	<path class="st0" d="M627.5,67.4h5.6l7.4,10.1l7.3-10.1h5.6l-10.6,14.9v11.3H638V82.3L627.5,67.4z"/>
	<path class="st0" d="M554.2,80.5c0,5.4,4.5,9.2,9.8,9.2c3.2,0,5.7-1.5,6.7-2.9v-4.7h-7.2v-4.6h12.1v11c-1.9,2.8-5.7,5.7-11.7,5.7
		c-8.8,0-14.8-6.1-14.8-13.8s6.3-13.8,14.7-13.8c3.8-0.1,7.5,1.3,10.3,3.8l-2.9,3.5c-2-1.8-4.6-2.8-7.4-2.8
		C558.7,71.3,554.2,74.9,554.2,80.5z"/>
	<path class="st0" d="M582.7,100v3.4c0,0.2,0,0.6,0,0.9c0,0.6-0.5,1.1-1,1.3l0,0c-0.2,0-0.3,0.1-0.5,0.1c-0.2,0-0.4,0-0.5-0.1l0,0
		c-0.5-0.2-0.9-0.6-1-1.2v-0.1H579v0.1v0.2c0.1,0.7,0.7,1.3,1.4,1.5c0.2,0.1,0.4,0.1,0.7,0.1l0,0c0.2,0,0.5,0,0.7-0.1
		c0.7-0.2,1.2-0.8,1.4-1.5c0-0.2,0.1-0.4,0.1-0.6c0-0.2,0-0.6,0-0.7V100H582.7z"/>
	<path class="st0" d="M624.4,100v3.1c0.1,0.6-0.1,1.2-0.4,1.7c-0.4,0.6-1,0.9-1.7,0.9c-0.7,0-1.3-0.3-1.7-0.9
		c-0.3-0.5-0.4-1.1-0.4-1.7V100h-0.5v3.2c-0.1,0.7,0.1,1.4,0.5,2c0.5,0.7,1.3,1.1,2.1,1.1l0,0c0.9,0,1.7-0.4,2.1-1.1
		c0.3-0.6,0.5-1.3,0.4-2V100H624.4z"/>
	<path class="st0" d="M586.3,100l-2.6,6.1h0.6l0.9-2.1h2.7l0.9,2.1v0h0.6l-2.6-6.1H586.3z M587.6,103.5h-2.2l1.1-2.7L587.6,103.5z"
		/>
	<polygon class="st0" points="618.2,100 616.1,105.2 614.5,100.1 614.5,100.1 614,100.1 612.4,105.2 610.3,100 610.3,100 609.7,100 
		612.2,106.1 612.2,106.1 612.6,106.1 614.2,101 615.9,106.1 615.9,106.1 616.3,106.1 618.8,100 618.2,100 	"/>
	<path class="st0" d="M592.5,102.6l-0.9-0.2c-0.3,0-0.5-0.2-0.7-0.4c-0.2-0.2-0.3-0.4-0.3-0.6c0-0.3,0.1-0.5,0.3-0.7
		c0.2-0.2,0.5-0.3,0.8-0.3l0,0c0.3,0,0.7,0.1,0.9,0.3c0.2,0.1,0.3,0.3,0.4,0.6v0.1h0.5v-0.1c0-0.4-0.3-0.7-0.6-0.9
		c-0.4-0.3-0.8-0.4-1.2-0.4c-0.9,0-1.6,0.6-1.7,1.5c0,0.4,0.1,0.7,0.4,1c0.3,0.3,0.6,0.4,1,0.5l0.9,0.2c0.3,0.1,0.6,0.2,0.9,0.5
		c0.2,0.2,0.3,0.5,0.3,0.8c0,0.4-0.1,0.8-0.4,1c-0.3,0.3-0.7,0.4-1.1,0.4c-0.4,0-0.8-0.2-1.1-0.4c-0.2-0.2-0.4-0.5-0.5-0.8v-0.1
		h-0.5v0.1c0.2,1,1.1,1.8,2.1,1.8c0.5,0,1.1-0.1,1.5-0.5c0.4-0.3,0.6-0.9,0.6-1.4c0-0.4-0.1-0.8-0.4-1.1
		C593.4,102.8,593,102.6,592.5,102.6z"/>
	<path class="st0" d="M598.1,99.9c-0.9,0-1.7,0.3-2.3,0.9c-0.6,0.6-0.9,1.4-0.9,2.2c0,0.8,0.3,1.7,0.9,2.3c1.3,1.2,3.3,1.2,4.6,0
		c0.6-0.6,0.9-1.4,0.9-2.2v0c0-0.8-0.3-1.6-0.9-2.2C599.8,100.2,598.9,99.9,598.1,99.9z M600.8,103c0,1.5-1.1,2.7-2.6,2.7
		c0,0-0.1,0-0.1,0c-0.8,0-1.5-0.3-2-0.9c-0.4-0.5-0.7-1.1-0.7-1.8c0-0.8,0.3-1.5,0.9-2c0.5-0.4,1.2-0.7,1.8-0.7
		c0.7,0,1.4,0.3,1.9,0.7C600.5,101.6,600.8,102.3,600.8,103L600.8,103z"/>
	<polygon class="st0" points="606.7,105.2 602.8,100 602.8,100 602.4,100 602.4,106.1 602.9,106.1 602.9,100.9 606.7,106.1 
		606.7,106.1 607.2,106.1 607.2,100 606.7,100 	"/>
	<g>
		<title>Solti-logo</title>
		<path d="M849.9,102.6c-11.5,0-20.7-9.3-20.8-20.8h5.5c0,8.4,6.8,15.2,15.3,15.3L849.9,102.6L849.9,102.6z"/>
		<path d="M825.9,69.4c0,5-4.4,8.9-10.2,8.9c-3.9-0.1-7.7-1.6-10.5-4.3l3.5-4c1.7,2.1,4.3,3.2,7,3.3c2.5,0,4.4-1.6,4.4-3.8
			c0-2.7-2.5-3.6-5.6-4.9c-1.4-0.5-2.7-1.1-3.9-1.8c-2.8-1.7-4.3-3.9-4.3-6.7c0-5.5,5.2-8.4,9.9-8.4c3.1-0.1,6.1,0.8,8.5,2.8
			l-3.3,3.9c-1.4-1-3.1-1.6-4.8-1.6c-2.4-0.1-4.6,1-4.6,3.2c0,2,2.4,2.9,5,4C821,61.6,825.9,63.5,825.9,69.4z"/>
		<path d="M839.8,56.9c-6,0.1-10.8,5-10.6,11c-0.3,5.9,4.4,10.9,10.3,11c5.9,0.1,10.9-4.4,11-10.3c0-0.3,0-0.5,0-0.7
			C850.6,61.9,845.9,57.1,839.8,56.9z M839.8,73.3c-2.9-0.1-5.3-2.5-5.2-5.4c-0.1-2.8,2.1-5.3,4.9-5.4c2.8-0.1,5.3,2.1,5.4,4.9
			c0,0.1,0,0.4,0,0.5C845,70.9,842.8,73.2,839.8,73.3L839.8,73.3z"/>
		<rect x="854.4" y="49.6" width="5.5" height="28.9"/>
		<rect x="868.7" y="99.5" width="5.5" height="18.9"/>
		<path d="M860,89.5h-5.5v20.1c0,5,4.2,9.2,9.2,9.2l0,0v-5.5c-2.1,0-3.6-1.6-3.6-3.6v-7.1h4.5V97H860C860,97,860,89.5,860,89.5z"/>
		<circle cx="871.4" cy="93.1" r="3.6"/>
		<circle cx="871.5" cy="93.1" r="3.6"/>
	</g>
	<g>
		<path d="M1137.5,101.6c0-0.6,0.5-1.1,1.2-1.1c0.6,0,1.1,0.5,1.1,1.2c0,0.6-0.5,1.1-1.1,1.1C1138,102.8,1137.5,102.3,1137.5,101.6
			C1137.5,101.7,1137.5,101.6,1137.5,101.6 M1137.2,101.6c0,0.8,0.7,1.5,1.5,1.5c0.8,0,1.5-0.7,1.5-1.5s-0.7-1.5-1.5-1.5l0,0
			C1137.8,100.2,1137.2,100.8,1137.2,101.6L1137.2,101.6z M1138.1,102.4h0.3v-0.7h0.2l0.5,0.7h0.3l-0.5-0.7c0.2,0,0.4-0.2,0.4-0.5
			c0,0,0,0,0,0c0-0.3-0.2-0.5-0.6-0.5h-0.6L1138.1,102.4z M1138.4,101h0.3c0.2,0,0.4,0,0.4,0.2c0,0.2-0.2,0.2-0.4,0.2h-0.2
			L1138.4,101"/>
		<path d="M1096.1,71c0-6.4,3.9-8.4,7.5-10.4c0.1-0.1,0.1-0.2,0-0.3c0-0.1-0.1-0.1-0.2-0.1c-1.8,0.3-2.9-1-4.2-1
			c-1.4,0-2,1.3-2.6,1.3s-0.6-0.3-0.6-0.6c0-1.2,2.1-3.4,4.6-3.4c2.3,0,4.4,1.8,5.6,1.8c0.3,0,0.5-0.1,0.5-0.3c0-0.4-1-0.5-2.2-1.5
			s-2.9-2-4.4-2c-1.6,0-3.1,0.8-4,2.2c-0.2,0.6-0.5,1-0.9,1c-0.5,0-0.6-0.5-0.6-1.1c0-1.4,2.1-5.1,5.6-5.1c2.5,0,4.6,1.9,6.3,3.8
			c0.5,0.6,1.2,0.9,1.9,0.9c0.7,0,1.8,0.2,1.8,1.2c0,2-3.5,3-6.4,5.2c-2.7,2-3.8,4-3.8,8.3c0,3.7,1.6,7.8,5.5,7.8c3.6,0,5-3.8,5-7.2
			c0-4.9-0.9-6.6-3.4-8.4c-0.3-0.1-0.4-0.4-0.4-0.7c0-0.3,0.2-0.6,0.5-0.6c0.1,0,0.3,0,0.4,0c4,0,6.9,4.4,6.9,9.3
			c0,5.6-3.1,9.7-9.6,9.7C1098.8,80.7,1096,76,1096.1,71"/>
		<path d="M1073.2,86.5c-0.3,0-0.5-0.2-0.8-0.6c-0.8-1.2-1.1-1.3-4-1.3c-2,0-2.2,0.1-2.2,1.1V90h3.5c0.8,0,1.2,0.3,1.2,0.9
			c0,0.6-0.4,0.9-1.2,0.9h-2.8c-0.1,0-0.3,0-0.4,0.1c-0.2,0.1-0.2,0.3-0.2,0.8v5.6c0,0.4,0,0.7,0.1,1.1c0.1,0.2,0.3,0.4,0.6,0.4h0.6
			c0.4,0,0.7,0.4,0.7,0.8c0,0,0,0,0,0c0,0.6-0.3,0.8-1.4,0.8h-5.1c-1,0-1.3-0.2-1.3-0.8c0-0.4,0.3-0.8,0.8-0.8h0.6
			c0.2,0,0.4-0.2,0.5-0.4c0.1-0.4,0.1-0.7,0.1-1.1V85.8c0-0.4,0-0.7-0.1-1.1c-0.1-0.2-0.3-0.4-0.5-0.4h-0.6c-0.4,0-0.7-0.4-0.6-0.8
			c0-0.6,0.3-0.8,1.2-0.8h10.2c0.4,0,0.5,0,0.6,0.1c0.2,0.2,0.4,0.4,0.4,0.6l0.7,1.9c0.1,0.1,0.1,0.3,0.1,0.4
			C1073.8,86.2,1073.5,86.5,1073.2,86.5"/>
		<path d="M1099.8,99.8c-3.2,0-5-2.8-5-7.6s1.9-7.8,5-7.8s5.1,3,5.1,7.8C1104.8,96.8,1102.9,99.8,1099.8,99.8 M1082,99.8
			c-3.2,0-5-2.8-5-7.6s1.9-7.8,5-7.8s5.1,3,5.1,7.8C1087,96.8,1085.1,99.8,1082,99.8L1082,99.8z M1099.8,82.4c-4.7,0-7.9,2.6-8.9,7
			c-0.9-4.3-4.2-7-8.9-7c-5.6,0-9.2,3.8-9.2,9.8c0,5.8,3.6,9.7,9.1,9.7c4.7,0,8-2.7,9-7c0.9,4.3,4.2,7,8.8,7c5.7,0,9.3-3.8,9.3-9.8
			C1109,86.1,1105.4,82.4,1099.8,82.4"/>
		<path d="M1116.7,84.2c-0.7,0-1.5,0.2-2.1,0.6c-0.4,0.3-0.4,0.6-0.4,2.2v10.5c0,1.1,0,1.3,0.2,1.6c0.3,0.4,1.1,0.7,2.2,0.7
			c3.4,0,5.4-2.8,5.4-7.8C1122,87.1,1120,84.2,1116.7,84.2 M1123,99.9c-1.6,1.3-3.8,1.9-6.9,1.9c-2.9,0-6.2-0.6-7.2-1.4
			c-0.2-0.1-0.3-0.4-0.3-0.6c0-0.4,0.3-0.8,0.8-0.8c0.9-0.1,0.9-0.2,0.9-0.8v-0.6V86.6V86c0-0.7-0.1-0.8-0.9-0.9
			c-0.5,0-0.8-0.3-0.8-0.7c0-0.3,0.2-0.5,0.4-0.6c1-0.8,4.2-1.3,7.4-1.3c3.4,0,5.6,0.8,7.3,2.5s2.5,4.2,2.5,7.2
			C1126.2,95.4,1125.1,98.2,1123,99.9"/>
		<path d="M1132.1,101.8c-1,0-2-0.1-2.9-0.4c-0.2-0.1-0.4-0.1-0.6-0.1c-0.2,0-0.4,0.1-0.6,0.3c-0.2,0.2-0.4,0.3-0.6,0.3
			c-0.5,0-0.7-0.3-0.9-0.9l-0.7-2.8c-0.1-0.2-0.1-0.4-0.1-0.6c0-0.5,0.4-0.9,0.8-0.9c0,0,0,0,0,0c0.3,0,0.5,0.1,0.7,0.4l0.4,0.6
			c0.9,1.4,2.5,2.2,4.1,2.2c1.8,0,3-1,3-2.5c0-0.8-0.3-1.5-0.9-2.1c-0.9-0.9-1.9-1.7-3-2.4c-2.7-1.8-2.9-2-3.8-3
			c-0.7-0.8-1.1-1.9-1.1-2.9c0-2.7,2.1-4.5,5.1-4.5c0.8,0,1.6,0.1,2.4,0.3c0.1,0,0.3,0.1,0.7,0.2c0.1,0,0.3,0.1,0.4,0.1
			c0.2,0,0.5-0.1,0.6-0.3c0.2-0.1,0.4-0.2,0.6-0.2c0.4,0,0.6,0.3,0.8,0.8l0.6,3c0,0.1,0.1,0.3,0.1,0.4c-0.1,0.4-0.4,0.7-0.8,0.6
			c-0.3,0-0.5-0.1-0.7-0.5c-0.3-0.6-0.8-1.1-1.3-1.5c-0.8-0.6-1.7-0.9-2.6-0.9c-1.3,0-2.1,0.7-2.1,1.9c0,0.4,0.1,0.8,0.3,1.1
			c0.4,0.5,0.8,0.9,1.3,1.3c0.3,0.3,0.8,0.6,1.4,1c1.4,0.9,2.7,1.9,3.8,3c1,1,1.5,2.4,1.5,3.8
			C1138.2,99.6,1135.8,101.8,1132.1,101.8"/>
		<path d="M1128.4,77l-0.1,0.3l-0.9,2.1c-0.3,0.7-0.5,0.8-1.4,0.8h-10.7c-0.9,0-1.2-0.2-1.2-0.8c0-0.4,0.3-0.7,0.7-0.8c0,0,0,0,0,0
			h0.5c0.2,0,0.4-0.2,0.5-0.4c0.1-0.3,0.2-0.7,0.1-1V64.7c0-0.4,0-0.7-0.1-1.1c-0.1-0.2-0.3-0.4-0.5-0.4h-0.5
			c-0.4,0-0.8-0.3-0.8-0.8c0,0,0,0,0,0c0-0.6,0.3-0.8,1.3-0.8h5.1c1,0,1.3,0.2,1.3,0.8c0,0.4-0.3,0.8-0.7,0.8c0,0,0,0,0,0h-0.6
			c-0.2,0-0.5,0.1-0.6,0.4c-0.1,0.4-0.1,0.7-0.1,1.1v11.7c0,1.2,0.1,1.5,0.4,1.7c0.3,0.2,0.8,0.2,2.7,0.2c1.7,0,2,0,2.5-0.2
			c0.5-0.2,0.8-0.6,1.5-1.5c0.3-0.5,0.5-0.6,0.8-0.6c0.4,0,0.7,0.3,0.8,0.6c0,0,0,0,0,0C1128.4,76.8,1128.4,76.9,1128.4,77"/>
		<path d="M1142.6,77.7l-0.8,1.9c-0.2,0.5-0.3,0.6-0.8,0.6h-0.5h-10.9c-0.9,0-1.3-0.2-1.3-0.8c0-0.4,0.3-0.7,0.7-0.8c0,0,0,0,0,0
			h0.6c0.2,0,0.4-0.2,0.4-0.4c0.1-0.4,0.2-0.7,0.1-1.1V64.7c0-0.4,0-0.7-0.1-1.1c0-0.2-0.2-0.4-0.4-0.4h-0.6c-0.4,0-0.7-0.4-0.7-0.8
			c0-0.6,0.3-0.8,1.3-0.8h10.7c0.6,0,0.8,0.1,1,0.6l0.8,2.1c0.1,0.2,0.1,0.3,0.1,0.5c0,0.4-0.4,0.7-0.8,0.6c-0.1,0-0.2,0-0.3-0.1
			c-0.1-0.1-0.3-0.2-0.4-0.3c-0.1-0.2-0.2-0.3-0.3-0.5c-0.6-0.8-1.1-1-2.8-1h-1.9c-1.5,0-1.7,0.2-1.7,1.7v3.6h3.6
			c0.8,0,1.1,0.3,1.1,0.9s-0.4,1-1.1,1h-2.1c-0.8,0-1,0-1.1,0.1s-0.3,0.4-0.3,1v4.4c0,1.5,0.1,1.8,0.5,1.9c0.8,0.2,1.6,0.3,2.4,0.2
			c0.9,0,1.7,0,2.6-0.1c0.7-0.2,1.4-0.7,1.7-1.3c0.3-0.5,0.5-0.6,0.8-0.6c0.4,0,0.7,0.2,0.7,0.6c0,0,0,0.1,0,0.1
			C1142.7,77.2,1142.6,77.4,1142.6,77.7"/>
		<path d="M1095.9,78.6h-0.6c-0.2,0-0.4-0.1-0.5-0.3c-0.1-0.4-0.1-0.7-0.1-1.1V64.7c0-0.4,0-0.7,0.1-1.1c0.1-0.2,0.3-0.3,0.5-0.4
			h0.6c0.4,0,0.7-0.4,0.7-0.8c0,0,0,0,0,0c0-0.6-0.3-0.8-1.3-0.8h-5.1c-0.9,0-1.3,0.2-1.3,0.8c0,0.4,0.3,0.8,0.7,0.8c0,0,0,0,0,0
			h0.5c0.2,0,0.4,0.2,0.5,0.4c0.1,0.4,0.1,0.7,0.1,1.1v4.1h-6v-4.1c0-0.4,0-0.7,0.1-1.1c0.1-0.2,0.3-0.3,0.5-0.4h0.5
			c0.4,0,0.7-0.4,0.7-0.8c0,0,0,0,0,0c0-0.6-0.3-0.8-1.2-0.8h-9.2c-0.8,0-1.1,0.2-1.1,0.8c0,0.4,0.3,0.7,0.9,0.8
			c0.6,0.1,1,0.3,1,0.7c0,0.2,0,0.4-0.1,0.6l-3.3,10.7l-3.3-10.2c-0.2-0.4-0.2-0.8-0.3-1.2c0-0.5,0.2-0.6,0.9-0.8
			c0.6-0.1,0.9-0.3,0.9-0.8c0-0.4-0.3-0.8-0.9-0.8h-5.5c-0.6,0-1,0.3-1,0.8c0,0.4,0.2,0.6,0.8,0.8c0.6,0.1,0.9,0.3,1,0.7
			c0.1,0.1,0.1,0.3,0.2,0.6l1.3,3.7l-2.6,7.2l-3.8-10.5l-0.2-0.6c-0.1-0.2-0.1-0.4-0.1-0.6c0-0.4,0.3-0.6,0.9-0.7
			c0.7-0.1,1-0.3,1-0.7c0-0.5-0.3-0.8-0.9-0.8h-5.8c-0.6,0-0.9,0.3-0.9,0.8s0.2,0.6,0.8,0.8c0.9,0.2,1,0.3,1.5,1.5l5.5,14.7
			c0.4,1.1,0.8,1.4,1.6,1.4c0.3,0,0.7-0.1,0.9-0.3c0.3-0.3,0.5-0.7,0.5-1.1l2.7-7.6l2.6,7.6c0.3,1,0.8,1.4,1.6,1.4s1.2-0.4,1.6-1.8
			l4.4-14.3c0.3-1,0.5-1.2,1.1-1.4h0.2c0.2,0,0.4,0.2,0.5,0.4c0.1,0.4,0.1,0.7,0.1,1.1v12.5c0,0.4,0,0.8-0.1,1.1
			c-0.1,0.2-0.3,0.3-0.5,0.3h-0.5c-0.4,0-0.7,0.4-0.7,0.8c0,0.6,0.3,0.8,1.3,0.8h5.1c0.9,0,1.2-0.2,1.2-0.8c0-0.4-0.2-0.8-0.6-0.8
			h-0.5c-0.2,0-0.4-0.1-0.5-0.3c-0.1-0.4-0.1-0.7-0.1-1.1v-5.1c0-1.3,0.1-1.4,1.1-1.4h3.8c0.6,0,0.8,0.1,1,0.3
			c0.1,0.2,0.1,0.3,0.1,1.3v5c0,0.4,0,0.8-0.1,1.1c-0.1,0.2-0.3,0.3-0.5,0.3h-0.5c-0.4,0-0.7,0.4-0.7,0.8c0,0.6,0.3,0.8,1.3,0.8h5.1
			c1,0,1.3-0.2,1.3-0.8c0-0.4-0.3-0.8-0.7-0.8C1096,78.6,1095.9,78.6,1095.9,78.6"/>
		<path d="M1137.3,103.6c2.4-0.1,4.4,1.8,4.5,4.1c0.1,2.4-1.8,4.4-4.1,4.5c-0.1,0-0.2,0-0.3,0h-75.8c-2.4-0.1-4.2-2.1-4.1-4.5
			c0.1-2.3,1.9-4.1,4.1-4.1H1137.3 M1134.8,106.4c0,0,0-0.1,0-0.1l-0.2-0.6c0-0.1-0.1-0.1-0.1-0.1c0,0-0.1,0-0.2,0h-3.1
			c-0.2,0-0.2,0-0.3,0.2l-0.2,0.6c0,0.1,0,0.1,0,0.2c0,0.1,0.1,0.2,0.2,0.2c0.1,0,0.1,0,0.2-0.2l0.1-0.1c0.1-0.2,0.4-0.4,0.6-0.3
			c0.4,0,0.4,0,0.4,0.3v3.1c0,0.1,0,0.2,0,0.3c0,0.1-0.1,0.1-0.1,0.1h-0.2c-0.1,0-0.2,0.1-0.2,0.2c0,0.2,0.1,0.2,0.3,0.2h1.4
			c0.3,0,0.3-0.1,0.3-0.2c0-0.1-0.1-0.2-0.2-0.2c0,0,0,0,0,0h-0.2c-0.1,0-0.1,0-0.1-0.1c0-0.1,0-0.2,0-0.3v-3.1c0-0.3,0-0.3,0.4-0.3
			c0.2,0,0.3,0,0.5,0.1c0.1,0.1,0.2,0.2,0.3,0.3l0.1,0.1c0.1,0.1,0.1,0.2,0.2,0.2C1134.8,106.6,1134.8,106.5,1134.8,106.4z
			 M1121.8,109.5c0-0.1-0.1-0.2-0.2-0.2c0,0,0,0,0,0c-0.1,0-0.1,0-0.2,0.2c-0.1,0.2-0.3,0.3-0.4,0.3c-0.2,0-0.4,0-0.6,0
			c-0.2,0-0.4,0-0.6-0.1c-0.1,0-0.1-0.1-0.1-0.5v-1.1c0-0.2,0-0.2,0.1-0.3s0.1,0,0.3,0h0.6c0.2,0,0.3-0.1,0.3-0.3s-0.1-0.2-0.3-0.2
			h-0.9v-0.9c0-0.4,0-0.4,0.4-0.4h0.5c0.5,0,0.6,0.1,0.7,0.3c0,0,0.1,0.1,0.1,0.1c0,0,0.1,0.1,0.1,0.1c0,0,0.1,0,0.1,0
			c0.1,0,0.2-0.1,0.2-0.2c0,0,0-0.1,0-0.1l-0.2-0.5c0-0.1-0.1-0.1-0.3-0.1h-2.8c-0.2,0-0.3,0.1-0.3,0.2c0,0.1,0.1,0.2,0.2,0.2h0.1
			c0.1,0,0.1,0.1,0.1,0.1c0,0.1,0,0.2,0,0.3v3.2c0,0.1,0,0.2,0,0.3c0,0.1-0.1,0.1-0.1,0.1h-0.1c-0.1,0-0.2,0.1-0.2,0.2c0,0,0,0,0,0
			c0,0.2,0.1,0.2,0.3,0.2h2.9c0.1,0,0.1,0,0.2-0.2l0.2-0.5C1121.7,109.6,1121.8,109.5,1121.8,109.5z M1109.1,110.1
			c0-0.1-0.1-0.2-0.2-0.2c-0.1,0-0.1,0-0.2-0.1c-0.1-0.1-0.2-0.2-0.3-0.3l-1.4-2.1l0.9-1.1c0.1-0.1,0.2-0.2,0.3-0.3
			c0.1,0,0.2-0.1,0.2-0.1c0.2,0,0.2-0.1,0.2-0.2s-0.1-0.2-0.2-0.2h-1.2c-0.2,0-0.3,0.1-0.3,0.2c0,0.1,0.1,0.2,0.3,0.2
			c0.1,0,0.2,0.1,0.2,0.1c0,0,0,0.1,0,0.1l-0.1,0.2l-1.1,1.3c0,0.1-0.1,0.1-0.1,0.2c0,0.1,0,0.1,0.1,0.2l1.4,2.1
			c0.1,0.1,0.2,0.2,0.4,0.2h0.8C1109,110.3,1109.1,110.2,1109.1,110.1L1109.1,110.1z M1106.5,110.1c0-0.1-0.1-0.2-0.2-0.2h-0.1
			c-0.1,0-0.1,0-0.1-0.1c0-0.1,0-0.2,0-0.3v-3.3c0-0.1,0-0.2,0-0.3c0-0.1,0.1-0.1,0.1-0.1h0.1c0.1,0,0.2-0.1,0.2-0.2c0,0,0,0,0,0
			c0-0.2-0.1-0.2-0.3-0.2h-1.3c-0.2,0-0.3,0.1-0.3,0.2c0,0.1,0.1,0.2,0.2,0.2c0,0,0,0,0,0h0.1c0.1,0,0.1,0,0.1,0.1
			c0,0.1,0,0.2,0,0.3v3.2c0,0.1,0,0.2,0,0.3c0,0.1-0.1,0.1-0.1,0.1h-0.1c-0.1,0-0.2,0.1-0.2,0.2c0,0.2,0.1,0.2,0.3,0.2h1.3
			C1106.5,110.3,1106.6,110.3,1106.5,110.1L1106.5,110.1z M1095.7,110.1c0-0.1,0-0.1-0.1-0.2c-0.1,0-0.1,0-0.2-0.1
			c-0.2,0-0.3-0.1-0.4-0.4l-0.9-1.5c0.6-0.1,1-0.6,1-1.2c0-0.9-0.6-1.4-1.8-1.4c-0.6,0-1.2,0.1-1.8,0.4c0,0-0.1,0.1-0.1,0.2
			c0,0.1,0.1,0.2,0.2,0.2c0.1,0,0.2,0.1,0.2,0.2v3.1c0,0.1,0,0.2,0,0.3c0,0.1-0.1,0.1-0.1,0.1h-0.1c-0.1,0-0.2,0.1-0.2,0.2
			c0,0.2,0.1,0.2,0.3,0.2h1.3c0.2,0,0.3-0.1,0.3-0.2c0-0.1-0.1-0.2-0.2-0.2c0,0,0,0,0,0h-0.1c-0.1,0-0.1,0-0.1-0.1
			c0-0.1,0-0.2,0-0.3v-3c0-0.3,0-0.4,0.1-0.5c0.1-0.1,0.2-0.2,0.4-0.1c0.4,0,0.7,0.4,0.7,0.9s-0.2,0.8-0.7,0.9
			c-0.2,0-0.3,0.1-0.3,0.2c0,0.1,0.1,0.2,0.1,0.3l1.1,1.8c0.1,0.1,0.2,0.2,0.4,0.2h0.8C1095.6,110.3,1095.7,110.2,1095.7,110.1
			L1095.7,110.1z M1079.4,108.4h1.1l-0.5-1.7L1079.4,108.4 M1082.1,110.3h-1.5c-0.1,0-0.2-0.1-0.2-0.2c0,0,0,0,0,0
			c0-0.1,0.1-0.2,0.3-0.2c0.2,0,0.2-0.1,0.2-0.2c0-0.1,0-0.1,0-0.2l-0.1-0.4V109c0-0.1-0.1-0.1-0.3-0.1h-1c-0.1,0-0.1,0-0.2,0
			c0,0-0.1,0-0.1,0.1c0,0,0,0.1,0,0.1l-0.1,0.4c0,0.1,0,0.1,0,0.2c0,0.1,0.1,0.1,0.2,0.2c0.1,0,0.3,0.1,0.3,0.2
			c0,0.1-0.1,0.2-0.2,0.2h-1c-0.2,0-0.3-0.1-0.3-0.2s0.1-0.2,0.2-0.2c0.1,0,0.2,0,0.2-0.1c0.1-0.1,0.1-0.2,0.1-0.3l1.2-3.6
			c0.1-0.4,0.2-0.5,0.4-0.5c0.2,0,0.3,0.1,0.4,0.5l1.2,3.6c0.1,0.3,0.1,0.4,0.3,0.4h0.1c0.1,0,0.1,0.1,0.1,0.2
			C1082.4,110.2,1082.3,110.3,1082.1,110.3L1082.1,110.3z M1069,110.1c0-0.1-0.1-0.2-0.2-0.2h-0.1c-0.1,0-0.1,0-0.1-0.1
			c0-0.1,0-0.2,0-0.3v-3.3c0-0.1,0-0.2,0-0.3c0-0.1,0.1-0.1,0.1-0.1h0.1c0.1,0,0.2-0.1,0.2-0.2c0,0,0,0,0,0c0-0.1-0.1-0.2-0.3-0.2
			h-0.8c-0.1,0-0.2,0-0.2,0.1l-0.1,0.1l-1.2,1.9l-1.3-1.9c-0.1-0.1-0.1-0.2-0.2-0.2h-0.1h-0.7c-0.2,0-0.3,0.1-0.3,0.2
			c0,0.1,0.1,0.2,0.2,0.2c0,0,0,0,0,0h0.1c0.1,0,0.1,0,0.1,0.1c0,0.1,0,0.2,0,0.3v3.2c0,0.1,0,0.2,0,0.3c0,0-0.1,0.1-0.1,0.1h-0.1
			c-0.1,0-0.2,0.1-0.2,0.2c0,0.1,0.1,0.2,0.3,0.2h0.9c0.3,0,0.3-0.1,0.3-0.2c0-0.1-0.1-0.2-0.2-0.2h-0.1c-0.1,0-0.1,0-0.1-0.1
			c0-0.1,0-0.2,0-0.3v-2.6l1.2,1.8c0.1,0.1,0.1,0.2,0.2,0.2c0.1,0,0.2-0.1,0.2-0.2l1.1-1.8v2.6c0,0.1,0,0.2,0,0.3
			c0,0-0.1,0.1-0.1,0.1h-0.1c-0.1,0-0.2,0.1-0.2,0.2c0,0.1,0.1,0.2,0.3,0.2h1.3C1069,110.3,1069,110.3,1069,110.1z"/>
	</g>
	<g>
		<polygon class="st0" points="90.6,274.1 73.8,257.7 73.8,287.6 107.5,287.6 107.5,257.7 		"/>
		<path class="st0" d="M129.1,271.3v-13.7l-13,12.6c1.6-0.3,3.1-0.4,4.7-0.4C124.2,269.7,127,270.3,129.1,271.3"/>
		<path class="st0" d="M121.9,287.6h-5.8v-4.9h4.5c4.6,0,7.5-0.9,7.5-4.1c0-3-3.1-4.1-7.3-4.1c-6.4,0-8,2.9-8,3.9h-5.4l-22.7,21.9
			h27.2c-3-1.6-4.9-4.6-5.1-7.9h5.7c0.5,2.3,2.8,5,7.9,5c4.7,0,8.4-1.5,8.5-5.5C128.9,289.9,127.3,287.6,121.9,287.6z"/>
		<path class="st0" d="M74.9,315.6h-1.4v-10.4h6.3v1.3h-4.9v3.2h4.6v1.2h-4.6V315.6z"/>
		<path class="st0" d="M82.9,306.1c0,0.2-0.1,0.5-0.3,0.6c-0.2,0.2-0.4,0.3-0.6,0.2c-0.5,0-0.9-0.4-0.9-0.9c0,0,0,0,0,0
			c0-0.2,0.1-0.5,0.3-0.6c0.2-0.2,0.4-0.3,0.6-0.3c0.2,0,0.5,0.1,0.6,0.3C82.8,305.7,82.9,305.9,82.9,306.1z M82.7,315.6h-1.3v-7
			h1.3V315.6z"/>
		<path class="st0" d="M86.2,308.7c0,0.2,0,0.4,0,0.6c0,0.2,0,0.4,0,0.6h0c0.1-0.2,0.2-0.4,0.3-0.5c0.3-0.3,0.7-0.6,1.1-0.7
			c0.2-0.1,0.5-0.1,0.7-0.1c0.4,0,0.8,0.1,1.1,0.2c0.3,0.1,0.6,0.3,0.8,0.6c0.2,0.3,0.4,0.6,0.5,0.9c0.1,0.4,0.2,0.7,0.1,1.1v4.3
			h-1.3v-3.9c0-0.3,0-0.5-0.1-0.8c0-0.2-0.1-0.5-0.2-0.7c-0.1-0.2-0.3-0.4-0.5-0.5c-0.2-0.1-0.5-0.2-0.8-0.2c-0.5,0-1,0.2-1.3,0.6
			c-0.4,0.5-0.5,1.1-0.5,1.7v3.7H85v-5.5c0-0.2,0-0.4,0-0.7s0-0.6,0-0.8H86.2z"/>
		<path class="st0" d="M97.5,311.1c0-0.4-0.1-0.9-0.5-1.2c-0.3-0.3-0.8-0.4-1.2-0.4c-0.4,0-0.7,0.1-1.1,0.2
			c-0.3,0.1-0.6,0.3-0.8,0.6l-0.7-0.9c0.4-0.3,0.8-0.6,1.2-0.8c0.5-0.2,1-0.3,1.6-0.3c0.4,0,0.9,0.1,1.3,0.2
			c0.7,0.2,1.2,0.8,1.4,1.4c0.1,0.3,0.2,0.7,0.2,1.1v3c0,0.2,0,0.5,0,0.7c0,0.2,0,0.4,0.1,0.6h-1.2c-0.1-0.3-0.1-0.7-0.1-1h0
			c-0.2,0.4-0.6,0.7-0.9,0.9c-0.4,0.2-0.9,0.3-1.3,0.3c-0.3,0-0.6,0-0.8-0.1c-0.3-0.1-0.6-0.2-0.8-0.3c-0.2-0.2-0.4-0.4-0.6-0.7
			c-0.2-0.3-0.2-0.7-0.2-1c0-0.5,0.1-0.9,0.4-1.3c0.3-0.3,0.7-0.6,1.1-0.7c0.5-0.2,1-0.3,1.5-0.3c0.6-0.1,1.1-0.1,1.7-0.1V311.1z
			 M97.2,312.3c-0.3,0-0.7,0-1,0c-0.3,0-0.7,0.1-1,0.2c-0.3,0.1-0.5,0.2-0.7,0.4c-0.2,0.2-0.3,0.4-0.3,0.7c0,0.2,0,0.4,0.1,0.5
			c0.1,0.1,0.2,0.3,0.3,0.3c0.1,0.1,0.3,0.1,0.4,0.2c0.2,0,0.3,0.1,0.5,0.1c0.5,0,1.1-0.2,1.5-0.6c0.3-0.4,0.5-0.9,0.5-1.5v-0.4
			L97.2,312.3z"/>
		<path class="st0" d="M102.3,308.7c0,0.2,0,0.4,0,0.6c0,0.2,0,0.4,0,0.6h0c0.1-0.2,0.2-0.4,0.3-0.5c0.1-0.2,0.3-0.3,0.5-0.4
			c0.2-0.1,0.4-0.2,0.6-0.3c0.2-0.1,0.5-0.1,0.7-0.1c0.4,0,0.8,0.1,1.1,0.2c0.3,0.1,0.6,0.3,0.8,0.6c0.2,0.3,0.4,0.6,0.5,0.9
			c0.1,0.4,0.2,0.7,0.2,1.1v4.3h-1.3v-3.9c0-0.3,0-0.5-0.1-0.8c0-0.2-0.1-0.5-0.2-0.7c-0.1-0.2-0.3-0.4-0.5-0.5
			c-0.2-0.1-0.5-0.2-0.8-0.2c-0.5,0-1,0.2-1.3,0.6c-0.4,0.5-0.5,1.1-0.5,1.7v3.7h-1.3v-5.5c0-0.2,0-0.4,0-0.7s0-0.6,0-0.8H102.3z"/>
		<path class="st0" d="M114.1,310.4c-0.2-0.2-0.4-0.4-0.6-0.6c-0.3-0.2-0.6-0.2-0.9-0.2c-0.3,0-0.6,0.1-0.9,0.2
			c-0.3,0.1-0.5,0.3-0.7,0.5c-0.2,0.2-0.3,0.5-0.4,0.8c-0.2,0.6-0.2,1.3,0,1.9c0.1,0.3,0.2,0.6,0.4,0.8c0.2,0.2,0.4,0.4,0.7,0.6
			c0.6,0.3,1.3,0.3,1.9,0c0.3-0.1,0.5-0.3,0.7-0.6l0.9,0.8c-0.3,0.3-0.7,0.6-1.1,0.8c-0.5,0.2-1,0.3-1.5,0.3c-0.5,0-1-0.1-1.5-0.3
			c-0.4-0.2-0.8-0.4-1.1-0.7c-0.3-0.3-0.6-0.7-0.8-1.2c-0.2-0.5-0.3-1-0.3-1.5c0-0.5,0.1-1,0.3-1.5c0.3-0.9,1-1.6,1.9-1.9
			c0.5-0.2,0.9-0.3,1.4-0.3c0.5,0,1,0.1,1.4,0.3c0.4,0.2,0.8,0.5,1.1,0.9L114.1,310.4z"/>
		<path class="st0" d="M118,306.1c0,0.2-0.1,0.5-0.3,0.6c-0.2,0.2-0.4,0.3-0.6,0.2c-0.5,0-0.9-0.4-0.9-0.9c0,0,0,0,0,0
			c0-0.2,0.1-0.5,0.3-0.6c0.2-0.2,0.4-0.3,0.6-0.3c0.2,0,0.5,0.1,0.6,0.3C117.9,305.7,118,305.9,118,306.1z M117.8,315.6h-1.3v-7
			h1.3V315.6z"/>
		<path class="st0" d="M124.4,311.1c0-0.4-0.1-0.9-0.5-1.2c-0.3-0.3-0.8-0.4-1.2-0.4c-0.4,0-0.7,0.1-1.1,0.2
			c-0.3,0.1-0.6,0.3-0.8,0.6l-0.7-0.9c0.4-0.3,0.8-0.6,1.2-0.8c0.5-0.2,1-0.3,1.6-0.3c0.4,0,0.9,0.1,1.3,0.2
			c0.7,0.2,1.2,0.8,1.4,1.4c0.1,0.3,0.2,0.7,0.2,1.1v3c0,0.2,0,0.5,0,0.7c0,0.2,0,0.4,0.1,0.6h-1.2c-0.1-0.3-0.1-0.7-0.1-1h0
			c-0.2,0.4-0.6,0.7-0.9,0.9c-0.4,0.2-0.9,0.3-1.3,0.3c-0.3,0-0.6,0-0.8-0.1c-0.3-0.1-0.5-0.2-0.8-0.3c-0.2-0.2-0.4-0.4-0.6-0.7
			c-0.2-0.3-0.2-0.7-0.2-1c0-0.5,0.1-0.9,0.4-1.3c0.3-0.3,0.7-0.6,1.1-0.7c0.5-0.2,1-0.3,1.5-0.3c0.6-0.1,1.1-0.1,1.7-0.1
			L124.4,311.1z M124,312.3c-0.3,0-0.7,0-1,0c-0.3,0-0.7,0.1-1,0.2c-0.3,0.1-0.5,0.2-0.7,0.4c-0.2,0.2-0.3,0.4-0.3,0.7
			c0,0.2,0,0.4,0.1,0.5c0.1,0.1,0.2,0.3,0.3,0.3c0.1,0.1,0.3,0.1,0.4,0.2c0.2,0,0.3,0.1,0.5,0.1c0.5,0,1.1-0.2,1.5-0.6
			c0.3-0.4,0.5-0.9,0.5-1.5v-0.4L124,312.3z"/>
		<path class="st0" d="M129.3,315.6h-1.3v-11.1h1.3V315.6z"/>
	</g>
	<g>
		<path d="M330.5,303.2c0-1.3,1.1-2.2,2.3-2.2c1.2,0,2.2,1,2.2,2.2c0,1.2-1,2.2-2.2,2.2c0,0-0.1,0-0.1,0c-1.2,0.1-2.2-0.9-2.3-2.1
			C330.5,303.3,330.5,303.3,330.5,303.2z M334.5,303.2c0-0.9-0.7-1.6-1.6-1.6c0,0,0,0-0.1,0c-0.9,0-1.7,0.7-1.7,1.6c0,0,0,0,0,0
			c0,0.9,0.7,1.6,1.6,1.6c0,0,0,0,0.1,0c0.9,0,1.6-0.6,1.7-1.5C334.5,303.3,334.5,303.2,334.5,303.2z"/>
		<path d="M338.2,301.1l2.5,3.3l0,0v-3.3h0.6v4.3h-0.6l-2.5-3.3l0,0v3.3h-0.6v-4.3H338.2z"/>
		<path d="M351,304.6c-0.4,0.4-0.9,0.9-2.1,0.9c-1.2,0-2.2-0.9-2.2-2.1c0,0,0-0.1,0-0.1c0-1.2,1-2.2,2.2-2.2c0,0,0,0,0,0
			c0.8,0,1.5,0.3,2.1,0.9l-0.5,0.4c-0.4-0.4-1-0.6-1.6-0.6c-0.9,0-1.6,0.7-1.6,1.6c0,0,0,0,0,0.1c0,0.8,0.6,1.6,1.8,1.6
			c0.6,0,1.2-0.2,1.6-0.7L351,304.6z"/>
		<path d="M357.4,305.4h-0.7l-0.6-1.4h-1.9l-0.6,1.4h-0.7l1.9-4.3h0.7L357.4,305.4z M355.1,301.9l-0.7,1.4h1.3L355.1,301.9z"/>
		<path d="M360.4,302.4L360.4,302.4v3h-0.6v-4.3h0.6l1.5,2.7l1.4-2.7h0.6v4.3h-0.6v-3l0,0l-1.4,2.6L360.4,302.4z"/>
		<path d="M369.5,301.1c0.6,0,1.2,0.4,1.2,1c0,0.1,0,0.1,0,0.2c0,0.9-0.6,1.3-1.2,1.3h-1.9v1.8H367v-4.3L369.5,301.1L369.5,301.1z
			 M367.6,301.7v1.2h1.9c0.3,0,0.6-0.2,0.6-0.5c0,0,0-0.1,0-0.1c0-0.3-0.2-0.6-0.6-0.6L367.6,301.7L367.6,301.7z"/>
		<path d="M377.1,303.8c0,0.8-0.3,1.6-1.9,1.6c-1.6,0-1.9-0.9-1.9-1.6v-2.7h0.6v2.7c0,0.6,0.3,1.1,1.3,1.1c1,0,1.3-0.5,1.3-1.1v-2.7
			h0.6V303.8L377.1,303.8z"/>
		<path d="M380,304.2c0.3,0.2,0.7,0.7,1.7,0.7c0.6,0,1.4-0.2,1.4-0.8c0-0.7-0.8-0.7-1.3-0.7h-0.6c-0.6,0-1.3-0.3-1.3-1.1
			c0-0.9,1-1.3,1.8-1.3c0.6,0,1.2,0.2,1.7,0.6l-0.3,0.5c-0.4-0.2-0.7-0.5-1.4-0.5c-0.6,0-1.2,0.2-1.2,0.7c0,0.3,0.3,0.5,0.8,0.5h0.6
			c1,0,1.9,0.3,1.9,1.3c0,0.9-1,1.3-2,1.3c-1.3,0-1.9-0.6-2.1-0.9L380,304.2z"/>
		<path d="M344.9,278.4c-0.4-0.4-0.8-0.6-1.3-0.8c-0.5-0.2-1-0.3-1.6-0.3h-6.5c0,0-0.1,0-0.1,0v-5.9h-5.1v23.4h5.2v-12.4h5.5v12.4
			h5.2v-13.6c0-0.5-0.1-1.1-0.3-1.6C345.6,279.2,345.3,278.8,344.9,278.4z"/>
		<path d="M359.7,289.6h-5.5v-12.4h-5.2v13.6c0,0.5,0.1,1.1,0.3,1.6c0.2,0.5,0.5,0.9,0.8,1.3c0.4,0.4,0.8,0.7,1.3,0.9
			c0.5,0.2,1,0.4,1.6,0.3h11.8v-17.5h-5.2L359.7,289.6L359.7,289.6z"/>
		<path d="M383.2,279.7c-0.2-0.5-0.5-0.9-0.9-1.3c-0.4-0.4-0.8-0.6-1.3-0.8c-0.5-0.2-1-0.3-1.6-0.3h-6.7v-5.8h-5.2v23.4h11.8
			c0.5,0,1.1-0.1,1.6-0.3c0.5-0.2,0.9-0.5,1.3-0.9c0.4-0.4,0.6-0.8,0.9-1.3c0.2-0.5,0.3-1,0.3-1.6v-9.6
			C383.5,280.7,383.4,280.1,383.2,279.7z M372.9,289.6v-7.2h5.5v7.2H372.9z"/>
		<path d="M394.3,260.1v55.3l-37.3,9.9l-37.4-9.9v-55.3H394.3 M395.6,258.8h-77.4v57.6l38.7,10.3l38.7-10.3L395.6,258.8z"/>
	</g>
	<rect x="540.5" y="269.1" width="3.3" height="20.4"/>
	<rect x="548.7" y="275.8" width="3.2" height="13.7"/>
	<path d="M560.9,274v1.8h3.2v2.8h-3.2v10.9h-3.3v-10.8h-2.4v-2.8h2.4v-1.9c0-3.1,2-4.9,4.8-4.9c0.6,0,1.2,0.1,1.7,0.3v2.8
		c-0.4-0.1-0.8-0.2-1.2-0.1c-1-0.1-1.9,0.7-2,1.7C560.9,273.7,560.9,273.9,560.9,274"/>
	<path d="M575.9,281.1c-0.1-1.6-1.1-3-3.4-3c-1.7,0-3.2,1.3-3.3,3H575.9z M579.1,285.6c-0.7,2.4-2.9,4.3-6.2,4.3c-3.7,0-7-2.7-7-7.3
		c0-4.3,3.2-7.2,6.7-7.2c4.2,0,6.7,2.8,6.7,7.1c0,0.3,0,0.7-0.1,1h-10c0.1,2,1.7,3.6,3.7,3.6c1.6,0.1,3-0.9,3.4-2.4L579.1,285.6z"/>
	<polygon points="621.8,275.8 625,285.3 627.7,275.8 631,275.8 626.6,289.5 623.4,289.5 620,279.7 616.7,289.5 613.3,289.5 
		608.9,275.8 612.4,275.8 615.1,285.3 618.4,275.8 	"/>
	<path d="M643.7,282.6c0-2.8-1.8-4.3-3.8-4.3c-2,0-3.8,1.5-3.8,4.3c0,2.8,1.8,4.4,3.8,4.4C641.9,287,643.7,285.5,643.7,282.6
		 M647,282.6c0,4.2-3,7.3-7.1,7.3c-4.1,0-7.1-3.1-7.1-7.3s3-7.3,7.1-7.3C644,275.4,647,278.4,647,282.6"/>
	<path d="M658.9,279c-0.4-0.1-0.7-0.1-1.1-0.1c-2.5,0-3.7,1.5-3.7,4v6.5h-3.3v-13.7h3.2v2.2c0.7-1.5,2.3-2.5,4-2.4
		c0.3,0,0.6,0,0.9,0.1V279z"/>
	<polygon points="669.5,281.6 675.2,289.5 671.2,289.5 667.2,283.9 665.5,285.7 665.5,289.5 662.3,289.5 662.3,269.1 665.5,269.1 
		665.5,281.3 670.8,275.8 675.1,275.8 	"/>
	<path d="M594.7,270.6c-6,0-10.8,4.8-10.8,10.8c0,6,4.8,10.8,10.8,10.8c3.8,0,7.2-1.9,9.2-5.1c-2.1,0.5-4.3-0.2-5.7-1.8
		c-2,2.4-5.5,2.7-7.9,0.7c-2.4-2-2.7-5.5-0.7-7.9c1.1-1.3,2.6-2,4.3-2h5.6v5.6c-0.1,1.6,1.2,3,2.9,3.1c1.6,0.1,3-1.2,3.1-2.9l0,0
		c0-0.1,0-0.3,0-0.5C605.5,275.4,600.7,270.6,594.7,270.6"/>
	<path d="M594,284.6c1.6,0,3-1.3,3-3v-3h-3c-1.6,0-3,1.3-3,3S592.3,284.6,594,284.6L594,284.6"/>
	<rect x="548.7" y="269.1" width="3.2" height="3.2"/>
	<path d="M552.9,308.3c-1.6,0-3-1.3-3-3l0,0c0-1.6,1.3-3,2.9-3c0,0,0.1,0,0.1,0c0.9,0,1.7,0.3,2.3,0.9l-0.8,0.9
		c-0.4-0.4-0.9-0.6-1.5-0.7c-1,0-1.7,0.8-1.7,1.8c0,0,0,0,0,0l0,0c-0.1,0.9,0.7,1.8,1.6,1.8c0,0,0,0,0.1,0c0.6,0,1.1-0.3,1.5-0.7
		l0.8,0.8C554.7,307.9,553.8,308.3,552.9,308.3z"/>
	<path d="M559.6,308.3c-1.6,0-2.5-0.9-2.5-2.6v-3.3h1.3v3.3c0,0.9,0.5,1.4,1.3,1.4s1.3-0.5,1.3-1.4v-3.3h1.3v3.3
		C562.1,307.4,561.1,308.3,559.6,308.3z"/>
	<path d="M564.2,308.2v-5.8h1.3v4.6h2.9v1.2L564.2,308.2z"/>
	<path d="M572,303.6v4.6h-1.3v-4.6h-1.8v-1.2h4.8v1.2H572z"/>
	<path d="M578,308.3c-1.6,0-2.5-0.9-2.5-2.6v-3.3h1.3v3.3c0,0.9,0.5,1.4,1.3,1.4s1.3-0.5,1.3-1.4v-3.3h1.3v3.3
		C580.5,307.4,579.5,308.3,578,308.3z"/>
	<path d="M586.2,308.2l-1.2-1.9h-1v1.9h-1.3v-5.8h2.7c1.4,0,2.2,0.7,2.2,1.9l0,0c0,0.8-0.5,1.5-1.2,1.8l1.4,2.1L586.2,308.2z
		 M586.2,304.4c0-0.5-0.4-0.8-1-0.8h-1.2v1.7h1.3C585.9,305.2,586.2,304.9,586.2,304.4L586.2,304.4z"/>
	<path d="M589.5,308.2v-5.8h4.4v1.1h-3.1v1.2h2.7v1.1h-2.7v1.2h3.1v1.1L589.5,308.2z"/>
	<path d="M601.9,308.3c-1.6,0-3-1.3-3-3l0,0c0-1.6,1.3-3,2.9-3c0,0,0.1,0,0.1,0c0.9,0,1.7,0.3,2.3,0.9l-0.8,0.9
		c-0.4-0.4-0.9-0.6-1.5-0.7c-1,0-1.7,0.8-1.7,1.8c0,0,0,0,0,0l0,0c-0.1,0.9,0.7,1.8,1.6,1.8c0,0,0,0,0.1,0c0.6,0,1.1-0.3,1.5-0.7
		l0.8,0.8C603.7,308,602.8,308.3,601.9,308.3z"/>
	<path d="M608.8,308.3c-1.6,0.1-3-1.2-3.1-2.8c0,0,0-0.1,0-0.1l0,0c0-1.7,1.4-3.1,3.1-3.1c1.7,0,3.1,1.4,3.1,3.1l0,0
		C611.8,307,610.5,308.3,608.8,308.3C608.8,308.3,608.8,308.3,608.8,308.3z M610.5,305.3c0-1-0.7-1.8-1.7-1.8c0,0,0,0,0,0
		c-1,0-1.7,0.8-1.7,1.7c0,0,0,0.1,0,0.1l0,0c0,1,0.7,1.8,1.7,1.8c0,0,0,0,0,0C609.8,307.1,610.5,306.3,610.5,305.3
		C610.5,305.3,610.5,305.3,610.5,305.3z"/>
	<path d="M617.9,308.2l-2.8-3.7v3.7h-1.3v-5.8h1.2l2.7,3.6v-3.6h1.3v5.8L617.9,308.2z"/>
	<path d="M622.5,303.5v1.2h2.8v1.2h-2.8v2.2h-1.3v-5.8h4.4v1.2L622.5,303.5z"/>
	<path d="M627.5,308.2v-5.8h4.4v1.1h-3.1v1.2h2.7v1.1h-2.7v1.2h3.1v1.1L627.5,308.2z"/>
	<path d="M637.4,308.2l-1.2-1.9h-1v1.9h-1.3v-5.8h2.7c1.4,0,2.2,0.7,2.2,1.9l0,0c0,0.8-0.5,1.5-1.2,1.8l1.4,2.1L637.4,308.2z
		 M637.4,304.4c0-0.5-0.4-0.8-1-0.8h-1.3v1.7h1.3C637,305.2,637.4,304.9,637.4,304.4L637.4,304.4z"/>
	<path d="M640.7,308.2v-5.8h4.4v1.1h-3.1v1.2h2.7v1.1h-2.7v1.2h3.1v1.1L640.7,308.2z"/>
	<path d="M651.1,308.2l-2.8-3.7v3.7h-1.2v-5.8h1.2l2.7,3.6v-3.6h1.3v5.8L651.1,308.2z"/>
	<path d="M657.1,308.3c-1.6,0-3-1.3-3-3l0,0c0-1.6,1.3-3,2.9-3c0,0,0.1,0,0.1,0c0.9,0,1.7,0.3,2.3,0.9l-0.8,0.9
		c-0.4-0.4-0.9-0.6-1.5-0.7c-1,0-1.7,0.8-1.7,1.8c0,0,0,0,0,0l0,0c-0.1,0.9,0.7,1.8,1.6,1.8c0,0,0,0,0.1,0c0.6,0,1.1-0.3,1.5-0.7
		l0.8,0.8C658.9,307.9,658,308.3,657.1,308.3z"/>
	<path d="M661.4,308.2v-5.8h4.4v1.1h-3.1v1.2h2.7v1.1h-2.7v1.2h3.1v1.1L661.4,308.2z"/>
	<g>
		<path class="st0" d="M835.4,307.7v0.6h-1.9v4.1h-0.7v-4.1h-1.9v-0.6H835.4z"/>
		<path class="st0" d="M841.3,307.7v0.6h-3.7v1.4h2.9v0.6h-2.9v1.6h3.8v0.6H837v-4.7H841.3z"/>
		<path class="st0" d="M849.3,312.5L849,313l-1.5-0.9l-0.2,0.1l-0.2,0.1c-0.2,0.1-0.4,0.1-0.6,0.1c-0.2,0-0.4,0-0.6,0h-0.3
			c-0.2,0-0.4,0-0.5-0.1c-0.2,0-0.4-0.1-0.6-0.2c-0.2-0.1-0.4-0.2-0.6-0.4c-0.1-0.1-0.1-0.1-0.2-0.2c-0.1-0.1-0.1-0.2-0.2-0.2
			c-0.1-0.2-0.2-0.4-0.3-0.6c-0.1-0.2-0.1-0.4-0.1-0.7c0-0.1,0-0.1,0-0.2c0-0.1,0-0.2,0-0.3c0-0.1,0.1-0.3,0.1-0.4
			c0-0.1,0.1-0.3,0.2-0.4c0.1-0.1,0.1-0.2,0.2-0.3c0.1-0.1,0.1-0.2,0.2-0.2c0.1-0.1,0.2-0.2,0.3-0.3c0.1-0.1,0.3-0.2,0.5-0.2
			c0.2-0.1,0.4-0.1,0.6-0.2c0.3,0,0.5-0.1,0.8-0.1h0.3c0.1,0,0.3,0,0.4,0c0.2,0,0.3,0.1,0.5,0.1c0.3,0.1,0.5,0.2,0.8,0.4
			c0.1,0.1,0.2,0.2,0.3,0.3c0.1,0.1,0.2,0.3,0.3,0.5c0.1,0.1,0.1,0.3,0.2,0.4c0,0.1,0.1,0.2,0.1,0.4c0,0.1,0,0.2,0,0.3
			c0,0.1,0,0.1,0,0.2c0,0.1,0,0.2-0.1,0.3c0,0.1-0.1,0.3-0.1,0.4c-0.1,0.1-0.1,0.3-0.2,0.4c0,0.1-0.1,0.1-0.2,0.2l-0.2,0.2
			L849.3,312.5z M845.5,308.1c-0.1,0-0.3,0-0.4,0.1c-0.2,0-0.4,0.1-0.5,0.2c-0.3,0.1-0.5,0.3-0.7,0.6c-0.1,0.1-0.1,0.3-0.2,0.4
			c0,0.1-0.1,0.3-0.1,0.4c0,0.1,0,0.2,0,0.3s0,0.1,0,0.2c0,0.1,0,0.2,0.1,0.3c0,0.1,0,0.1,0.1,0.2c0,0.1,0.1,0.2,0.1,0.2
			c0.1,0.1,0.1,0.2,0.2,0.3c0.1,0.1,0.2,0.2,0.3,0.3c0.1,0.1,0.2,0.1,0.2,0.1c0.1,0,0.2,0.1,0.3,0.1c0.1,0,0.3,0.1,0.4,0.1
			c0.2,0,0.3,0,0.5,0h0.3c0.1,0,0.3,0,0.4,0c0.2,0,0.3-0.1,0.5-0.1c0.2-0.1,0.3-0.2,0.5-0.3c0.1-0.1,0.1-0.1,0.2-0.2l0.1-0.1
			c0,0,0.1-0.1,0.1-0.2c0-0.1,0.1-0.2,0.1-0.2c0-0.1,0.1-0.2,0.1-0.3c0-0.1,0-0.3,0-0.4c0-0.1,0-0.2,0-0.3c0-0.1,0-0.2-0.1-0.3
			c0-0.1-0.1-0.3-0.2-0.4c-0.1-0.1-0.2-0.3-0.3-0.4c-0.2-0.2-0.5-0.3-0.8-0.4c-0.3-0.1-0.6-0.1-0.9-0.1L845.5,308.1z"/>
		<path class="st0" d="M851.4,310.4v0.2c0,0.1,0,0.2,0,0.3c0,0.2,0.1,0.3,0.2,0.5c0.1,0.1,0.2,0.2,0.3,0.2c0.1,0.1,0.3,0.2,0.5,0.2
			c0.3,0.1,0.5,0.1,0.8,0.1h0.2c0.1,0,0.2,0,0.3,0c0.1,0,0.3-0.1,0.4-0.1c0.1,0,0.3-0.1,0.4-0.2c0.1-0.1,0.1-0.1,0.2-0.2
			c0,0,0.1-0.1,0.1-0.1c0-0.1,0.1-0.2,0.1-0.3c0-0.1,0-0.2,0-0.4v-2.9h0.7v2.8c0,0.2,0,0.3,0,0.4c0,0.1-0.1,0.3-0.1,0.4
			c-0.1,0.2-0.2,0.4-0.4,0.5c-0.2,0.1-0.4,0.3-0.6,0.3c-0.2,0.1-0.4,0.1-0.6,0.2c-0.2,0-0.4,0-0.7,0h-0.3c-0.1,0-0.3,0-0.4,0
			c-0.2,0-0.3-0.1-0.5-0.1c-0.2-0.1-0.4-0.2-0.5-0.3c-0.1-0.1-0.2-0.2-0.3-0.3c-0.1-0.1-0.1-0.2-0.2-0.2c-0.1-0.2-0.1-0.3-0.2-0.5
			c0-0.2,0-0.4,0-0.5v-2.8h0.7V310.4z"/>
		<path class="st0" d="M858.6,307.7v4.7h-0.7v-4.7H858.6z"/>
		<path class="st0" d="M861.7,307.7v4.1h3.1v0.6H861v-4.7H861.7z"/>
		<path class="st0" d="M869.1,307.7l2.4,4.7h-0.8l-0.6-1.2h-2.9l-0.6,1.2h-0.7l2.4-4.7H869.1z M867.5,310.6h2.3l-1-2l-0.1-0.1l0-0.1
			l0-0.1l0-0.1c0,0.1,0,0.1-0.1,0.2c0,0.1-0.1,0.1-0.1,0.3L867.5,310.6z"/>
		<path class="st0" d="M890.6,261.3l-3.7,5h-2.1l1-2.6l0,0c0.3-0.8,0.4-1.6,0.2-2.4H890.6z"/>
		<path class="st0" d="M841.2,293.7c0,0.9,0.2,1.8,0.6,2.6h-4.9c0.4-0.8,0.6-1.6,0.6-2.5v-15.7l-2,4.9l-3,6.7h-1.8l-3-6.7l-1.9-4.8
			v15.5c0,0.9,0.2,1.8,0.6,2.6h-4.9c0.4-0.8,0.6-1.7,0.6-2.6v-22.3c0-0.9-0.2-1.8-0.6-2.6h4.3l3.4,8.6l2.4,6.2l2.5-6.4l3.4-8.4h4.3
			c-0.4,0.8-0.6,1.7-0.6,2.6L841.2,293.7z"/>
		<path class="st0" d="M876,292.5l-0.8,3.9h-12.4c0.4-0.8,0.6-1.7,0.6-2.7v-22.3c0-0.9-0.2-1.8-0.6-2.6h12l0.8,3.9
			c-0.9-0.4-1.8-0.6-2.8-0.6h-5.7v8.6h3.8c0.9,0,1.8-0.2,2.6-0.6v4.5c-0.8-0.4-1.7-0.6-2.6-0.6h-3.8v9h6.1
			C874.2,293.1,875.1,292.9,876,292.5z"/>
		<path class="st0" d="M852.2,268.8h-6.6c0.4,0.8,0.6,1.7,0.6,2.6v22.3c0,0.9-0.2,1.8-0.6,2.6h4.9c-0.4-0.8-0.6-1.7-0.6-2.6v-8.2
			h2.1c6.8,0,7.7-4.2,7.7-8.4C859.6,272.8,858.7,268.8,852.2,268.8z M851.9,282.1h-2v-10h2c3.4,0,4.1,1.8,4.1,5
			C856,279.8,855.7,282.1,851.9,282.1z"/>
		<path class="st0" d="M911.8,293.7c0,0.9,0.2,1.8,0.6,2.6h-4l-5.9-13.7l-1.7-4v15.3c0,0.9,0.2,1.7,0.6,2.5h-4.9
			c0.4-0.8,0.6-1.7,0.6-2.6v-22.3c0-0.9-0.2-1.8-0.6-2.6h4.1l5.9,13.8l1.6,4.2v-15.4c0-0.9-0.2-1.8-0.6-2.6h4.9
			c-0.4,0.8-0.6,1.7-0.6,2.6V293.7z"/>
		<path class="st0" d="M819.5,296.4c-0.6-0.8-1-1.6-1.2-2.6l-5.6-25h-4.2c0.3,0.8,0.4,1.6,0.2,2.4l-5.1,22.8
			c-0.2,0.9-0.6,1.7-1.1,2.4h4.8c-0.2-0.8-0.2-1.7,0-2.6l-0.1,0.3l0.8-3.7h5.9l0.8,3.8c0.1,0.8,0.1,1.5-0.1,2.3
			C814.6,296.4,819.5,296.4,819.5,296.4z M808.6,287l2.3-11.5l2.3,11.5H808.6z"/>
		<path class="st0" d="M885.6,268.6c-4.6,0-6.8,2.6-6.8,7.8v13.3c0,4.5,2.3,6.9,6.7,6.9c4.6,0,6.8-2.5,6.8-7.8v-12.5
			C892.4,271.7,891.2,268.6,885.6,268.6z M882.6,276.7c0-2.2,0.3-4.8,3.1-4.8s3.1,2.1,3.1,3.9v13.4c0,2.7-1,4.1-3.1,4.1
			c-2.7,0-3-2.5-3-3.6L882.6,276.7z"/>
		<path class="st0" d="M797,287.9c0.2,0.6,0.3,1.2,0.3,1.9c0,1.1-0.4,3.5-2.9,3.5h-0.1c-2.6,0-2.9-2.5-2.9-3.6v-13.6
			c0-1.5,0.4-4.1,2.9-4.1h0c2.4,0,2.9,2.4,2.9,3.9c0,0.5-0.1,1-0.2,1.4h4.4c-0.2-0.9-0.4-1.7-0.5-2.6l0,0c-0.5-4-2.7-6.1-6.5-6.1
			c-4.4,0-6.6,2.7-6.6,7.9v13.4c0,4.4,2.3,6.8,6.6,6.8c3.9,0,6.3-2.1,6.6-5.8l0,0c0.1-1,0.2-1.9,0.4-2.9L797,287.9z M797.3,289.8
			v-0.1C797.3,289.7,797.3,289.8,797.3,289.8L797.3,289.8z"/>
		<path class="st0" d="M916.9,270.4c0,0.9-0.7,1.6-1.6,1.7c-0.9,0-1.6-0.7-1.7-1.6c0-0.9,0.7-1.6,1.6-1.7c0,0,0,0,0,0
			C916.1,268.8,916.9,269.5,916.9,270.4C916.9,270.3,916.9,270.4,916.9,270.4z M914,270.4c0,0.7,0.5,1.2,1.2,1.3c0,0,0,0,0,0
			c0.7,0,1.2-0.5,1.2-1.2c0,0,0,0,0,0c0-0.7-0.5-1.2-1.2-1.2C914.6,269.2,914,269.7,914,270.4C914,270.4,914,270.4,914,270.4
			L914,270.4z M915,271.2h-0.4v-1.6c0.2,0,0.4-0.1,0.6,0c0.2,0,0.4,0,0.5,0.1c0.1,0.1,0.2,0.2,0.2,0.3c0,0.2-0.1,0.3-0.3,0.4l0,0
			c0.2,0.1,0.3,0.2,0.3,0.4c0,0.1,0.1,0.3,0.1,0.4h-0.4c-0.1-0.1-0.1-0.2-0.1-0.4c0-0.2-0.1-0.2-0.3-0.2H915L915,271.2z M915,270.3
			h0.2c0.2,0,0.4-0.1,0.4-0.2c0-0.2-0.1-0.2-0.3-0.2c-0.1,0-0.1,0-0.2,0V270.3z"/>
		<path class="st0" d="M824.2,297.4c0.1,0.3,0.2,0.6,0.3,1h-5.3c0.4-0.9,0.6-1.9,0.6-3v-22.3c0-0.9-0.2-1.8-0.6-2.6h1.4
			c0.2,0.6,0.3,1.3,0.3,1.9v22.3c0.1,0.9-0.1,1.9-0.4,2.7H824.2z"/>
		<polygon class="st0" points="829.9,290.7 831.3,290.8 831,291.5 829.2,291.4 826.5,285.5 826.5,283 		"/>
		<polygon class="st0" points="835.8,270.5 831.5,281.3 831,279.9 834.7,270.5 		"/>
		<path class="st0" d="M839.9,298.4h-5.3c0.4-0.9,0.6-1.8,0.6-2.8v-9.7l1.1-2.7v11.7c0,0.9-0.1,1.8-0.4,2.6h3.7
			C839.7,297.7,839.8,298,839.9,298.4z"/>
		<path class="st0" d="M861.9,297.4h11.6l-0.1,1h-12.7c0.4-0.9,0.6-2,0.6-3v-22.3c0-0.9-0.2-1.8-0.6-2.6h1.4
			c0.2,0.6,0.3,1.3,0.3,1.9v22.3C862.4,295.6,862.2,296.5,861.9,297.4z"/>
		<path class="st0" d="M843.3,298.4h5.3c-0.1-0.2-0.2-0.7-0.3-1h-3.7c0.3-0.9,0.5-1.8,0.4-2.7v-22c0-0.7-0.1-1.4-0.3-2.1h-1.4
			c0.4,0.8,0.6,1.7,0.6,2.6v22.3C843.9,296.4,843.7,297.4,843.3,298.4z"/>
		<path class="st0" d="M899.1,297.4c0.1,0.2,0.2,0.7,0.3,1h-5.3c0.4-0.9,0.6-1.9,0.6-3v-22.3c0-0.9-0.2-1.8-0.6-2.6h1.4
			c0.2,0.6,0.3,1.3,0.3,1.9v22.3c0.1,0.9-0.1,1.9-0.4,2.7H899.1z"/>
		<path class="st0" d="M905.9,273.1c0-0.9-0.2-1.8-0.6-2.6h1.4c0.2,0.6,0.3,1.3,0.3,1.9v9.8l-1.1-2.8L905.9,273.1z"/>
		<path class="st0" d="M910.8,298.4h-4l-5.4-12.8V283l6.2,14.4h3C910.6,297.7,910.7,298.1,910.8,298.4z"/>
		<path class="st0" d="M817.3,297.4h-3.5c0.1-0.8,0.1-1.6-0.1-2.4l-0.8-3.8h-4.4l-0.1,0.8h3.7l0.8,3.7c0.1,0.9,0,1.7-0.2,2.6h5
			C817.6,298.1,817.4,297.7,817.3,297.4z M810.7,280.2l-0.5,2.6l0.6,3.3h1L810.7,280.2z"/>
		<path class="st0" d="M793.4,297.6c-4.4,0-6.7-2.9-6.7-7.4v-12.8c0-2.6,0.3-4,0.7-5c-1.3,1.1-1.9,3-1.9,6.3v12.4
			c0,4.5,3.1,7.2,7,7.2c2.3,0,3.4-0.8,3.4-0.8C795,297.6,794.2,297.6,793.4,297.6z"/>
		<path class="st0" d="M884.5,297.6c-4.4,0-6.7-2.9-6.7-7.5v-12.8c0-2.6,0.3-4,0.7-5c-1.3,1.1-1.9,3-1.9,6.3v12.4
			c0,4.5,3.1,7.2,7,7.2c2.3,0,3.4-0.8,3.4-0.8C886.2,297.6,885.4,297.6,884.5,297.6z"/>
		<path class="st0" d="M794.7,292.4c0.4-1.1,0.5-2.1,0.2-2.8l-0.1-0.2h1.4l0,0.1c0.1,0.6,0.1,1.2-0.2,1.8
			C795.8,291.8,795.3,292.2,794.7,292.4z"/>
		<path class="st0" d="M787.8,272.5L787.8,272.5z"/>
		<path class="st0" d="M787.8,272.5L787.8,272.5L787.8,272.5z"/>
		<path class="st0" d="M850.7,287.5v-1h0.2c2.3,0,3.7,0.1,5.7-1C855.6,287.3,853.7,287.5,850.7,287.5L850.7,287.5z"/>
		<path class="st0" d="M872,286.6l-0.2-0.1c-0.8-0.4-1.7-0.6-2.6-0.6h-1.4v-1h2.2c0.6,0,1.3,0.1,1.9,0.3l0.1,0L872,286.6z"/>
		<path class="st0" d="M874.1,274.8l-0.3-0.1c-0.8-0.4-1.8-0.6-2.7-0.6h-3.3v-1h4.1c0.6,0,1.2,0.1,1.8,0.3l0.1,0L874.1,274.8z"/>
		<path class="st0" d="M885.6,292.5c0.8-0.9,0.8-1.8,0.8-3v-12.7c0-1.9,0-3.3-2-3.5c0,0,0.3-0.3,1.1-0.3c1.5,0,2,1.1,2,3.4v12.4
			C887.5,291.2,886.7,292.4,885.6,292.5z"/>
		<path class="st0" d="M885.3,267.7h-2.8l1-2.5c0.6-1.8,0.2-2.6,0.2-2.6l-0.1-0.2h1.3l0,0.1c0.1,0.7,0.1,1.5-0.2,2.1v0l-1,2.3h2.1
			L885.3,267.7z"/>
		<path class="st0" d="M793.5,273.1c0.7-0.4,1.6-0.2,2.1,0.5c0.6,0.9,0.9,2.5,0.2,4.7h3.6v0.1c0,0.1,0.1,0.3,0.1,0.4l0.1,0.3h-5.2
			C795.5,276.6,795.7,273.6,793.5,273.1z"/>
		<path class="st0" d="M853.1,281.2l0.2-0.3c0.7-0.9,0.7-1.5,0.7-2.9c0-2.9-0.2-4.1-3.1-4.1h-0.3v-0.9h0.8c2.6,0,3.5,1,3.5,4.2
			c0,1.7-0.1,2.8-1.6,3.7L853.1,281.2z"/>
		<path class="st0" d="M807.4,272.2c0.1-0.6,0.1-1.1,0-1.7h-1.5c0.3,0.8,0.4,1.6,0.2,2.4l-5.1,22.8c-0.3,1-0.7,1.9-1.3,2.7h5.4
			c-0.1-0.2-0.1-0.7-0.1-1h-3.7c0.5-0.8,0.8-1.6,1-2.5L807.4,272.2z"/>
	</g>
	<g>
		<path class="st0" d="M1074,285.6h-12.9v3.8h9.1c-0.5,5.4-4.9,7.6-9.1,7.6c-5.5,0-10.1-4.5-10.1-10c0-0.1,0-0.1,0-0.2
			c-0.1-5.6,4.3-10.1,9.9-10.2c0.1,0,0.1,0,0.2,0c2.6,0,5,1,6.9,2.8l2.7-2.8c0,0-3.4-3.8-9.7-3.8c-8,0-14.1,6.7-14.1,14
			c0.1,7.8,6.5,14.1,14.3,14.1c7.5,0,13-5.2,13-12.8C1074.3,287.3,1074.2,286.5,1074,285.6L1074,285.6z"/>
		<path class="st0" d="M1084.6,282.9c-4.9-0.1-9,3.9-9,8.8c0,0.1,0,0.1,0,0.2c0,5,4,9.1,9,9.1c5,0,9.1-4,9.1-9
			C1093.6,285.9,1088.9,282.9,1084.6,282.9L1084.6,282.9z M1084.6,286.4c2.6,0,5.1,2.1,5.1,5.5c0,3.3-2.4,5.5-5.1,5.5
			c-2.9,0-5.2-2.3-5.2-5.5S1081.7,286.4,1084.6,286.4L1084.6,286.4z"/>
		<path class="st0" d="M1104.3,282.9c-4.9-0.1-9,3.8-9.1,8.8c0,0.1,0,0.1,0,0.2c0,5,4,9.1,9,9.1c5,0,9.1-4,9.1-9
			C1113.3,285.9,1108.6,282.9,1104.3,282.9z M1104.3,286.4c2.6,0,5.1,2.1,5.1,5.5c0,3.3-2.4,5.5-5.1,5.5c-2.9,0-5.2-2.3-5.2-5.5
			S1101.4,286.4,1104.3,286.4L1104.3,286.4z"/>
		<path class="st0" d="M1123.6,282.9c-4.8,0-8.7,4.2-8.7,9c0,5.4,4.4,9,8.6,9c2.6,0,3.9-1,4.9-2.2v1.8c0,3.1-1.9,5-4.7,5
			c-2,0-3.9-1.3-4.6-3.2l-3.5,1.4c1.2,2.6,3.7,5.3,8.1,5.3c4.8,0,8.5-3,8.5-9.4v-16.2h-3.8v1.5
			C1127.3,283.6,1125.5,282.8,1123.6,282.9L1123.6,282.9z M1124,286.4c2.4,0,4.8,2,4.8,5.5c0,3.5-2.4,5.5-4.9,5.5
			c-2.6,0-5-2.1-5-5.4C1118.9,288.5,1121.4,286.4,1124,286.4z"/>
		<path class="st0" d="M1149.1,282.8c-4.6,0-8.4,3.6-8.4,9c0,5.7,4.3,9,8.9,9c3.8,0,6.2-2.1,7.6-4l-3.1-2.1
			c-0.9,1.6-2.6,2.5-4.4,2.5c-2.5,0-3.7-1.4-4.4-2.7l12.1-5l-0.6-1.5C1155.4,285.2,1152.7,282.8,1149.1,282.8L1149.1,282.8z
			 M1149.2,286.3c1.4-0.1,2.7,0.7,3.3,1.9l-8.1,3.4C1144.2,289,1146.6,286.3,1149.2,286.3L1149.2,286.3z"/>
		<path class="st0" d="M1134.9,300.4h4v-26.6h-4V300.4z"/>
	</g>
	<path d="M134.9,494.3c0-2.2-0.5-2.9-1.7-2.9c-0.7,0-1.4,0.4-2.1,1v13.4c0.5,0.6,1.3,1,2.1,1c1.2,0,1.7-0.8,1.7-3.1L134.9,494.3z
		 M134.9,494.3c0-2.2-0.5-2.9-1.7-2.9c-0.7,0-1.4,0.4-2.1,1v13.4c0.5,0.6,1.3,1,2.1,1c1.2,0,1.7-0.8,1.7-3.1L134.9,494.3z
		 M158.9,482.8c0,0-0.6-4.5-2.6-6.5c-2.5-2.6-5.3-2.6-6.6-2.8c-9.3-0.7-23.1-0.7-23.1-0.7h0c0,0-13.9,0-23.1,0.7
		c-1.3,0.2-4.1,0.2-6.6,2.8c-2,2-2.6,6.5-2.6,6.5c-0.4,3.5-0.6,7.1-0.7,10.7v5c0,3.6,0.2,7.1,0.7,10.7c0,0,0.6,4.5,2.6,6.5
		c2.5,2.6,5.8,2.5,7.3,2.8c5.3,0.5,22.5,0.7,22.5,0.7s13.9,0,23.2-0.7c1.3-0.2,4.1-0.2,6.6-2.8c2-2,2.6-6.5,2.6-6.5
		c0.4-3.5,0.6-7.1,0.7-10.7v-5C159.5,489.9,159.3,486.3,158.9,482.8z M107.9,510.3h-4.4v-25.5h-4.7v-4.2h14v4.2h-4.9V510.3z
		 M119.7,510.3v-2.4c-1.6,1.8-2.9,2.8-4.4,2.8c-1.3,0-2.2-0.6-2.6-1.7c-0.3-0.7-0.5-1.7-0.5-3.3v-17.5h4.2V506
		c0.1,0.6,0.4,0.8,0.9,0.8c0.8,0,1.5-0.7,2.4-2v-16.8h4.2v22.2H119.7z M139.1,494.8v8.9c0,2-0.2,3.5-0.4,4.4
		c-0.5,1.7-1.7,2.5-3.3,2.5c-1.4,0-2.9-0.8-4.2-2.5v2.2h-4v-29.7h4v9.7c1.3-1.6,2.8-2.5,4.2-2.5c1.6,0,2.7,0.9,3.2,2.6
		C139,491.8,139.2,493.3,139.1,494.8L139.1,494.8z M154,503.1c0,0.9,0,1.7-0.1,2.6c-0.1,0.9-0.4,1.7-0.9,2.4
		c-1.1,1.6-2.8,2.4-4.9,2.4c-2.1,0-3.7-0.7-4.9-2.3c-0.9-1.1-1.4-2.8-1.4-5.1v-7.8c0-2.4,0.5-4.2,1.4-5.3c1.1-1.5,2.9-2.4,4.8-2.3
		c1.9-0.1,3.6,0.8,4.7,2.3c0.8,1.1,1.3,2.8,1.3,5.2v4.5h-8v4c0,2,0.6,3.1,1.9,3.1c1,0,1.6-0.5,1.8-1.6c0-0.2,0-1.2,0-2.8h4.2
		L154,503.1z M149.8,494.1c0-2-0.5-2.7-1.9-2.7s-1.9,0.6-1.9,2.6v2.4h3.8V494.1z M133.3,491.5c-0.7,0-1.4,0.4-2.1,1v13.4
		c0.5,0.6,1.3,1,2.1,1c1.2,0,1.7-0.8,1.7-3.1v-9.5C134.9,492.1,134.4,491.5,133.3,491.5z"/>
	<path d="M90,510.3h-4.2v-2.4c-1.6,1.8-2.9,2.8-4.4,2.8c-1.3,0-2.2-0.6-2.6-1.7c-0.3-0.7-0.5-1.7-0.5-3.3v-17.7h4.2v18.2
		c0.1,0.6,0.4,0.8,0.9,0.8c0.8,0,1.5-0.7,2.4-2v-17.1H90L90,510.3z"/>
	<path d="M75.1,495.2c0-2.4-0.5-4.2-1.3-5.3c-1.1-1.5-2.9-2.2-4.7-2.2c-2,0-3.5,0.6-4.7,2.2c-0.8,1.1-1.3,2.9-1.3,5.3v8
		c0,2.4,0.4,4,1.3,5.1c1.1,1.5,2.9,2.3,4.7,2.3c1.9,0,3.6-0.9,4.7-2.3c0.8-1.1,1.2-2.8,1.2-5.1L75.1,495.2z M70.9,503.6
		c0.2,2.2-0.5,3.3-1.8,3.3s-2-1.1-1.8-3.3v-8.9c-0.2-2.2,0.5-3.3,1.8-3.3c1.3,0,2,1,1.8,3.3L70.9,503.6z"/>
	<path d="M58.5,498.1v12.2h-4.4v-12.2c0,0-4.6-14.9-5.5-17.7h4.7l3.1,11.7l3.1-11.7H64L58.5,498.1z"/>
	<polygon class="st0" points="308.2,522 308.2,518 310.8,518 310.8,518.5 308.8,518.5 308.8,519.5 309.9,519.5 309.9,520.1 
		308.8,520.1 308.8,521.4 310.8,521.4 310.8,522 	"/>
	<path class="st0" d="M315.3,522l-0.3-1h-1.6l-0.3,1h-0.6l1.4-4h0.6l1.5,4H315.3z M314.5,519.6c-0.1-0.3-0.3-0.8-0.3-0.9
		c0,0.2-0.2,0.6-0.3,0.9l-0.3,0.9h1.2L314.5,519.6z"/>
	<path class="st0" d="M318.9,522c-0.5,0-1.1-0.2-1.4-0.6l0.4-0.4c0.3,0.3,0.6,0.5,1,0.5c0.6,0,0.8-0.2,0.8-0.6
		c0-0.3-0.2-0.5-0.9-0.7c-0.9-0.3-1.3-0.5-1.3-1.2c0-0.7,0.6-1.1,1.3-1.1c0.5,0,1,0.2,1.3,0.5l-0.4,0.4c-0.2-0.3-0.6-0.4-0.9-0.4
		c-0.5,0-0.7,0.2-0.7,0.5c0,0.3,0.2,0.4,0.9,0.6c0.8,0.2,1.3,0.5,1.3,1.2C320.4,521.5,319.9,522,318.9,522"/>
	<polygon class="st0" points="323.6,518.5 323.6,522 323,522 323,518.5 321.9,518.5 321.9,517.9 324.8,517.9 324.8,518.5 	"/>
	<polygon class="st0" points="331.6,522 331.6,520.2 329.7,520.2 329.7,522 329.1,522 329.1,518 329.7,518 329.7,519.6 331.6,519.6 
		331.6,518 332.2,518 332.2,522 	"/>
	<path class="st0" d="M336.9,522l-0.3-1h-1.6l-0.3,1H334l1.4-4h0.6l1.5,4H336.9z M336,519.6c-0.1-0.3-0.3-0.8-0.3-0.9
		c0,0.2-0.2,0.6-0.3,0.9l-0.3,0.9h1.2L336,519.6z"/>
	<path class="st0" d="M342.3,522v-2.1c0-0.2,0-0.6,0-0.7c0,0.1-0.2,0.4-0.3,0.6l-1,2.3l-1-2.3c-0.1-0.2-0.2-0.5-0.3-0.6
		c0,0.1,0,0.5,0,0.7v2.1h-0.6v-4h0.6l0.9,2.1c0.1,0.2,0.2,0.5,0.3,0.7c0.1-0.2,0.2-0.5,0.3-0.7l0.9-2.1h0.6v4L342.3,522z"/>
	<path class="st0" d="M346.5,520.5h-1.1v1.5h-0.6v-4h1.7c0.7,0,1.3,0.4,1.3,1.3C347.9,520,347.3,520.5,346.5,520.5 M346.6,518.5
		h-1.1v1.4h1.1c0.5,0,0.7-0.3,0.7-0.7c0-0.3-0.2-0.7-0.6-0.7C346.7,518.5,346.6,518.5,346.6,518.5"/>
	<polygon class="st0" points="351.1,518.5 351.1,522 350.5,522 350.5,518.5 349.3,518.5 349.3,517.9 352.3,517.9 352.3,518.5 	"/>
	<path class="st0" d="M355.4,522c-1,0-1.7-0.9-1.7-2.1s0.7-2.1,1.7-2.1c1,0,1.7,0.9,1.7,2.1S356.4,522,355.4,522 M355.4,518.5
		c-0.7,0-1.1,0.6-1.1,1.5s0.4,1.5,1.1,1.5c0.7,0,1.1-0.6,1.1-1.5S356.1,518.5,355.4,518.5"/>
	<path class="st0" d="M361.4,522l-1.6-2.5c-0.1-0.2-0.2-0.4-0.3-0.5c0,0.2,0,0.7,0,0.9v2.1h-0.6v-4h0.6l1.5,2.5
		c0.1,0.2,0.3,0.5,0.3,0.6c0-0.2,0-0.7,0-0.9V518h0.6v4L361.4,522z"/>
	<polygon class="st0" points="363.9,521.2 363.8,522.7 364.2,522.7 364.6,521.2 	"/>
	<path class="st0" d="M371.5,522l-1.6-2.5c-0.1-0.2-0.2-0.4-0.3-0.5c0,0.2,0,0.7,0,0.9v2.1H369v-4h0.6l1.5,2.5
		c0.1,0.2,0.3,0.5,0.3,0.6c0-0.2,0-0.7,0-0.9V518h0.6v4L371.5,522z"/>
	<polygon class="st0" points="374.1,522 374.1,518 376.6,518 376.6,518.5 374.7,518.5 374.7,519.5 375.8,519.5 375.8,520.1 
		374.7,520.1 374.7,521.4 376.7,521.4 376.7,522 	"/>
	<path class="st0" d="M381.8,522h-0.6l-0.6-2.6c0-0.1-0.1-0.4-0.1-0.5c0,0.1-0.1,0.4-0.1,0.5l-0.7,2.6h-0.6l-0.8-4h0.6l0.5,2.5
		c0,0.1,0.1,0.4,0.1,0.5c0-0.1,0.1-0.4,0.1-0.5l0.6-2.5h0.5l0.7,2.6c0,0.1,0.1,0.3,0.1,0.5c0-0.2,0.1-0.4,0.1-0.5l0.5-2.6h0.6
		L381.8,522z"/>
	<path class="st0" d="M388.7,520.4v1.6h-0.6v-1.6l-1.4-2.4h0.7l0.6,1.1c0.1,0.2,0.3,0.7,0.4,0.8c0.1-0.2,0.3-0.5,0.4-0.8l0.6-1.1
		h0.7L388.7,520.4z"/>
	<path class="st0" d="M393.1,522c-1,0-1.7-0.9-1.7-2.1s0.7-2.1,1.7-2.1c1,0,1.7,0.9,1.7,2.1S394.2,522,393.1,522 M393.1,518.5
		c-0.7,0-1.1,0.6-1.1,1.5s0.4,1.5,1.1,1.5c0.7,0,1.1-0.6,1.1-1.5S393.8,518.5,393.1,518.5"/>
	<path class="st0" d="M398.8,520.3l0.8,1.6H399l-0.8-1.6h-0.9v1.6h-0.6v-4h1.8c0.7,0,1.3,0.4,1.3,1.2
		C399.7,519.8,399.4,520.2,398.8,520.3 M398.4,518.5h-1.2v1.3h1.2c0.4,0,0.7-0.2,0.7-0.6C399.1,518.7,398.8,518.5,398.4,518.5"/>
	<path class="st0" d="M404.1,522l-1.1-2.1l-0.7,0.9v1.2h-0.6v-4h0.6v1.4c0,0.2,0,0.6,0,0.7c0.1-0.1,0.3-0.4,0.5-0.6l1.2-1.5h0.7
		l-1.2,1.5l1.4,2.6L404.1,522z"/>
	<path class="st0" d="M290.4,509.2h-6.6v-1.2h1.1c0.9,0,1.1-0.1,1.2-0.8c0.1-1.5,0.1-8.3,0-9.5c0-0.8-0.3-1-1-1h-1.3v-1.2
		c0.3,0,3,0,3.4,0c0.9,0,2.1,0,3,0c3.3,0,5.2,1.1,5.2,3.4c0,1.5-0.8,2.6-2.3,3.1c1.7,0.4,2.8,1.5,2.8,3.1
		C295.9,507.7,294.7,509.2,290.4,509.2 M288.5,501.8h1.3c2.3,0,3.1-0.6,3.1-2.7c0-1.5-0.8-2.5-2.9-2.5h-0.7c-0.6,0-0.7,0.3-0.8,0.8
		C288.5,498.1,288.5,499.9,288.5,501.8 M288.5,502.7c0,2,0,4,0,4.7c0,0.7,0.3,0.8,0.7,0.8h1.1c2.3,0,3-1,3-2.9
		c0-1.8-1.1-2.6-3.5-2.6L288.5,502.7z"/>
	<path class="st0" d="M299.1,508.1h1.1c0.9,0,1.1-0.1,1.1-0.8c0.1-1.5,0.1-8.3,0-9.5c0-0.8-0.3-1-1-1h-1.2v-1.2c0,0,2.2,0.1,3.4,0.1
		c1.2,0,3.1-0.1,3.4-0.1v1.2h-1.2c-0.7,0-1,0.2-1,1c-0.1,1.2-0.1,8,0,9.5c0,0.7,0.3,0.8,1.2,0.8h1.1v1.2c0,0-2.2,0-3.4,0
		c-1.2,0-3.4,0-3.4,0L299.1,508.1z"/>
	<path class="st0" d="M319,496.1c1.1,0.6,1.3,0.4,1.4-0.6h1.2c-0.2,1-0.4,3.4-0.3,5c-0.4,0-0.9,0-1.3,0c-0.4-2.2-1-4.1-4.1-4.1
		c-2.8,0-4,1.9-4,6.1c0,4.9,1.7,6.1,3.9,6.1c2,0,3.6-1,3.6-3.4c0-1.3-0.2-1.8-1.3-1.8h-0.8v-1.1c0,0,1.9,0.1,3,0.1s3-0.1,3-0.1v1.1
		h-0.7c-0.6,0-0.8,0.3-0.8,1c0,1,0,3.6,0.1,5c-0.4,0-0.9,0-1.3,0c-0.1-0.5-0.3-1.4-0.6-2.2c-0.7,1.4-2.4,2.5-4.4,2.5
		c-4,0-6.6-2-6.6-7.2c0-5.1,3-7.2,6.7-7.2C316.8,495.3,317.7,495.4,319,496.1"/>
	<path class="st0" d="M340.6,499.3c0,1.1-0.1,2.2-0.1,3s0,2.1,0.1,3.1h-1v-0.4c0-1.5-0.7-2.1-2.4-2.2h-1c0,1.7,0,3.3,0,4
		c0,0.7,0.3,1.2,1.2,1.2h1.4v1.2c0,0-2.3,0-3.6,0s-3.6,0-3.6,0v-1.2h1.1c0.9,0,1.1-0.5,1.2-1.2c0.1-1.5,0.1-7.9,0-9.1
		c0-0.8-0.3-1-1-1h-1.3v-1.2c0.3,0,3.1,0,3.4,0c0.4,0,2,0,4.7,0c0.8,0,3.2,0,4.1-0.1c-0.1,1.4-0.1,3.5-0.1,5h-1.1
		c0-2.9-0.9-3.6-3.2-3.6h-2.2c-0.6,0-0.9,0.4-0.9,0.9s0,2.3,0,4h0.8c1.7,0,2.6-0.4,2.6-2.1v-0.4H340.6z"/>
	<path class="st0" d="M353.5,496.8h-1.2c-0.7,0-1,0.2-1,1c-0.1,1.2-0.1,8,0,9.5c0,0.6,0.4,0.8,1,0.8h1.7c2.2,0,3.2-0.7,3.3-4.1h1.2
		c-0.1,1.3-0.2,4-0.2,5.3c-0.9-0.1-2.8-0.1-3.7-0.1H350c-0.8,0-2.8,0-3.3,0v-1.2h1.1c0.9,0,1.1-0.1,1.1-0.8c0.1-1.5,0.1-8.3,0-9.5
		c0-0.8-0.3-1-1-1h-1.2v-1.2c0,0,2.2,0.1,3.4,0.1c1.2,0,3-0.1,3.4-0.1L353.5,496.8z"/>
	<path class="st0" d="M360.7,502.4c0-4.6,2.8-7.2,6.6-7.2c4.4,0,6.6,2.6,6.6,7.1c0,4.6-2.8,7.2-6.6,7.2
		C363,509.6,360.7,507,360.7,502.4 M371.3,502.4c0-4.4-1.2-6.1-4-6.1c-2.7,0-3.9,2-3.9,6.1c0,4.3,1,6.1,3.9,6.1
		C370.2,508.5,371.3,506.5,371.3,502.4"/>
	<path class="st0" d="M388.2,509.4c-0.6-2.3-2-7.1-2.8-9.9c-0.9,2.8-2.4,7.6-3,9.9h-2c-0.7-2.7-2.4-8.5-3.2-11.2
		c-0.3-0.9-0.6-1.3-1.5-1.3H375v-1.2c0,0,2,0.1,3.2,0.1s2.9-0.1,3.2-0.1v1.2h-0.7c-0.9,0-1.1,0.4-0.9,1.3c0.5,2.1,1.7,6.3,2.4,8.7
		c0.8-2.4,2-6.7,2.5-8.8c0.2-0.9,0.1-1.3-0.9-1.3h-0.4v-1.2c0,0,1.8,0.1,2.8,0.1s2.5-0.1,2.8-0.1v1.2h-0.6c-0.8,0-1,0.4-0.8,1.2
		c0.6,2.1,1.7,6.4,2.5,8.8c0.7-2.4,1.9-6.5,2.3-8.5c0.2-1,0-1.5-1-1.5h-0.4v-1.2c0,0,1.7,0.1,2.6,0.1c0.9,0,2.2-0.1,2.5-0.1v1.2
		h-0.7c-0.9,0-1.3,0.4-1.7,1.6c-0.8,2.6-2.6,8.3-3.3,11L388.2,509.4z"/>
	<path class="st0" d="M406.8,499.3h1.1c0,1.1-0.1,1.6-0.1,3s0,2.1,0.1,3.2h-1.1v-0.2c0-1.7-0.7-2.4-2.6-2.4h-0.9
		c0,1.9,0,3.7,0.1,4.3c0,0.7,0.5,1,1,1h2.8c2.5,0,3.2-1.2,3.2-4h1.2c-0.1,1.5-0.2,3.6-0.2,5.3c-0.9-0.1-2.9-0.1-3.7-0.1H402
		c-0.9,0-3.3,0-3.3,0v-1.2h1.1c0.9,0,1.1-0.5,1.2-1.2c0.1-1.1,0.1-7.9,0-9.1c-0.1-0.8-0.3-1-1-1h-1.2v-1.2c0.3,0,3.1,0,3.4,0
		s2.5,0,5.3,0c0.8,0,3.2,0,4.1-0.1c-0.1,1.4-0.1,3.5-0.1,4.9h-1.1c0-2.9-0.7-3.6-3.1-3.6h-3c-0.7,0-0.9,0.4-0.9,0.9
		c0,0.6-0.1,2.2-0.1,4h1c1.7,0,2.5-0.5,2.5-2.3L406.8,499.3z"/>
	<path class="st0" d="M428.2,507c0,0.8-0.3,1.3-0.8,1.3c-0.7,0-1.1-0.4-1.4-2.8c-0.2-1.4-1-2.3-2.5-2.6c1.8-0.2,3.2-1.6,3.2-3.5
		c0-2.4-1.9-3.6-5.2-3.6c-0.8,0-2.4,0-3.3,0c-0.4,0-3.1,0-3.4,0v1.2h1.3c0.7,0,1,0.2,1,1c0.1,1.2,0.1,8,0,9.1c0,0.9-0.5,1.2-1.3,1.2
		h-0.9v1.2c0,0,2.1,0,3.4,0c1,0,3.4,0,3.4,0v-1.2h-0.9c-0.7,0-1.1-0.3-1.1-1.2c0-0.5-0.1-2.1-0.1-3.8h1.4c1.3,0,2.6,0.4,2.7,2.6
		c0.1,2.5,1.1,4.2,3.7,4.1c1.3-0.1,2-1,2-2.6C428.9,507.1,428.5,507.1,428.2,507 M420.9,502.2h-1.6c0-2,0-4,0.1-4.7
		c0-0.5,0.2-0.8,0.8-0.8h1c2.1,0,2.9,0.7,2.9,2.7S423.3,502.2,420.9,502.2"/>
	<path class="st0" d="M357.2,459.2c0,0.4-0.3,0.7-0.7,0.7c-0.4,0-0.7-0.3-0.7-0.7c0-0.4,0.3-0.7,0.7-0.7
		C356.9,458.4,357.2,458.8,357.2,459.2L357.2,459.2"/>
	<path class="st0" d="M354.4,459.5c0.2,0.3,0.1,0.8-0.3,1c-0.3,0.2-0.8,0.1-1-0.3c-0.2-0.3-0.1-0.8,0.3-1
		C353.7,459.1,354.2,459.2,354.4,459.5C354.4,459.5,354.4,459.5,354.4,459.5"/>
	<path class="st0" d="M352.1,461.3c0.3,0.2,0.5,0.6,0.3,1c-0.2,0.3-0.6,0.5-1,0.3c-0.3-0.2-0.5-0.6-0.3-1
		C351.3,461.2,351.7,461.1,352.1,461.3C352.1,461.3,352.1,461.3,352.1,461.3"/>
	<path class="st0" d="M351,463.9c0.4,0,0.7,0.3,0.7,0.7s-0.3,0.7-0.7,0.7s-0.7-0.3-0.7-0.7S350.6,463.9,351,463.9L351,463.9"/>
	<path class="st0" d="M351.4,466.8c0.3-0.2,0.8-0.1,1,0.3c0.2,0.3,0.1,0.8-0.3,1c-0.3,0.2-0.8,0.1-1-0.3
		C350.9,467.4,351,467,351.4,466.8C351.4,466.8,351.4,466.8,351.4,466.8"/>
	<path class="st0" d="M353.1,469.1c0.2-0.3,0.6-0.5,1-0.3c0.3,0.2,0.5,0.6,0.3,1c-0.2,0.3-0.6,0.5-1,0.3
		C353,469.8,352.9,469.4,353.1,469.1C353.1,469.1,353.1,469.1,353.1,469.1"/>
	<path class="st0" d="M355.8,470.1c0-0.4,0.3-0.7,0.7-0.7s0.7,0.3,0.7,0.7c0,0.4-0.3,0.7-0.7,0.7S355.8,470.5,355.8,470.1
		L355.8,470.1"/>
	<path class="st0" d="M358.6,469.8c-0.2-0.3-0.1-0.8,0.3-1c0.3-0.2,0.8-0.1,1,0.3c0.2,0.3,0.1,0.8-0.3,1
		C359.2,470.2,358.8,470.1,358.6,469.8C358.6,469.8,358.6,469.8,358.6,469.8"/>
	<path class="st0" d="M360.9,468c-0.3-0.2-0.5-0.6-0.3-1s0.6-0.5,1-0.3c0.3,0.2,0.5,0.6,0.3,1C361.7,468.1,361.2,468.2,360.9,468
		C360.9,468,360.9,468,360.9,468"/>
	<path class="st0" d="M362,465.4c-0.4,0-0.7-0.3-0.7-0.7s0.3-0.7,0.7-0.7s0.7,0.3,0.7,0.7S362.4,465.4,362,465.4L362,465.4"/>
	<path class="st0" d="M361.6,462.5c-0.3,0.2-0.8,0.1-1-0.3c-0.2-0.3-0.1-0.8,0.3-1c0.3-0.2,0.8-0.1,1,0.3c0,0,0,0,0,0
		C362.1,461.9,361.9,462.3,361.6,462.5C361.6,462.5,361.6,462.5,361.6,462.5"/>
	<path class="st0" d="M359.8,460.3c-0.2,0.3-0.6,0.5-1,0.3c-0.3-0.2-0.5-0.6-0.3-1c0.2-0.3,0.6-0.5,1-0.3
		C359.9,459.5,360,459.9,359.8,460.3C359.8,460.3,359.8,460.3,359.8,460.3"/>
	<path class="st0" d="M358.6,450.4c-0.1-0.4-0.5-1-1.1-1.7c-0.6-0.6-0.9-0.8-1-0.8c0,0-0.4,0.1-1,0.8c-0.6,0.7-1,1.3-1.1,1.7
		c-0.1,0.4,0.2,2.8,1,4.9c0.3-0.4,0.7-0.8,1-0.8c0.4,0,0.7,0.4,1,0.8C358.4,453.2,358.7,450.8,358.6,450.4"/>
	<path class="st0" d="M349.8,451.9c-0.3-0.3-1-0.5-1.9-0.7c-0.9-0.2-1.2-0.1-1.2-0.1c0,0-0.2,0.3-0.3,1.2c-0.1,0.9-0.1,1.6,0.1,2
		c0.2,0.4,1.8,2.1,3.7,3.3c0-0.5,0.1-1,0.4-1.3s0.9-0.1,1.3,0C351.3,454.3,350.1,452.2,349.8,451.9"/>
	<path class="st0" d="M366.5,454.4c0.2-0.4,0.2-1.1,0.1-2c-0.1-0.9-0.3-1.2-0.3-1.2c0,0-0.4-0.1-1.2,0c-0.9,0.2-1.6,0.4-1.9,0.7
		s-1.5,2.4-2,4.5c0.5-0.1,1-0.3,1.3,0c0.3,0.2,0.3,0.8,0.4,1.3C364.7,456.5,366.4,454.8,366.5,454.4"/>
	<path class="st0" d="M343.6,458.3c-0.4,0-1.1,0.1-1.9,0.5c-0.8,0.4-1,0.7-1,0.7c0,0,0,0.4,0.4,1.2c0.4,0.8,0.9,1.4,1.2,1.6
		s2.7,0.7,4.9,0.5c-0.3-0.4-0.6-0.9-0.5-1.2c0.1-0.4,0.7-0.6,1.1-0.7C346.2,459.3,344,458.3,343.6,458.3"/>
	<path class="st0" d="M342.3,467.1c-0.4,0.2-0.8,0.7-1.2,1.6c-0.4,0.8-0.4,1.1-0.4,1.2c0,0,0.3,0.3,1,0.7c0.8,0.4,1.5,0.6,1.9,0.5
		s2.6-1.1,4.3-2.5c-0.4-0.2-1-0.4-1.1-0.7c-0.1-0.4,0.2-0.8,0.5-1.2C345.1,466.4,342.7,466.9,342.3,467.1"/>
	<path class="st0" d="M346.5,474.9c-0.2,0.4-0.2,1.1-0.1,2c0.1,0.9,0.3,1.2,0.3,1.2c0,0,0.4,0.1,1.2,0c0.9-0.2,1.6-0.4,1.9-0.7
		s1.5-2.4,2-4.5c-0.5,0.1-1,0.3-1.3,0c-0.3-0.2-0.3-0.8-0.4-1.3C348.3,472.8,346.6,474.6,346.5,474.9"/>
	<path class="st0" d="M354.4,478.9c0.1,0.4,0.5,1,1.1,1.7c0.6,0.6,0.9,0.8,1,0.8c0,0,0.4-0.1,1-0.8c0.6-0.7,1-1.3,1.1-1.7
		c0.1-0.4-0.2-2.8-1-4.9c-0.3,0.4-0.7,0.8-1,0.8s-0.7-0.4-1-0.8C354.6,476.1,354.3,478.5,354.4,478.9"/>
	<path class="st0" d="M363.2,477.4c0.3,0.3,1,0.5,1.9,0.7c0.9,0.2,1.2,0.1,1.2,0.1c0,0,0.2-0.3,0.3-1.2c0.1-0.9,0.1-1.6-0.1-2
		c-0.2-0.4-1.8-2.1-3.7-3.3c0,0.5-0.1,1-0.4,1.3s-0.9,0.1-1.3,0C361.7,475,362.9,477.1,363.2,477.4"/>
	<path class="st0" d="M369.4,471c0.4,0,1.1-0.1,1.9-0.5c0.8-0.4,1-0.7,1-0.7c0,0,0-0.4-0.4-1.2c-0.4-0.8-0.9-1.4-1.2-1.6
		c-0.4-0.2-2.7-0.7-4.9-0.5c0.3,0.4,0.6,0.9,0.5,1.2c-0.1,0.4-0.7,0.6-1.1,0.7C366.8,470,369,471,369.4,471"/>
	<path class="st0" d="M370.6,462.2c0.4-0.2,0.8-0.7,1.2-1.6c0.4-0.8,0.4-1.1,0.4-1.2c0,0-0.3-0.3-1-0.7c-0.8-0.4-1.5-0.6-1.9-0.5
		s-2.6,1.1-4.3,2.5c0.4,0.2,1,0.4,1.1,0.7c0.1,0.4-0.2,0.8-0.5,1.2C367.9,462.9,370.3,462.4,370.6,462.2"/>
	<path class="st0" d="M352.5,449.3c-0.8-0.4-1.1-0.4-1.2-0.4c0,0-0.3,0.3-0.7,1c-0.2,0.3-0.3,0.7-0.4,1c0.1,0.1,0.6,0.3,0.9,0.8
		c0.2,0.4,0.4,0.8,0.6,1.2c0.4,0.9,0.8,2.1,0.9,2.8c0.1-0.3,0.3-0.6,0.6-0.7c0.3-0.1,0.6,0.1,0.9,0.2c-0.2-0.6-0.6-1.8-0.9-2.8
		c-0.1-0.4-0.2-0.9-0.2-1.4c0-0.6,0.2-1.1,0.3-1.2C353.2,449.6,352.8,449.4,352.5,449.3"/>
	<path class="st0" d="M344.2,454.5c-0.9,0.1-1.2,0.3-1.2,0.3c0,0-0.1,0.4,0.1,1.2c0.1,0.4,0.2,0.7,0.3,1.1c0.1,0,0.7-0.1,1.2,0.1
		c0.4,0.2,0.8,0.4,1.2,0.6c0.8,0.5,1.9,1.3,2.4,1.7c-0.1-0.3-0.1-0.7,0.1-0.9c0.2-0.2,0.5-0.3,0.9-0.3c-0.6-0.4-1.6-1.1-2.3-1.8
		c-0.4-0.3-0.7-0.6-1-1c-0.4-0.4-0.5-1-0.5-1.1C345,454.5,344.6,454.5,344.2,454.5"/>
	<path class="st0" d="M340.6,463.7c-0.6,0.6-0.8,0.9-0.8,1c0,0,0.1,0.4,0.8,1c0.3,0.3,0.6,0.5,0.9,0.7c0.1-0.1,0.5-0.5,1.1-0.6
		c0.4-0.1,0.9-0.2,1.4-0.2c1-0.1,2.3-0.1,2.9,0c-0.3-0.2-0.5-0.5-0.5-0.8s0.2-0.5,0.5-0.8c-0.7,0-1.9,0-2.9,0
		c-0.5,0-0.9-0.1-1.4-0.2c-0.6-0.1-1-0.6-1.1-0.6C341.2,463.2,340.9,463.4,340.6,463.7"/>
	<path class="st0" d="M343.1,473.2c-0.2,0.9-0.1,1.2-0.1,1.2c0,0,0.3,0.2,1.2,0.3c0.4,0,0.7,0.1,1.1,0.1c0-0.1,0.1-0.7,0.5-1.1
		c0.3-0.3,0.6-0.7,1-1c0.8-0.6,1.8-1.4,2.3-1.8c-0.4,0-0.7-0.1-0.9-0.3c-0.2-0.2-0.1-0.6-0.1-0.9c-0.5,0.4-1.6,1.2-2.4,1.7
		c-0.4,0.2-0.8,0.4-1.2,0.6c-0.5,0.2-1.1,0.1-1.2,0.1C343.2,472.5,343.1,472.8,343.1,473.2"/>
	<path class="st0" d="M350.6,479.4c0.4,0.8,0.7,1,0.7,1c0,0,0.4,0,1.2-0.4c0.3-0.2,0.6-0.4,0.9-0.6c0-0.1-0.3-0.6-0.3-1.2
		c0-0.5,0.1-0.9,0.2-1.4c0.2-1,0.6-2.2,0.9-2.8c-0.3,0.2-0.6,0.3-0.9,0.2c-0.3-0.1-0.4-0.4-0.6-0.7c-0.2,0.6-0.6,1.9-0.9,2.8
		c-0.2,0.4-0.4,0.8-0.6,1.2c-0.3,0.5-0.8,0.8-0.9,0.8C350.4,478.8,350.5,479.1,350.6,479.4"/>
	<path class="st0" d="M360.5,480.1c0.8,0.4,1.1,0.4,1.2,0.4c0,0,0.3-0.3,0.7-1c0.2-0.3,0.3-0.7,0.4-1c-0.1-0.1-0.6-0.3-0.9-0.8
		c-0.2-0.4-0.4-0.8-0.6-1.2c-0.4-0.9-0.8-2.1-0.9-2.8c-0.1,0.3-0.3,0.6-0.6,0.7s-0.6-0.1-0.9-0.2c0.2,0.6,0.6,1.8,0.9,2.8
		c0.1,0.4,0.2,0.9,0.2,1.4c0,0.6-0.2,1.1-0.3,1.2C359.8,479.7,360.1,479.9,360.5,480.1"/>
	<path class="st0" d="M368.8,474.8c0.9-0.1,1.2-0.3,1.2-0.3c0,0,0.1-0.4-0.1-1.2c-0.1-0.4-0.2-0.7-0.3-1.1c-0.1,0-0.7,0.1-1.2-0.1
		c-0.4-0.2-0.8-0.4-1.2-0.6c-0.8-0.5-1.9-1.3-2.4-1.7c0.1,0.3,0.1,0.7-0.1,0.9c-0.2,0.2-0.5,0.3-0.9,0.3c0.6,0.4,1.6,1.1,2.3,1.8
		c0.4,0.3,0.7,0.6,1,1c0.4,0.4,0.5,1,0.5,1.1C368,474.8,368.4,474.8,368.8,474.8"/>
	<path class="st0" d="M372.4,465.6c0.6-0.6,0.8-0.9,0.8-1c0,0-0.1-0.4-0.8-1c-0.3-0.3-0.6-0.5-0.9-0.7c-0.1,0.1-0.5,0.5-1.1,0.6
		c-0.4,0.1-0.9,0.2-1.4,0.2c-1,0.1-2.3,0.1-2.9,0c0.3,0.2,0.5,0.5,0.5,0.8s-0.2,0.5-0.5,0.8c0.7,0,1.9,0,2.9,0
		c0.5,0,0.9,0.1,1.4,0.2c0.6,0.1,1,0.6,1.1,0.6C371.8,466.1,372.1,465.9,372.4,465.6"/>
	<path class="st0" d="M369.9,456.1c0.2-0.9,0.1-1.2,0.1-1.2c0,0-0.3-0.2-1.2-0.3c-0.4,0-0.7-0.1-1.1-0.1c0,0.1-0.1,0.7-0.5,1.1
		c-0.3,0.3-0.6,0.7-1,1c-0.8,0.6-1.8,1.4-2.3,1.8c0.3,0,0.7,0.1,0.9,0.3c0.2,0.2,0.1,0.6,0.1,0.9c0.5-0.4,1.6-1.2,2.4-1.7
		c0.4-0.2,0.8-0.4,1.2-0.6c0.5-0.2,1.1-0.1,1.2-0.1C369.8,456.8,369.8,456.5,369.9,456.1"/>
	<path class="st0" d="M362.3,449.9c-0.4-0.8-0.7-1-0.7-1c0,0-0.4,0-1.2,0.4c-0.3,0.2-0.6,0.4-0.9,0.6c0,0.1,0.3,0.6,0.3,1.2
		c0,0.5-0.1,0.9-0.2,1.4c-0.2,1-0.6,2.2-0.9,2.8c0.3-0.2,0.6-0.3,0.9-0.2c0.3,0.1,0.4,0.4,0.6,0.7c0.2-0.6,0.6-1.9,0.9-2.8
		c0.2-0.4,0.4-0.8,0.6-1.2c0.3-0.5,0.8-0.8,0.9-0.8C362.6,450.5,362.5,450.2,362.3,449.9"/>
	<path class="st0" d="M357.2,456.7c0,0.4-0.3,0.7-0.7,0.7s-0.7-0.3-0.7-0.7s0.3-0.7,0.7-0.7S357.2,456.3,357.2,456.7
		C357.2,456.7,357.2,456.7,357.2,456.7"/>
	<path class="st0" d="M354.7,456.8c0.1,0.4-0.1,0.8-0.5,0.9c-0.4,0.1-0.8-0.1-0.9-0.5c-0.1-0.4,0.1-0.8,0.5-0.9
		C354.2,456.2,354.6,456.4,354.7,456.8C354.7,456.8,354.7,456.8,354.7,456.8"/>
	<path class="st0" d="M352.4,457.8c0.2,0.3,0.2,0.8-0.2,1c-0.3,0.2-0.8,0.2-1-0.2c-0.2-0.3-0.2-0.8,0.2-1
		C351.7,457.4,352.1,457.4,352.4,457.8"/>
	<path class="st0" d="M350.4,459.4c0.3,0.2,0.4,0.7,0.2,1c-0.2,0.3-0.7,0.4-1,0.2c-0.3-0.2-0.4-0.7-0.2-1
		C349.7,459.2,350.1,459.1,350.4,459.4"/>
	<path class="st0" d="M349.1,461.5c0.4,0.1,0.6,0.5,0.5,0.9c-0.1,0.4-0.5,0.6-0.9,0.5c-0.4-0.1-0.6-0.5-0.5-0.9
		C348.3,461.6,348.7,461.4,349.1,461.5C349.1,461.5,349.1,461.5,349.1,461.5"/>
	<path class="st0" d="M348.5,463.9c0.4,0,0.7,0.3,0.7,0.7s-0.3,0.7-0.7,0.7s-0.7-0.3-0.7-0.7S348.1,463.9,348.5,463.9L348.5,463.9"
		/>
	<path class="st0" d="M348.7,466.4c0.4-0.1,0.8,0.1,0.9,0.5c0.1,0.4-0.1,0.8-0.5,0.9c-0.4,0.1-0.8-0.1-0.9-0.5
		C348.1,467,348.3,466.6,348.7,466.4C348.7,466.4,348.7,466.4,348.7,466.4"/>
	<path class="st0" d="M349.6,468.8c0.3-0.2,0.8-0.2,1,0.2c0.2,0.3,0.2,0.8-0.2,1c-0.3,0.2-0.8,0.2-1-0.2
		C349.2,469.5,349.3,469,349.6,468.8"/>
	<path class="st0" d="M351.2,470.7c0.2-0.3,0.7-0.4,1-0.2c0.3,0.2,0.4,0.7,0.2,1c-0.2,0.3-0.7,0.4-1,0.2
		C351,471.5,351,471,351.2,470.7"/>
	<path class="st0" d="M353.3,472c0.1-0.4,0.5-0.6,0.9-0.5c0.4,0.1,0.6,0.5,0.5,0.9c-0.1,0.4-0.5,0.6-0.9,0.5
		C353.4,472.8,353.2,472.4,353.3,472C353.3,472,353.3,472,353.3,472"/>
	<path class="st0" d="M355.8,472.7c0-0.4,0.3-0.7,0.7-0.7s0.7,0.3,0.7,0.7s-0.3,0.7-0.7,0.7S355.8,473,355.8,472.7L355.8,472.7"/>
	<path class="st0" d="M358.3,472.5c-0.1-0.4,0.1-0.8,0.5-0.9c0.4-0.1,0.8,0.1,0.9,0.5c0.1,0.4-0.1,0.8-0.5,0.9
		C358.8,473.1,358.4,472.9,358.3,472.5C358.3,472.5,358.3,472.5,358.3,472.5"/>
	<path class="st0" d="M360.6,471.5c-0.2-0.3-0.2-0.8,0.2-1c0.3-0.2,0.8-0.2,1,0.2c0.2,0.3,0.2,0.8-0.2,1
		C361.3,471.9,360.8,471.9,360.6,471.5"/>
	<path class="st0" d="M362.5,469.9c-0.3-0.2-0.4-0.7-0.2-1s0.7-0.4,1-0.2c0.3,0.2,0.4,0.7,0.2,1
		C363.3,470.1,362.9,470.2,362.5,469.9"/>
	<path class="st0" d="M363.9,467.8c-0.4-0.1-0.6-0.5-0.5-0.9s0.5-0.6,0.9-0.5c0.4,0.1,0.6,0.5,0.5,0.9
		C364.7,467.7,364.2,467.9,363.9,467.8C363.9,467.8,363.9,467.8,363.9,467.8"/>
	<path class="st0" d="M364.5,465.4c-0.4,0-0.7-0.3-0.7-0.7s0.3-0.7,0.7-0.7c0.4,0,0.7,0.3,0.7,0.7S364.9,465.4,364.5,465.4
		L364.5,465.4"/>
	<path class="st0" d="M364.3,462.9c-0.4,0.1-0.8-0.1-0.9-0.5s0.1-0.8,0.5-0.9c0.4-0.1,0.8,0.1,0.9,0.5
		C364.9,462.3,364.7,462.7,364.3,462.9C364.3,462.9,364.3,462.9,364.3,462.9"/>
	<path class="st0" d="M363.4,460.5c-0.3,0.2-0.8,0.2-1-0.2c-0.2-0.3-0.2-0.8,0.2-1c0.3-0.2,0.8-0.2,1,0.2
		C363.8,459.8,363.7,460.3,363.4,460.5"/>
	<path class="st0" d="M361.8,458.6c-0.2,0.3-0.7,0.4-1,0.2c-0.3-0.2-0.4-0.7-0.2-1c0.2-0.3,0.7-0.4,1-0.2
		C361.9,457.8,362,458.3,361.8,458.6"/>
	<path class="st0" d="M359.6,457.3c-0.1,0.4-0.5,0.6-0.9,0.5c-0.4-0.1-0.6-0.5-0.5-0.9c0.1-0.4,0.5-0.6,0.9-0.5
		C359.6,456.5,359.8,456.9,359.6,457.3C359.6,457.3,359.6,457.3,359.6,457.3"/>
	<path class="st0" d="M585.4,510.4c-0.1,0-0.2,0.1-0.3,0.2c-0.2,0.3-0.3,0.7-0.3,1v1.4h1.3v0.8h-1.3v3.3h1v0.8h-2.7v-0.8h0.8v-3.3
		H583v-0.8h0.9v-1.2c-0.1-0.6,0.1-1.3,0.6-1.8c0.3-0.3,0.8-0.5,1.2-0.5c0.6,0,1,0.3,1,0.7c0,0.3-0.2,0.6-0.5,0.6c0,0,0,0-0.1,0
		C585.7,510.9,585.5,510.7,585.4,510.4z"/>
	<path class="st0" d="M590.7,513.7c0,0.4-0.3,0.6-0.6,0.7c-0.3,0-0.5-0.2-0.7-0.4c-0.5,0.2-0.8,0.6-1,1v2.2h0.9v0.8h-2.6v-0.8h0.8
		v-3.3h-0.8v-0.8h1.7v1.1c0.4-0.7,1-1.2,1.5-1.2c0.4,0,0.8,0.2,0.8,0.6C590.7,513.6,590.7,513.7,590.7,513.7z"/>
	<path class="st0" d="M591.7,515.9c0.1,0.9,0.9,1.5,1.8,1.4c0.6,0,1.2-0.2,1.8-0.6l-0.1,0.9c-0.6,0.3-1.2,0.5-1.8,0.5
		c-1.4,0.1-2.6-0.9-2.7-2.3c0-0.1,0-0.2,0-0.3c-0.1-1.3,1-2.5,2.3-2.6c0,0,0.1,0,0.1,0c1.2-0.1,2.3,0.9,2.3,2.1c0,0.1,0,0.2,0,0.3
		c0,0.2,0,0.4,0,0.6L591.7,515.9z M591.7,515.1h2.8c0-0.7-0.5-1.3-1.2-1.3c0,0-0.1,0-0.1,0C592.4,513.8,591.8,514.4,591.7,515.1z"/>
	<path class="st0" d="M597,515.9c0.1,0.9,0.9,1.5,1.8,1.4c0.6,0,1.2-0.2,1.8-0.6l-0.1,0.9c-0.6,0.3-1.2,0.5-1.8,0.5
		c-1.4,0.1-2.6-0.9-2.7-2.3c0-0.1,0-0.2,0-0.3c-0.1-1.3,1-2.5,2.3-2.6c0,0,0.1,0,0.1,0c1.2-0.1,2.3,0.9,2.3,2.1c0,0.1,0,0.2,0,0.3
		c0,0.2,0,0.4,0,0.6L597,515.9z M597,515.1h2.8c0-0.7-0.5-1.3-1.2-1.3c0,0-0.1,0-0.1,0C597.6,513.8,597,514.4,597,515.1z"/>
	<path class="st0" d="M604.7,517.5c-0.1-0.2-0.2-0.5-0.1-0.7v-2.8h-0.9v-0.8h0.9v-1.1l1-0.4v1.5h1.5v0.8h-1.5v2.7
		c0,0.1,0,0.3,0.1,0.4c0.1,0.2,0.3,0.3,0.6,0.2c0.3,0,0.6-0.1,0.9-0.3l-0.1,0.9c-0.3,0.2-0.7,0.3-1.1,0.3
		C605.4,518.2,604.9,517.9,604.7,517.5z"/>
	<path class="st0" d="M607.2,515.6c0-1.4,1.1-2.6,2.6-2.6c1.4,0,2.6,1.1,2.6,2.6c0,1.4-1.1,2.6-2.6,2.6c0,0,0,0,0,0
		c-1.4,0-2.5-1-2.6-2.4C607.2,515.7,607.2,515.6,607.2,515.6z M611.3,515.6c-0.1-0.9-0.8-1.5-1.7-1.4c-0.9,0.1-1.5,0.8-1.4,1.7
		c0.1,0.8,0.8,1.4,1.6,1.4c0.9,0,1.6-0.7,1.6-1.6C611.3,515.6,611.3,515.6,611.3,515.6L611.3,515.6z"/>
	<path class="st0" d="M615,520.2c-0.2-0.2-0.3-0.5-0.3-0.7c0-0.4,0.3-0.7,0.7-0.8c0,0,0,0,0,0c0.4,0,0.7,0.3,0.7,0.7c0,0,0,0,0,0
		c0,0.1,0,0.2-0.1,0.3c0.3,0.1,0.6,0.2,0.9,0.2c0.5,0,0.9-0.1,1.3-0.5c0.3-0.4,0.6-0.9,0.6-1.4l0.2-1.1c-0.4,0.7-1.2,1.1-1.9,1.1
		c-1.3,0-2.1-0.9-2.1-2.3c0-1.8,1.3-3.4,3-3.4c0.8,0,1.5,0.5,1.8,1.3l0.4-1.2h1.1l-1.4,5.8c-0.1,0.7-0.4,1.3-0.8,1.8
		c-0.6,0.5-1.3,0.8-2.1,0.7C616.3,520.9,615.6,520.6,615,520.2z M619.6,514.8c0-0.7-0.5-1.3-1.2-1.4c-0.1,0-0.1,0-0.2,0
		c-1.1,0-1.9,1.1-1.9,2.3c-0.1,0.7,0.5,1.3,1.2,1.4c0.1,0,0.1,0,0.2,0C618.7,517.2,619.6,516.1,619.6,514.8L619.6,514.8z"/>
	<path class="st0" d="M622.8,513.5h-1.1l0.2-1h2l-0.4,1.6c0.7-1.1,1.4-1.7,2-1.7c0.4,0,0.8,0.3,0.9,0.7c0,0.4-0.3,0.8-0.7,0.9
		c0,0-0.1,0-0.1,0c-0.4,0-0.7-0.2-0.8-0.6c-0.8,0.5-1.3,1.3-1.5,2.2l-0.6,2.5h-1.1L622.8,513.5z"/>
	<path class="st0" d="M626.2,515.8c0-1.8,1.4-3.3,3.2-3.4c1.3-0.1,2.5,1,2.6,2.3c0,0.1,0,0.1,0,0.2c0,1.8-1.4,3.3-3.2,3.4
		c-1.3,0.1-2.5-1-2.6-2.3C626.2,516,626.2,515.9,626.2,515.8z M630.8,515c0.1-0.8-0.5-1.5-1.3-1.5c-0.1,0-0.1,0-0.2,0
		c-1.1,0-2,1.1-2,2.4c-0.1,0.8,0.5,1.5,1.3,1.5c0.1,0,0.1,0,0.2,0C629.9,517.4,630.8,516.3,630.8,515L630.8,515z"/>
	<path class="st0" d="M633.1,513.5h-1l0.2-1h1.8l0.2,4.3l2-3.7h0.7l0.8,3.8c0.8-1.2,1.4-2.3,1.5-3c-0.3-0.1-0.6-0.4-0.6-0.7
		c0-0.4,0.3-0.8,0.7-0.8c0,0,0,0,0,0c0.5,0,0.9,0.4,0.9,0.9c0,0,0,0.1,0,0.1c0,1-0.8,2.6-2.5,5h-0.7l-0.7-3.5l-2.1,3.4h-0.8
		L633.1,513.5z"/>
	<path class="st0" d="M618.1,478.1c-0.3-0.9-0.8-1.8-1.5-2.4c1.7,0.5,3.6,0.5,5.3,0.1c2.5-0.6,5.1-3.4,4.5-6.2
		c-0.6-2.8-4.2-3.3-7.5-2.2l-0.3,0.1l0.1-0.2c2.4-3.3,1.3-8.3-1-9.7s-6.4,2.4-7.7,5.4c-0.2,0.5-0.3,0.9-0.4,1.4
		c-1.5-2-4.5-3.1-6.3-2.5c-2.2,0.8-2.1,5.1-0.8,7.4c0.6,1.1,1.3,2,2.2,2.9c-0.4,0.1-0.8,0.2-1.2,0.3c-2.9,1-4.4,3.4-3.9,5.6
		c0.4,2.3,4.5,2.5,6.7,2c1.3-0.4,2.5-1.2,3.3-2.4c-0.3,1.7,0.1,3.4,0.9,4.9c1.6,3,4.4,3.9,5.8,2.9
		C617.6,484.7,619.2,481.8,618.1,478.1"/>
	<path class="st0" d="M641.5,476.2c2.1,0.4,1.7,2,2.4,3.9c0.2,0.4,0.2,1.5,0.6,1.7c0.6,0.2,1.7-0.2,2.1-0.3c1.8-0.2,2.7,0,4.5,0.7
		c0.4,0.2,0.8,0.3,1.2,0.5c0.4,0.3,0.1,1,0.2,1.5c0.1,0.4,0.6,0.8,0.5,1.3c-0.6,0.3-1.1,0.4-1.6,0.8c-0.7,0.2-1.4,0.3-2.1,0.4
		c-1.1,0.2-2,0.5-3.4,0.6c0.3,2.2,0.5,3.8,0.6,6.1c0.3,3.1-1.6,8.3-2.7,10.7c-0.8,1.7-2.4,5.1-4.9,4.3c-1.8-0.6-3.3-2.1-2.6-4.2
		l1-2.1c0.9-2.3,1.6-4.8,2-7.2c0.2-0.8,0.2-1.6,0.2-2.4c0-1.1,0-2.2,0-3.3c0-0.3,0-1-0.1-1.2c-0.9-0.2-1.9-0.2-2.9,0l-0.9-0.3
		c-0.3,0-1.2-0.6-0.9-0.9c-0.1-0.1-0.3-0.1-0.4-0.3c-0.1-0.2-0.1-0.5,0-0.7l-0.5-0.3l0.1-0.4c1.3-0.7,2.5-1.4,3.9-2
		c0.3-0.1,1.4-0.2,1.3-0.6c0.3-1.2-0.5-3.9,0.2-5C639.6,476.6,640.8,476.5,641.5,476.2z"/>
	<path class="st0" d="M557.7,481.6c2.1-0.1,5.3,0.3,6.4,1.4c0.5,0.5,1.1,1.4,0.6,2.4c-0.6,0.9-1.7,0.5-2.8,0.7
		c-2.3,0.4-4,0.2-5.4,1.7c-0.2,0.3-0.6,0.6-0.5,1.2c0.3,1.2,1.9,1.8,2.8,2.4c2,1.5,5.2,4.2,5.1,7.5c0,1.4-0.1,2.4-0.8,3.4
		c-0.6,0.6-1.3,1.2-2,1.7c-0.8,0.6-1.5,1.3-2.4,1.9c-1.7,1.1-5.6,2.1-7.9,1.9c-1.3-0.1-4.2-0.3-4.6-1c0.3-0.5,0.3-1.1,0-1.7
		l-0.5-0.1c-0.9-5.2,9.7-3.5,11-7.2c-2.7-1.8-5.9-2.9-7.7-5.7c-0.8-1.3-1-2.9-0.7-4.4c0.2-0.6,0.5-1.1,0.9-1.6
		c0.5-0.8,1.1-1.6,1.9-2.2c1.4-1,3-1.7,4.7-2.1L557.7,481.6z"/>
	<path class="st0" d="M596.2,481.7l1.5,0.1c0.7,0.2,2.2,1,2.5,1.7c0.3,0.6,0.2,1,0.4,1.6c0.3,0.6,0.6,1.3,0.8,2
		c-1.7,2.6-5.2,0.2-6.8,2.5c-1.4,2-1,6.5-1.3,9.6c-0.2,1.5,0.3,3.2-0.1,4.5c-0.3,0.9-2,1.4-3.1,0.9c-0.9-0.6-1.5-3.4-2-4.5
		c-0.5-1.2-0.9-2.4-1-3.7c0-0.6,0-1.2-0.1-1.8c-0.9-5,1.3-9.2,4.2-11.2c1-0.7,2.3-1,3.6-1.4L596.2,481.7z"/>
	<path class="st0" d="M620.5,487.2c1.9,0,2.5,1.6,2.3,3.7c-0.3,3.1,0.6,8.9,3.6,9.7c0.9,0.2,1.9-0.7,2.2-1.1
		c1.8-2.3,0.8-6.1,0.3-9.2c-0.1-0.9-0.1-2.7,0.5-3l0.4-0.1c0.6,0.4,0.7,1.1,1.3,1.5l1.4,0.6l0.7,0.7c0.2,0.1,0.6-0.1,0.8,0.2
		c0.1,0.1,0.6,1.1,0.7,1.2c0.5,1.1,0.5,2,0.7,3.3c0.9,4.8-1.7,8.9-5.3,10.4c-1.1,0.3-2.2,0.6-3.3,0.6c-3.7,0.5-7-2.9-8.4-5.6
		c-0.8-1.4-1-5-0.9-6.5c0.1-1.7,0.5-5.4,1.8-6.2C619.6,487.3,620.1,487.3,620.5,487.2z"/>
	<path class="st0" d="M579,495.2c-0.6,1.9-0.9,2.5-3,3.2c-0.6,0.3-1.2,0.4-1.8,0.4c-2.1-0.3-3.2-3-2.8-5.3c0.1-0.8,0-1.2,0.3-1.9
		c0.2-0.5,1.1-1.7,1.7-1.9l1.5-0.3c2.9-0.1,3.4,0.9,4.1,3.4C579.1,493.6,579.2,494.4,579,495.2 M576.3,483.5
		c-1.2,0.2-2.3,0.5-3.4,0.9c-2.4,1.1-4.3,2.8-5.7,5c-4,7.1-1.3,16.2,2.2,22c0.7,1.2,1.5,3.6,2.4,4.5l0,0.1h0l-0.3-0.6l0.9,0.6
		c0.5,0.2,0.6,0,1,0c1.9,0.2,2.1-0.1,3.6-0.7c0.2-2.2-0.8-4.7-1.5-6.5l-1.8-5c1.9,0.5,3.6-0.2,5.4-0.9c3.2-1.2,5-3.6,5.8-6.8
		C586.6,489.7,582.3,483.2,576.3,483.5z"/>
	<path class="st0" d="M611.4,500.1c-0.6,1.9-3.3,3.7-6.1,2.6c-2.9-1.1-3.2-6.1-0.8-7.9c1-0.7,2.3-1,3.9-1.2
		C611.1,493.8,612.2,497.3,611.4,500.1 M616.2,497.4c0-0.7-0.3-1.4-0.3-2.2c-0.3-0.9-0.8-1.8-1.4-2.6c-0.2-0.4-0.6-0.8-0.7-1.2
		c-1.2-1.6-4-3.4-6.8-3.3l-1.3,0.3c-3.2,1.2-6.3,2.2-8,4.9c-0.6,1-1.1,2-1.3,3.1c-1,4,0.5,6.8,2.2,9c0.5,0.7,1.1,1.3,1.9,1.8
		c0.3,0.1,0.7,0.4,1.1,0.5c1,0.3,2,0.5,3,0.7c0.4,0.1,0.7,0.1,1.1,0c0.6,0,1.3-0.1,1.9-0.2c0.2,0,0.3-0.1,0.5-0.2
		c1-0.3,1.9-0.3,2.7-0.8c0.6-0.4,1.1-0.6,1.7-1c0.6-0.3,1.1-0.7,1.6-1.2c0.6-0.8,0.9-1.6,1.3-2.5c0.5-0.9,0.8-2,1-3
		C616.4,498.8,616.4,498.1,616.2,497.4L616.2,497.4z"/>
	<path class="st0" d="M641.7,512.2h-0.3v0.9c0,0,0,0.1,0,0.1c0,0-0.1,0-0.1,0c0,0-0.1,0-0.1,0c0,0,0-0.1,0-0.1v-0.9h-0.3
		c0,0-0.1,0-0.1,0c0,0,0,0,0-0.1c0,0,0-0.1,0-0.1c0,0,0.1,0,0.1,0h0.8c0,0,0.1,0,0.1,0c0,0,0,0,0,0.1c0,0,0,0.1,0,0.1
		C641.8,512.2,641.7,512.2,641.7,512.2z"/>
	<path class="st0" d="M642.4,513.1l-0.2-0.8v0.9c0,0,0,0.1,0,0.1c0,0-0.1,0-0.2,0c0,0,0,0,0,0c0,0,0-0.1,0-0.1v-1c0,0,0-0.1,0-0.1
		c0,0,0.1,0,0.1,0h0.1c0,0,0.1,0,0.1,0c0,0,0,0,0,0c0,0,0,0.1,0,0.1l0.2,0.7l0.2-0.7c0,0,0-0.1,0-0.1c0,0,0,0,0,0c0,0,0.1,0,0.1,0
		h0.1c0,0,0.1,0,0.1,0c0,0,0,0.1,0,0.1v1c0,0,0,0.1,0,0.1c0,0-0.1,0-0.1,0c0,0-0.1,0-0.1,0c0,0,0-0.1,0-0.1v-0.9l-0.2,0.8l0,0.1
		c0,0,0,0,0,0.1c0,0-0.1,0-0.1,0c0,0-0.1,0-0.1,0c0,0,0,0,0,0C642.4,513.2,642.4,513.2,642.4,513.1L642.4,513.1z"/>
	<polygon class="st0" points="893.9,486.2 893.9,494.2 883.9,494.2 883.9,486.2 879.4,486.2 879.4,508.3 883.9,508.3 883.9,498.4 
		893.9,498.4 893.9,508.3 898.3,508.3 898.3,486.2 	"/>
	<polygon class="st0" points="820.7,494.2 810.6,494.2 810.6,486.2 806.2,486.2 806.2,508.3 810.6,508.3 810.6,498.4 820.7,498.4 
		820.7,508.3 825.1,508.3 825.1,486.2 820.7,486.2 	"/>
	<path class="st0" d="M862,505.8c0.3-0.4,0.5-0.9,0.7-1.2c0.7-1.4,1.3-2.9,1.7-4.4c0.2-0.6,0.6-1,1.1-1.3c1-0.3,1.9-0.8,2.8-1.4
		c0.9-0.7,1.3-2,1.6-3.6c-1,0.1-2,0.3-3,0.7c-0.9,0.5-1.5,1.3-1.7,2.3c-0.2,0.7-0.6,1.4-1.2,1.9c-0.2-0.6-0.3-1.3-0.3-2
		c0-1.4,0.7-3-0.1-4.9c-0.8-1.9-3.6-3.5-3.6-3.5c-0.6,1.7-0.6,3.5-0.1,5.2c0.6,1.8,2.3,2.6,2.8,3.8c0.4,0.9,0.4,1.8,0.2,2.7l0,0
		c-0.3,1.6-1.1,3.1-2.1,4.4l-8.8-8.8c0.2-0.3,0.5-0.7,0.8-1.2l0,0c0.2-0.2,0.3-0.6,0.5-0.9l0.1-0.1l0,0c1-1.9,2.5-5,2.3-7.5
		c-0.4-4.7-4.8-6.8-7.2-6.9c-2.6-0.1-7.2,0.7-8.1,5.9c-0.9,4.8,5,9.7,7.5,12.1c1.4,1.4,6.2,6.1,10.1,10l-0.1,0.1
		c-1.8,1.3-5.7,2.1-8.7,1.6c-5.5-0.9-8.2-5.1-8.6-8.2c-0.4-2.6,0.3-5.3,1.8-7.5l-0.9-1c-1,1.1-3.7,3.7-4.4,7.4
		c-0.7,4.5,1.3,9,5.1,11.4c3.2,2.2,8.5,2.7,12.5,1.1c1.9-0.8,3.6-2,5-3.4c2,1.9,3.4,3.4,3.8,3.6h5.5L862,505.8z M843.8,485.1
		c0-2.2,0.9-4,2.9-4.3c1.9-0.3,4,1.6,5.1,3.5c1.3,2.3,1.1,4.2,0.9,6.2c-0.2,1-0.5,2-1,2.9c-0.2,0.3-0.4,0.7-0.8,1.4l-2.9-2.8
		C846.3,490.2,843.8,487.3,843.8,485.1z"/>
	<polygon class="st0" points="835.1,463.5 833.4,460.9 836.2,459.2 837.8,461.8 839.1,461 835.5,455.1 834.2,455.9 835.5,458.1 
		832.8,459.8 831.4,457.6 830.1,458.5 833.8,464.3 	"/>
	<path class="st0" d="M845.6,457.4l3.2-0.5l0.9,1.4l1.7-0.2l-4.2-6.4l-1.3,0.2l-2.2,7.3l1.6-0.2L845.6,457.4z M846.6,453.6
		L846.6,453.6l1.5,2.3l-2.1,0.3L846.6,453.6z"/>
	<polygon class="st0" points="861.8,458.7 857.8,457.7 859.2,452.3 857.7,451.9 856,458.6 861.5,460 	"/>
	<polygon class="st0" points="865.9,462.1 867.1,463 868.8,460.6 870.9,462.1 871.6,461 869.5,459.6 870.4,458.4 873.8,460.9 
		874.5,459.8 869.9,456.5 	"/>
	<polygon class="st0" points="836.3,534.7 833.5,533 834.9,530.8 833.5,530 829.9,535.9 831.3,536.7 832.9,534.1 835.7,535.8 
		834.1,538.4 835.4,539.2 839,533.3 837.7,532.5 	"/>
	<path class="st0" d="M846.4,535.5l-4.2,6.4l1.6,0.2l0.9-1.4l3.2,0.5l0.4,1.5l1.7,0.2l-2.1-7.3L846.4,535.5z M845.3,539.6l1.4-2.3
		h0.1l0.7,2.6L845.3,539.6z"/>
	<polygon class="st0" points="858.1,540.9 856.9,535.4 855.5,535.7 856.9,542.5 862.4,541.3 862.1,540 	"/>
	<polygon class="st0" points="870.1,532.7 868,534.1 867.2,532.9 870.8,530.6 870.1,529.5 865.2,532.6 869,538.5 870.3,537.6 
		868.7,535.2 870.8,533.8 	"/>
	<path class="st0" d="M1052.7,477.4h-12.9v0.8c3.1,0,3.8,1,3.8,4.4v17.7c0,3.4-0.7,4.4-3.8,4.4v0.8h12.9c10,0,16.1-5.5,16.1-14
		S1062.8,477.4,1052.7,477.4z M1051.9,504.5h-1.6v-26.3h1.7c7.3,0,9.8,6.4,9.8,13.1S1059.2,504.5,1051.9,504.5L1051.9,504.5z"/>
	<path class="st0" d="M1081.6,486.6c-6,0-10.1,4.2-10.1,9.6c0,5,3.5,9.6,10.2,9.6c3.6,0.1,7-1.6,9-4.7l-0.7-0.5
		c-1.3,1.9-3.7,3.9-6.3,3.9c-4,0-5.9-3.4-5.9-9.3h12.9C1090.5,489.8,1086.8,486.6,1081.6,486.6z M1077.8,494.4
		c0.1-3.5,1.1-7.1,3.7-7.1c3.1,0,3.2,5,3.2,7.1H1077.8z"/>
	<path class="st0" d="M1125.3,486.6c-2.4,0-4.2,1.9-5.2,4.2v-4.2l-8.9,1.1v0.8c2.4,0,2.9,1.2,2.9,3.4v9.2c0,2.2-0.5,3.4-2.9,3.4v0.8
		h11.8v-0.8c-2.4,0-2.9-1.2-2.9-3.4v-6.5c0-2.4,1-4.6,2.2-5c-0.1,1.8,1.3,3.3,3.1,3.4c1.8,0.1,3.3-1.3,3.4-3.1s-1.3-3.3-3.1-3.4
		C1125.5,486.6,1125.4,486.6,1125.3,486.6L1125.3,486.6z"/>
	<path class="st0" d="M1106.4,486.6c-2.4,0-4.2,1.9-5.2,4.2v-4.2l-8.9,1.1v0.8c2.4,0,2.9,1.2,2.9,3.4v9.2c0,2.2-0.5,3.4-2.9,3.4v0.8
		h11.8v-0.8c-2.4,0-2.9-1.2-2.9-3.4v-6.5c0-2.4,1-4.6,2.2-5c-0.1,1.8,1.3,3.3,3.1,3.4c1.8,0.1,3.3-1.3,3.4-3.1s-1.3-3.3-3.1-3.4
		C1106.7,486.6,1106.6,486.6,1106.4,486.6L1106.4,486.6z"/>
	<path class="st0" d="M1139,501.1v-14.6l-8.9,1.1v0.8c2.4,0,2.9,1.2,2.9,3.4v9.2c0,2.2-0.5,3.4-2.9,3.4v0.8h11.8v-0.8
		C1139.5,504.6,1139,503.4,1139,501.1z"/>
	<circle class="st0" cx="1135.8" cy="480.6" r="3.5"/>
	<path class="st0" d="M1151,505.1c-4,0-5-2.7-6.4-5.9l-0.7,0l0.2,5.8c2.3,0.5,4.7,0.8,7.1,0.9c5.1,0,8.3-2.1,8.3-6
		c0-7.2-11-5.4-11-10.1c0-1.3,0.9-2.4,3.4-2.4c3.4,0,4.6,2.7,5.9,5.6l0.7,0l-0.2-5.5c-2.2-0.4-4.4-0.7-6.7-0.8
		c-4.9,0-7.6,2.1-7.6,5.7c0,7.2,10.9,5.2,10.9,10.2C1154.9,503.7,1154.1,505.1,1151,505.1z"/>
</g>
</svg>
