<?xml version="1.0" encoding="utf-8"?>
<!-- Generator: Adobe Illustrator 20.0.0, SVG Export Plug-In . SVG Version: 6.00 Build 0)  -->
<svg version="1.1" xmlns="http://www.w3.org/2000/svg" xmlns:xlink="http://www.w3.org/1999/xlink" x="0px" y="0px"
	 viewBox="0 0 209 173" style="enable-background:new 0 0 209 173;" xml:space="preserve">
<style type="text/css">
	.st0{fill:#231F20;}
</style>
<g id="Layer_2">
</g>
<g id="Layer_1">
	<title>Solti-logo</title>
	<g>
		<path class="st0" d="M57.5,72.4H44.7v0.8c3.1,0,3.8,1,3.8,4.4v17.7c0,3.4-0.7,4.4-3.8,4.4v0.8h12.9c10,0,16.1-5.5,16.1-14
			S67.6,72.4,57.5,72.4z M56.7,99.5H55V73.2h1.7c7.3,0,9.8,6.4,9.8,13.1S64,99.5,56.7,99.5L56.7,99.5z"/>
		<path class="st0" d="M86.4,81.6c-6,0-10.1,4.2-10.1,9.6c0,5,3.5,9.6,10.2,9.6c3.6,0.1,7-1.6,9-4.7l-0.7-0.5
			c-1.3,1.9-3.7,3.9-6.3,3.9c-4,0-5.9-3.4-5.9-9.3h12.9C95.3,84.8,91.6,81.6,86.4,81.6z M82.6,89.4c0.1-3.5,1.1-7.1,3.7-7.1
			c3.1,0,3.2,5,3.2,7.1H82.6z"/>
		<path class="st0" d="M130.1,81.6c-2.4,0-4.2,1.9-5.2,4.2v-4.2l-8.9,1.1v0.8c2.4,0,2.9,1.2,2.9,3.4v9.2c0,2.2-0.5,3.4-2.9,3.4v0.8
			h11.8v-0.8c-2.4,0-2.9-1.2-2.9-3.4v-6.5c0-2.4,1-4.6,2.2-5c-0.1,1.8,1.3,3.3,3.1,3.4c1.8,0.1,3.3-1.3,3.4-3.1
			c0.1-1.8-1.3-3.3-3.1-3.4C130.3,81.6,130.2,81.6,130.1,81.6L130.1,81.6z"/>
		<path class="st0" d="M111.2,81.6c-2.4,0-4.2,1.9-5.2,4.2v-4.2l-8.9,1.1v0.8c2.4,0,2.9,1.2,2.9,3.4v9.2c0,2.2-0.5,3.4-2.9,3.4v0.8
			h11.8v-0.8c-2.4,0-2.9-1.2-2.9-3.4v-6.5c0-2.4,1-4.6,2.2-5c-0.1,1.8,1.3,3.3,3.1,3.4c1.8,0.1,3.3-1.3,3.4-3.1
			c0.1-1.8-1.3-3.3-3.1-3.4C111.5,81.6,111.4,81.6,111.2,81.6L111.2,81.6z"/>
		<path class="st0" d="M143.8,96.2V81.6l-8.9,1.1v0.8c2.4,0,2.9,1.2,2.9,3.4v9.2c0,2.2-0.5,3.4-2.9,3.4v0.8h11.8v-0.8
			C144.3,99.6,143.8,98.4,143.8,96.2z"/>
		<circle class="st0" cx="140.6" cy="75.6" r="3.5"/>
		<path class="st0" d="M155.8,100.1c-4,0-5-2.7-6.4-5.9l-0.7,0l0.2,5.8c2.3,0.5,4.7,0.8,7.1,0.9c5.1,0,8.3-2.1,8.3-6
			c0-7.2-11-5.4-11-10.1c0-1.3,0.9-2.4,3.4-2.4c3.4,0,4.6,2.7,5.9,5.6l0.7,0l-0.2-5.5c-2.2-0.4-4.4-0.7-6.7-0.8
			c-4.9,0-7.6,2.1-7.6,5.7c0,7.2,10.9,5.2,10.9,10.2C159.7,98.7,158.9,100.1,155.8,100.1z"/>
	</g>
</g>
</svg>
