<?xml version="1.0" encoding="utf-8"?>
<!-- Generator: Adobe Illustrator 20.0.0, SVG Export Plug-In . SVG Version: 6.00 Build 0)  -->
<svg version="1.1" xmlns="http://www.w3.org/2000/svg" xmlns:xlink="http://www.w3.org/1999/xlink" x="0px" y="0px"
	 viewBox="0 0 209 173" style="enable-background:new 0 0 209 173;" xml:space="preserve">
<style type="text/css">
	.st0{fill:#231F20;}
</style>
<g id="Layer_2">
</g>
<g id="Layer_1">
	<title>Solti-logo</title>
	<g>
		<polygon class="st0" points="146.2,75.3 146.2,83.3 136.1,83.3 136.1,75.3 131.7,75.3 131.7,97.4 136.1,97.4 136.1,87.5 
			146.2,87.5 146.2,97.4 150.5,97.4 150.5,75.3 		"/>
		<polygon class="st0" points="72.9,83.3 62.9,83.3 62.9,75.3 58.5,75.3 58.5,97.4 62.9,97.4 62.9,87.5 72.9,87.5 72.9,97.4 
			77.3,97.4 77.3,75.3 72.9,75.3 		"/>
		<path class="st0" d="M114.2,94.9c0.3-0.4,0.5-0.9,0.7-1.2c0.7-1.4,1.3-2.9,1.7-4.4c0.2-0.6,0.6-1,1.1-1.3c1-0.3,1.9-0.8,2.8-1.4
			c0.9-0.7,1.3-2,1.6-3.6c-1,0.1-2,0.3-3,0.7c-0.9,0.5-1.5,1.3-1.7,2.3c-0.2,0.7-0.6,1.4-1.2,1.9c-0.2-0.6-0.3-1.3-0.3-2
			c0-1.4,0.7-3-0.1-4.9c-0.8-1.9-3.6-3.5-3.6-3.5c-0.6,1.7-0.6,3.5-0.1,5.2c0.6,1.8,2.3,2.6,2.8,3.8c0.4,0.9,0.4,1.8,0.2,2.7l0,0
			c-0.3,1.6-1.1,3.1-2.1,4.4l-8.8-8.8c0.2-0.3,0.5-0.7,0.8-1.2l0,0c0.2-0.2,0.3-0.6,0.5-0.9l0.1-0.1l0,0c1-1.9,2.5-5,2.3-7.5
			c-0.4-4.7-4.8-6.8-7.2-6.9c-2.6-0.1-7.2,0.7-8.1,5.9c-0.9,4.8,5,9.7,7.5,12.1c1.4,1.4,6.2,6.1,10.1,10l-0.1,0.1
			c-1.8,1.3-5.7,2.1-8.7,1.6c-5.5-0.9-8.2-5.1-8.6-8.2c-0.4-2.6,0.3-5.3,1.8-7.5l-0.9-1c-1,1.1-3.7,3.7-4.4,7.4
			c-0.7,4.5,1.3,9,5.1,11.4c3.2,2.2,8.5,2.7,12.5,1.1c1.9-0.8,3.6-2,5-3.4c2,1.9,3.4,3.4,3.8,3.6h5.5L114.2,94.9z M96.1,74.3
			c0-2.2,0.9-4,2.9-4.3c1.9-0.3,4,1.6,5.1,3.5c1.3,2.3,1.1,4.2,0.9,6.2c-0.2,1-0.5,2-1,2.9c-0.2,0.3-0.4,0.7-0.8,1.4l-2.9-2.8
			C98.6,79.3,96.1,76.5,96.1,74.3z"/>
		<polygon class="st0" points="87.3,52.7 85.7,50.1 88.5,48.3 90.1,50.9 91.4,50.1 87.7,44.3 86.4,45.1 87.8,47.3 85,49 83.6,46.8 
			82.3,47.6 86,53.5 		"/>
		<path class="st0" d="M97.8,46.6l3.2-0.5l0.9,1.4l1.7-0.2l-4.2-6.4L98,41l-2.2,7.3l1.6-0.2L97.8,46.6z M98.9,42.7L98.9,42.7
			l1.5,2.3l-2.1,0.3L98.9,42.7z"/>
		<polygon class="st0" points="114,47.8 110.1,46.9 111.4,41.4 109.9,41 108.3,47.8 113.7,49.1 		"/>
		<polygon class="st0" points="118.1,51.3 119.4,52.2 121,49.8 123.1,51.3 123.9,50.2 121.8,48.7 122.6,47.6 126,50 126.8,48.9 
			122.1,45.6 		"/>
		<polygon class="st0" points="88.6,123.8 85.8,122.1 87.1,119.9 85.8,119.1 82.2,125.1 83.5,125.9 85.1,123.2 87.9,124.9 
			86.3,127.6 87.6,128.4 91.2,122.4 89.9,121.6 		"/>
		<path class="st0" d="M98.6,124.6l-4.2,6.4l1.6,0.2l0.9-1.4l3.2,0.5l0.4,1.5l1.7,0.2l-2.1-7.3L98.6,124.6z M97.5,128.8l1.4-2.3H99
			l0.7,2.6L97.5,128.8z"/>
		<polygon class="st0" points="110.4,130.1 109.2,124.6 107.7,124.9 109.2,131.7 114.6,130.5 114.4,129.2 		"/>
		<polygon class="st0" points="122.4,121.9 120.2,123.2 119.5,122.1 123,119.8 122.3,118.7 117.5,121.8 121.2,127.6 122.5,126.8 
			120.9,124.3 123.1,123 		"/>
	</g>
	<path class="st0" d="M1052.7,477.4h-12.9v0.8c3.1,0,3.8,1,3.8,4.4v17.7c0,3.4-0.7,4.4-3.8,4.4v0.8h12.9c10,0,16.1-5.5,16.1-14
		S1062.8,477.4,1052.7,477.4z M1051.9,504.5h-1.6v-26.3h1.7c7.3,0,9.8,6.4,9.8,13.1S1059.2,504.5,1051.9,504.5L1051.9,504.5z"/>
	<path class="st0" d="M1081.6,486.6c-6,0-10.1,4.2-10.1,9.6c0,5,3.5,9.6,10.2,9.6c3.6,0.1,7-1.6,9-4.7l-0.7-0.5
		c-1.3,1.9-3.7,3.9-6.3,3.9c-4,0-5.9-3.4-5.9-9.3h12.9C1090.5,489.8,1086.8,486.6,1081.6,486.6z M1077.8,494.4
		c0.1-3.5,1.1-7.1,3.7-7.1c3.1,0,3.2,5,3.2,7.1H1077.8z"/>
	<path class="st0" d="M1125.3,486.6c-2.4,0-4.2,1.9-5.2,4.2v-4.2l-8.9,1.1v0.8c2.4,0,2.9,1.2,2.9,3.4v9.2c0,2.2-0.5,3.4-2.9,3.4v0.8
		h11.8v-0.8c-2.4,0-2.9-1.2-2.9-3.4v-6.5c0-2.4,1-4.6,2.2-5c-0.1,1.8,1.3,3.3,3.1,3.4c1.8,0.1,3.3-1.3,3.4-3.1s-1.3-3.3-3.1-3.4
		C1125.5,486.6,1125.4,486.6,1125.3,486.6L1125.3,486.6z"/>
	<path class="st0" d="M1106.4,486.6c-2.4,0-4.2,1.9-5.2,4.2v-4.2l-8.9,1.1v0.8c2.4,0,2.9,1.2,2.9,3.4v9.2c0,2.2-0.5,3.4-2.9,3.4v0.8
		h11.8v-0.8c-2.4,0-2.9-1.2-2.9-3.4v-6.5c0-2.4,1-4.6,2.2-5c-0.1,1.8,1.3,3.3,3.1,3.4c1.8,0.1,3.3-1.3,3.4-3.1s-1.3-3.3-3.1-3.4
		C1106.7,486.6,1106.6,486.6,1106.4,486.6L1106.4,486.6z"/>
	<path class="st0" d="M1139,501.1v-14.6l-8.9,1.1v0.8c2.4,0,2.9,1.2,2.9,3.4v9.2c0,2.2-0.5,3.4-2.9,3.4v0.8h11.8v-0.8
		C1139.5,504.6,1139,503.4,1139,501.1z"/>
	<circle class="st0" cx="1135.8" cy="480.6" r="3.5"/>
	<path class="st0" d="M1151,505.1c-4,0-5-2.7-6.4-5.9l-0.7,0l0.2,5.8c2.3,0.5,4.7,0.8,7.1,0.9c5.1,0,8.3-2.1,8.3-6
		c0-7.2-11-5.4-11-10.1c0-1.3,0.9-2.4,3.4-2.4c3.4,0,4.6,2.7,5.9,5.6l0.7,0l-0.2-5.5c-2.2-0.4-4.4-0.7-6.7-0.8
		c-4.9,0-7.6,2.1-7.6,5.7c0,7.2,10.9,5.2,10.9,10.2C1154.9,503.7,1154.1,505.1,1151,505.1z"/>
</g>
</svg>
