<?xml version="1.0" encoding="utf-8"?>
<!-- Generator: Adobe Illustrator 20.0.0, SVG Export Plug-In . SVG Version: 6.00 Build 0)  -->
<svg version="1.1" id="Layer_1" xmlns="http://www.w3.org/2000/svg" xmlns:xlink="http://www.w3.org/1999/xlink" x="0px" y="0px"
	 viewBox="0 0 209 173" style="enable-background:new 0 0 209 173;" xml:space="preserve">
<style type="text/css">
	.st0{fill:#231F20;}
</style>
<title>Solti-logo</title>
<g>
	<path class="st0" d="M76.7,86.1c0.2-0.4,0.5-0.7,0.7-1c1.8-2.8,3.1-6,3.8-9.2c0.4-1.7,0.7-3.5,0.7-5.3c0.1-1,0-2-0.1-3
		c-0.1-0.7-0.2-1.5-0.9-1.9c-0.6,0.1-1,0.5-1.2,1.1c-0.4,1.3-0.7,2.5-1,3.8c-0.3,1.4-0.6,2.9-0.9,4.3c-0.4,2-0.7,4-1.1,6
		c-0.3,1.8-0.6,3.6-0.9,5.4c0,0.2,0,0.4,0.1,0.6c0.4,0.7,0.7,1.3,1.4,1.3c1.5-0.1,3.5-0.2,5-0.3c0.3,0,0.6-0.1,0.8-0.2
		c0-0.2,0-0.3,0-0.5c0.1-2.5,0.9-4.9,2.4-6.9c1-1.3,2.3-2.5,4.1-2.6c0.5,0,1,0,1.5,0.1c1.1,0.3,1.9,1.3,1.8,2.4
		c0,1.8-0.8,3.3-1.8,4.7c-1.2,1.5-2.8,2.5-4.4,3.5c-0.2,0.1-0.3,0.2-0.5,0.3c0,0,0,0,0,0.1c-0.1,1.9,1.3,3.2,3.1,2.7
		c1.4-0.4,2.5-1.3,3.5-2.4c1.2-1.6,2.2-3.3,2.9-5.2c0.3-0.8,0.6-1.6,0.9-2.5c-0.2-0.2-0.4-0.4-0.6-0.6c-1-0.9-1.3-2-1.1-3.3
		c0.1-0.8,0.8-1.4,1.7-1.4c0.8-0.1,1.5,0.4,1.7,1.1c0.1,0.6,0.2,1.2,0.2,1.8c0,0.2,0,0.4,0,0.7c0.6,0.4,1.1,0.7,1.7,1.1
		c1.1,0.6,1.4,1.7,1.4,2.9c-0.1,1.2-0.2,2.3-0.2,3.4c-0.1,1.4-0.2,2.8-0.2,4.3c0,0.3,0.1,0.6,0.2,0.9c0.2,0.4,0.6,0.7,1.1,0.5
		c0,0,0,0,0,0c0.2-0.1,0.4-0.2,0.6-0.3c1-0.8,1.8-1.8,1.9-3.2c0.2-2.4,0.5-4.8,0.7-7.2c0-0.9-0.1-1.8-0.2-2.7c0-0.2,0-0.4-0.1-0.6
		c1.4-0.3,2.6,0.7,2.9,1.9c0.1,0.5,0.1,1,0.1,1.5c0,0.1,0,0.3,0,0.4c0,0.1,0,0.1,0.1,0.1c0,0,0.1,0,0.1,0c0.5-0.8,0.9-1.6,1.4-2.3
		c0.4-0.5,0.8-0.9,1.3-1.3c0.5-0.4,1.2-0.6,1.9-0.4c0.6,0.1,1.2,0.5,1.4,1.1c0.2,0.6,0.3,1.3,0.4,1.9c0,0.2,0.1,0.3,0.1,0.5h0.1
		c0.6-1.1,1.2-2.1,2.2-2.9c0.6-0.5,1.3-0.7,2-0.6c1,0.1,1.8,0.9,1.8,2.1c0.1,1.4,0.1,2.7,0,4.1c-0.1,1.4-0.3,2.8-0.4,4.2
		c0,0.6,0,1.2,0.1,1.7c0.2,0.9,0.8,1.3,1.6,0.8c1.1-0.8,2.1-1.7,2-3.3c-0.1-2.2,0.1-4.3,0.4-6.5c0.1-0.5,0.3-1.1,0.5-1.6
		c0.1-0.3,0.4-0.6,0.6-0.8c0.4-0.3,0.9-0.4,1.4-0.2c0.4,0.2,0.7,0.7,0.6,1.1c-0.1,0.9-0.1,1.8-0.2,2.7c-0.2,1.7-0.4,3.3-0.6,5
		c-0.1,0.7-0.1,1.5-0.1,2.2c0,0.6,0.3,1.1,0.8,1.4c0.2,0.1,0.4,0.1,0.6,0.1c1-0.2,1.9-0.8,2.3-1.7c0.1-0.2,0.2-0.4,0.2-0.6
		c-0.2-1.7-0.1-3.5,0.3-5.1c0.7-2.4,1.8-4.5,4-5.9c1.2-0.8,2.5-1.1,3.8-0.5c1.1,0.5,1.6,1.4,1.5,2.6c-0.2,3.1-2,5.2-4.4,6.9
		c-0.8,0.5-1.6,0.9-2.4,1.4c0,1.2,0.4,2.1,1.4,2.6c0.9,0.5,1.8,0.1,2.6-0.2c1.5-0.7,2.6-1.9,3.4-3.3c1-1.6,1.9-3.4,2.5-5.2
		c0.2-0.4,0.3-0.9,0.5-1.3c-0.4-0.5-0.8-0.9-1.2-1.4c-0.6-0.8-0.7-1.9-0.3-2.8c0.3-0.8,1.1-1.2,1.9-1.1c0.7,0,1.4,0.6,1.4,1.3
		c0.1,0.5,0.1,1,0.1,1.5c-0.1,0.4,0.1,0.8,0.5,1c0.6,0.3,1.1,0.7,1.6,1c0.7,0.5,1.1,1.3,1,2.1c-0.2,2.3-0.3,4.7-0.4,7
		c0,0.5,0,1,0,1.5c0.2,0.9,0.7,1.2,1.5,0.8c0.7-0.3,1.2-0.9,1.6-1.5c0.1-0.2,0.1-0.4,0-0.6c-0.5-1.9-0.4-3.8,0.1-5.7
		c0.4-1.7,1.2-3.3,2.3-4.6c0.6-0.8,1.4-1.4,2.4-1.9c0.8-0.4,1.7-0.5,2.5-0.4c1.4,0.2,2.2,1.2,2.2,2.6c-0.1,2.4-1.2,4.3-3,5.8
		c-1,0.8-2.1,1.6-3.2,2.3c-0.4,0.2-0.6,0.6-0.5,1c0.2,1,0.6,1.8,1.7,2.2c0.7,0.3,1.3,0,1.9-0.1c1.5-0.4,2.6-1.4,3.6-2.6
		c0.9-1.1,1.5-2.4,2-3.8c0.1-0.2,0.2-0.3,0.2-0.6c0.6,0.4,0.9,1.2,0.7,1.9c-0.8,2.2-1.8,4.3-3.8,5.8c-2,1.5-4.3,1.9-6.6,1
		c-0.6-0.2-1-0.7-1.5-1.1c-0.6,0.6-1.1,1.2-1.8,1.8c-0.8,0.6-1.7,0.9-2.7,0.8c-1.3-0.1-2.1-0.7-2.5-2.3c-0.3-1.1-0.1-2.2-0.1-3.3
		c0.1-1.7,0.3-3.3,0.5-5c0-0.4,0-0.9-0.2-1.3c-0.1-0.3-0.3-0.4-0.6-0.8c-0.3,0.8-0.4,1.4-0.7,1.9c-0.9,2.5-2,4.9-3.7,7
		c-1.5,1.8-3.3,2.8-5.7,2.7c-1.6-0.1-2.9-0.6-3.9-2.1c-0.3,0.3-0.5,0.5-0.7,0.7c-1,0.9-2.1,1.5-3.5,1.4c-1.2,0-2.2-0.8-2.5-1.9
		c-0.1-0.2-0.2-0.3-0.3-0.5l-0.5,0.6c-0.7,0.9-1.6,1.6-2.8,1.8c-1.8,0.3-3.2-0.2-3.6-2.2c-0.1-1.1-0.2-2.2,0-3.3
		c0.1-1.1,0.3-2.2,0.4-3.2c0-0.3,0.1-0.6,0.2-0.9c0.2-1,0.3-2.7,0.1-3.1c-0.4-0.2-0.9,0-1.1,0.4c-0.4,0.7-0.8,1.4-1,2.1
		c-0.8,2.1-1.4,4-2.1,6.4c-0.3,0.8-0.4,1.6-0.6,2.4c-0.1,0.2-0.2,0.5-0.3,0.7c-0.3,0.6-0.9,0.9-1.5,0.7c-0.6-0.2-1-0.7-0.9-1.4
		c0-0.8,0.1-1.6,0.2-2.4c0.1-1,0.4-2,0.5-3c0.2-1.5,0.3-3.1,0.5-4.6c0-0.5,0.2-1.1-0.1-1.4c-0.6-0.1-0.8,0.2-0.9,0.5
		c-0.5,0.9-0.9,1.7-1.3,2.7c-0.6,1.6-1.1,3.2-1.6,4.8c-0.4,1.3-0.7,2.5-1.1,3.8c-0.1,0.5-0.5,1-1,1.1c-0.5,0.1-1.1-0.1-1.3-0.6
		c-0.1-0.1-0.2-0.2-0.3-0.2c-0.1,0.2-0.3,0.3-0.4,0.5c-0.8,0.9-2,1.5-3.2,1.5c-1.1,0.1-2-0.5-2.4-1.5c-0.3-0.8-0.5-1.7-0.4-2.6
		c0.1-1.6,0.2-3.2,0.3-4.8c0.1-0.7,0.1-1.4,0.2-2.1c0.1-0.6-0.2-1.2-0.8-1.5c-0.6,1.6-1.2,3.2-1.9,4.7c-0.9,2-2.1,4-3.9,5.4
		c-1.7,1.4-4,1.8-6.1,1c-1.4-0.5-2.2-1.7-2.6-3.1c-0.1-0.2-0.1-0.4-0.2-0.6l-5.3,0.5c0,0,0,0.1,0,0.2c0.8,1.5,1.4,3.2,1.7,4.9
		c0.2,1.2,0.3,2.4,0.3,3.6c0.1,1.5-0.2,3-0.6,4.5c-0.5,1.9-1.3,3.6-2.8,4.9c-0.8,0.7-1.9,1-2.9,0.9c-1.3-0.1-2.1-0.9-2.5-2.1
		c-0.3-1.2-0.5-2.4-0.3-3.6c0.2-3.2,0.5-6.5,0.7-9.7c0.1-1.2,0.3-2.4,0.5-3.6c0.1-0.9,0.1-0.9-0.7-1.2c-1.2-0.4-2.3-1.2-3.1-2.2
		C67.8,86,67.6,84.9,68,84c0.3-0.9,1.2-1.3,2.3-1.2c0.9,0.1,1.7,0.4,2.4,1c0.1,0.1,0.3,0.2,0.4,0.3c0.1-0.8,0.3-1.5,0.4-2.3
		c0.3-1.5,0.6-2.9,0.9-4.4c0.4-2.3,0.8-4.6,1.3-6.8c0.4-1.8,1-3.6,2.1-5.2c0.9-1.3,2.4-1.9,3.9-1.5c0.8,0.2,1.5,0.7,1.9,1.4
		c0.5,0.8,0.8,1.8,0.9,2.7c0.2,2.1,0.1,4.3-0.5,6.4c-0.8,3.6-2.4,7-4.6,9.9c-0.5,0.6-1,1.1-1.5,1.6C77.6,86.1,77.1,86.2,76.7,86.1z
		 M75.4,90c-0.3,1.8-0.6,3.5-0.8,5.3c-0.4,3.5-0.7,6.9-1,10.4c0,0.4,0.1,0.7,0.2,1c0.2,0.6,0.7,0.7,1.2,0.3c0.4-0.4,0.8-0.8,1.1-1.3
		c1-1.7,1.4-3.5,1.6-5.4c0.2-1.5,0.2-3,0-4.5c-0.2-1.9-0.6-3.8-1.4-5.5C76.2,90.1,75.8,89.9,75.4,90C75.4,90,75.4,90,75.4,90z
		 M86.4,86.6l0.2,0.1c0.1-0.1,0.2-0.2,0.3-0.2c1.1-0.9,2.1-2,2.8-3.3c0.6-0.9,1-2,1-3.1c0-0.5,0-0.9-0.6-1c-0.6,0-1.3,0.8-1.6,1.5
		c-0.6,1.1-1.1,2.2-1.5,3.4C86.8,84.8,86.6,85.7,86.4,86.6z M138,78.9c-0.7,0.1-1.3,1-1.8,1.8c-1.1,1.7-1.5,3.7-2,5.6
		c0,0.1,0,0.2,0.1,0.4c0.3-0.2,0.5-0.3,0.7-0.5c1-0.8,1.9-1.9,2.6-3c0.6-0.9,0.9-1.9,1.1-2.9C138.6,79.7,138.6,79,138,78.9z
		 M155.1,86.5c0.2-0.1,0.3-0.2,0.5-0.3c0.7-0.7,1.3-1.3,1.9-2.1c0.8-0.9,1.4-2,1.8-3.2c0.1-0.4,0.2-0.7,0.1-1.1
		c0-0.3-0.2-0.7-0.4-0.7c-0.3-0.1-0.5,0-0.7,0.1c-0.2,0.2-0.4,0.4-0.6,0.6c-0.5,0.7-0.9,1.5-1.4,2.2c-0.5,1.1-0.9,2.2-1.2,3.3
		C155,85.8,154.8,86.5,155.1,86.5L155.1,86.5z M72.5,87c0.4-1.6,0.5-1.5-0.4-2.2c-0.2-0.2-0.5-0.3-0.8-0.5c-0.5-0.3-0.9-0.2-1.2,0.1
		c-0.3,0.3-0.2,0.8,0.2,1.2C70.9,86.3,71.7,86.6,72.5,87z M97.3,77.1c-0.4,0-0.5,0.3-0.5,0.7c0,0.5,0.2,1,0.7,1.1
		C97.9,78,97.8,77.2,97.3,77.1z M145.1,78.8c0.4-0.7,0.4-1.7-0.1-1.8C144.2,77,144.2,77.9,145.1,78.8z"/>
	<path class="st0" d="M63.1,82.6c0,0.3,0,0.7-0.1,1c-0.2,1.6-0.5,3.2-0.6,4.8c-0.1,0.9-0.1,1.7,0,2.6c0.1,0.8,0.6,1.2,1.2,1
		c0.3-0.1,0.6-0.2,0.8-0.5c0.7-0.6,1.2-1.4,1.6-2.3c0.1-0.2,0.2-0.4,0.3-0.7c0.5,0.3,0.7,0.9,0.6,1.5c-0.4,1.5-1.2,2.8-2.7,3.5
		c-1.6,0.8-3.6,0.1-4.4-1.6c0,0,0,0,0,0c-0.1-0.2-0.2-0.4-0.3-0.6c-1.6,2.6-4.7,3.2-6.6,1.1c-0.6,0.3-1.2,0.7-1.8,1
		c-1.2,0.5-2.4,0.4-3.6,0.1c-1.2-0.3-2.1-1.1-2.6-2.2c-0.5-1.2-0.8-2.5-0.9-3.8c-0.1-1.8-0.1-3.7,0.1-5.5c0.3-2.8,0.8-5.5,1.7-8.1
		c0.6-1.8,1.2-3.7,1.9-5.5c0.4-1,0.9-1.9,1.3-2.9c0.1-0.1,0.1-0.2,0.2-0.3c1.2,0.8,1.5,1.8,1,3.1c-0.5,1.4-1,2.8-1.4,4.2
		c-0.5,1.7-0.9,3.4-1.3,5.2c-0.1,0.6-0.2,1.3-0.3,1.9c-0.3,2.3-0.7,4.7-0.5,7.1c0.1,1,0.3,2.1,0.7,3c0.9,2,2.6,2.2,4.2,1.4
		c0.4-0.2,0.7-0.6,0.6-1c-0.4-3.4,0.7-6.4,2.8-9c1.2-1.6,3.3-2.5,5.3-2.3c1.2,0.1,2,0.5,2.3,1.6c0.1,0.5,0.2,1-0.3,1.5
		c-0.3-0.4-0.6-0.8-1-1.1c-0.9-0.8-2.3-0.3-3,0.3c-1.3,0.9-1.9,2.3-2.4,3.7c-0.5,1.3-0.7,2.7-0.8,4.1c0,0.6,0,1.2,0.1,1.7
		c0.1,0.6,0.3,1.1,1,1.3c0.6,0.1,1.2-0.2,1.6-0.7c0.6-0.7,1-1.5,1.3-2.4c0.5-1.4,0.8-2.8,1-4.2C60.4,83.3,61.4,82.7,63.1,82.6z"/>
	<path class="st0" d="M138.6,76.6c-1.8-0.4-4-2.9-3.9-5c0-0.6,0.3-1.2,0.9-1.5c0.3-0.2,0.6-0.3,1-0.6c0.1,0.3,0.1,0.6,0.2,0.8
		c0.2,1.2,0.3,2.5,0.9,3.6c0.4,0.9,1,1.7,1.8,2.3C139.5,76.2,139.5,76.6,138.6,76.6z"/>
	<path class="st0" d="M125.8,75.8c0-1,0.6-1.9,1.8-1.9c0.8,0,1.6,0.8,1.6,1.7c0,1.1-0.9,1.9-1.9,2C126.5,77.5,125.8,76.7,125.8,75.8
		z"/>
	<path class="st0" d="M91.5,104.8C91.4,104.8,91.4,104.8,91.5,104.8l-1.8-2.5l-0.2-0.3c0,0-0.1-0.1-0.1,0c0,0,0,0.1,0,0.1v2.7
		c0,0.1,0,0.1-0.1,0.1l0,0h-0.5c-0.1,0-0.1,0-0.1-0.1l0,0v-4.4c0-0.1,0-0.1,0.1-0.1l0,0h0.5c0,0,0.1,0,0.1,0l1.7,2.5l0.2,0.3
		c0,0,0.1,0.1,0.1,0c0,0,0-0.1,0-0.1v-2.7c0-0.1,0-0.1,0.1-0.1l0,0h0.5c0.1,0,0.1,0,0.1,0.1v0v4.4c0,0.1,0,0.1-0.1,0.1l0,0
		L91.5,104.8z"/>
	<path class="st0" d="M95.9,104.8l-0.3-1c0,0-0.1-0.1-0.1-0.1h-1.4c0,0-0.1,0-0.1,0.1l-0.3,1c0,0-0.1,0.1-0.1,0.1H93
		c-0.1,0-0.1,0-0.1-0.1c0,0,0,0,0,0l1.5-4.4c0,0,0.1-0.1,0.1-0.1h0.6c0,0,0.1,0,0.1,0.1l1.5,4.4c0,0.1,0,0.1-0.1,0.1c0,0,0,0,0,0
		L95.9,104.8C96,104.8,95.9,104.8,95.9,104.8z M94.7,101.5l-0.4,1.4c0,0.1,0,0.1,0.1,0.1c0,0,0,0,0,0h0.9c0.1,0,0.1-0.1,0.1-0.1
		c0,0,0,0,0,0l-0.4-1.4C94.8,101.5,94.8,101.4,94.7,101.5C94.7,101.5,94.7,101.5,94.7,101.5z"/>
	<path class="st0" d="M99.1,101v3.7c0,0.1,0,0.1-0.1,0.1l0,0h-0.6c-0.1,0-0.1,0-0.1-0.1v0V101c0-0.1,0-0.1-0.1-0.1l0,0h-1.1
		c-0.1,0-0.1,0-0.1-0.1v0v-0.5c0-0.1,0-0.1,0.1-0.1l0,0h3.2c0.1,0,0.1,0,0.1,0.1v0v0.5c0,0.1,0,0.1-0.1,0.1l0,0h-1.1
		C99.1,100.9,99.1,101,99.1,101z"/>
	<path class="st0" d="M103.1,105c-1.1,0-1.7-0.6-1.7-1.5v-3.1c0-0.1,0-0.1,0.1-0.1l0,0h0.6c0.1,0,0.1,0,0.1,0.1l0,0v3.1
		c0,0.6,0.3,0.9,1,0.9c0.6,0,1-0.3,1-0.9v-3.1c0-0.1,0-0.1,0.1-0.1l0,0h0.6c0.1,0,0.1,0,0.1,0.1l0,0v3.1
		C104.8,104.4,104.2,105,103.1,105z"/>
	<path class="st0" d="M113.4,104.8l-0.3-1c0,0-0.1-0.1-0.1-0.1h-1.4c0,0-0.1,0-0.1,0.1l-0.3,1c0,0-0.1,0.1-0.1,0.1h-0.5
		c-0.1,0-0.1,0-0.1-0.1c0,0,0,0,0,0l1.5-4.4c0,0,0.1-0.1,0.1-0.1h0.6c0,0,0.1,0,0.1,0.1l1.5,4.4c0,0.1,0,0.1-0.1,0.1c0,0,0,0,0,0
		h-0.6C113.5,104.8,113.4,104.8,113.4,104.8z M112.2,101.5l-0.4,1.4c0,0.1,0,0.1,0.1,0.1c0,0,0,0,0,0h0.9c0.1,0,0.1,0,0.1-0.1
		c0,0,0,0,0,0l-0.4-1.4C112.3,101.5,112.3,101.4,112.2,101.5C112.2,101.5,112.2,101.5,112.2,101.5z"/>
	<path class="st0" d="M108.5,103c0,0,0-0.1,0-0.1c0,0,0,0,0,0c0.1,0,0.3-0.1,0.4-0.1c0.3-0.2,0.5-0.5,0.5-0.9v-0.4
		c0-0.7-0.4-1.2-1.4-1.2h-1.7c-0.1,0-0.1,0-0.1,0.1l0,0v4.4c0,0.1,0,0.1,0.1,0.1l0,0h0.6c0.1,0,0.1,0,0.1-0.1v0V103
		c0-0.1,0-0.1,0.1-0.1l0,0h0.3c0.1,0,0.3,0.1,0.3,0.2c0.1,0.2,0.6,1.3,0.8,1.6c0.1,0.1,0.2,0.1,0.3,0.1h0.5c0,0,0.1,0,0.1-0.1
		c0,0,0,0,0-0.1C109.2,104.2,108.7,103.3,108.5,103z M107.1,102.3c-0.1,0-0.1,0-0.1-0.1l0,0V101c0-0.1,0-0.1,0.1-0.1l0,0h1
		c0.5,0,0.6,0.2,0.6,0.5v0.3c0,0.4-0.2,0.6-0.7,0.6L107.1,102.3z"/>
	<path class="st0" d="M115.1,104.7v-4.4c0-0.1,0-0.1,0.1-0.1l0,0h0.6c0.1,0,0.1,0,0.1,0.1l0,0v3.7c0,0.1,0,0.1,0.1,0.1l0,0h2
		c0.1,0,0.1,0,0.1,0.1l0,0v0.5c0,0.1,0,0.1-0.1,0.1l0,0h-2.7C115.1,104.8,115.1,104.8,115.1,104.7
		C115.1,104.7,115.1,104.7,115.1,104.7z"/>
	<path class="st0" d="M119,104.7v-4.4c0-0.1,0-0.1,0.1-0.1l0,0h0.6c0.1,0,0.1,0,0.1,0.1l0,0v3.7c0,0.1,0,0.1,0.1,0.1l0,0h2
		c0.1,0,0.1,0,0.1,0.1l0,0v0.5c0,0.1,0,0.1-0.1,0.1l0,0h-2.7C119.1,104.8,119,104.8,119,104.7C119,104.7,119,104.7,119,104.7z"/>
	<path class="st0" d="M124.3,103v1.7c0,0.1,0,0.1-0.1,0.1l0,0h-0.6c-0.1,0-0.1,0-0.1-0.1l0,0V103c0,0,0,0,0-0.1l-1.5-2.6
		c0,0,0-0.1,0-0.1c0,0,0,0,0.1,0h0.6c0,0,0.1,0,0.1,0.1l1,1.9c0,0.1,0.1,0.1,0.1,0c0,0,0,0,0,0l1-1.9c0,0,0.1-0.1,0.1-0.1h0.6
		c0.1,0,0.1,0,0.1,0.1c0,0,0,0,0,0L124.3,103C124.3,103,124.3,103,124.3,103z"/>
	<path class="st0" d="M129.3,101v1.1c0,0.1,0,0.1,0.1,0.1l0,0h1.4c0.1,0,0.1,0,0.1,0.1l0,0v0.4c0,0.1,0,0.1-0.1,0.1l0,0h-1.4
		c-0.1,0-0.1,0-0.1,0.1l0,0v1.7c0,0.1,0,0.1-0.1,0.1l0,0h-0.5c-0.1,0-0.1,0-0.1-0.1l0,0v-4.4c0-0.1,0-0.1,0.1-0.1l0,0h2.7
		c0.1,0,0.1,0,0.1,0.1l0,0v0.5c0,0.1,0,0.1-0.1,0.1l0,0h-1.9C129.3,100.9,129.3,100.9,129.3,101C129.3,101,129.3,101,129.3,101z"/>
	<path class="st0" d="M137,104.7v-4.4c0-0.1,0-0.1,0.1-0.1h2.7c0.1,0,0.1,0,0.1,0.1v0.5c0,0.1,0,0.1-0.1,0.1h-1.9
		c-0.1,0-0.1,0-0.1,0.1v1c0,0.1,0,0.1,0.1,0.1h1.4c0.1,0,0.1,0,0.1,0.1v0.4c0,0.1,0,0.1-0.1,0.1h-1.4c-0.1,0-0.1,0-0.1,0.1v1.2
		c0,0.1,0,0.1,0.1,0.1h1.9c0.1,0,0.1,0,0.1,0.1v0.5c0,0.1,0,0.1-0.1,0.1h-2.7C137.1,104.9,137,104.8,137,104.7
		C137,104.7,137,104.7,137,104.7z"/>
	<path class="st0" d="M144.2,104.8C144.2,104.8,144.1,104.8,144.2,104.8l-1.8-2.5l-0.2-0.3c0,0-0.1-0.1-0.1,0c0,0,0,0.1,0,0.1v2.7
		c0,0.1,0,0.1-0.1,0.1h-0.5c-0.1,0-0.1,0-0.1-0.1v-4.4c0-0.1,0-0.1,0.1-0.1h0.5c0,0,0.1,0,0.1,0l1.7,2.5l0.2,0.3c0,0,0.1,0.1,0.1,0
		c0,0,0-0.1,0-0.1v-2.7c0-0.1,0-0.1,0.1-0.1h0.5c0.1,0,0.1,0,0.1,0.1v4.4c0,0.1,0,0.1-0.1,0.1H144.2z"/>
	<path class="st0" d="M148.8,101.8c-0.1,0-0.1,0-0.1-0.1v-0.2c0-0.5-0.3-0.8-0.9-0.8c-0.5-0.1-1,0.3-1,0.9c0,0.1,0,0.1,0,0.2v1.5
		c0,0.5,0.4,1,0.9,1c0.1,0,0.1,0,0.2,0c0.4,0.1,0.8-0.2,0.8-0.6c0-0.1,0-0.1,0-0.2v-0.2c0-0.1,0-0.1,0.1-0.1h0.5
		c0.1,0,0.1,0,0.1,0.1v0.2c0,0.8-0.6,1.4-1.6,1.4c-1.2,0-1.8-0.8-1.8-1.7v-1.4c0-0.9,0.7-1.7,1.6-1.7c0.1,0,0.1,0,0.2,0
		c1,0,1.6,0.6,1.6,1.4v0.2c0,0.1,0,0.1-0.1,0.1L148.8,101.8z"/>
	<path class="st0" d="M153.3,104.7v-1.8c0-0.1,0-0.1-0.1-0.1h-1.8c-0.1,0-0.1,0-0.1,0.1v1.8c0,0.1,0,0.1-0.1,0.1h-0.5
		c-0.1,0-0.1,0-0.1-0.1v-4.4c0-0.1,0-0.1,0.1-0.1h0.6c0.1,0,0.1,0,0.1,0.1v1.7c0,0.1,0,0.1,0.1,0.1h1.8c0.1,0,0.1,0,0.1-0.1v-1.7
		c0-0.1,0-0.1,0.1-0.1h0.6c0.1,0,0.1,0,0.1,0.1v4.4c0,0.1,0,0.1-0.1,0.1h-0.6C153.4,104.8,153.3,104.8,153.3,104.7
		C153.3,104.7,153.3,104.7,153.3,104.7z"/>
	<path class="st0" d="M134.8,103c0,0,0-0.1,0-0.1c0,0,0,0,0,0c0.1,0,0.3-0.1,0.4-0.1c0.3-0.2,0.5-0.5,0.5-0.9v-0.4
		c0-0.7-0.4-1.2-1.4-1.2h-1.7c-0.1,0-0.1,0-0.1,0.1l0,0v4.4c0,0.1,0,0.1,0.1,0.1l0,0h0.6c0.1,0,0.1,0,0.1-0.1V103
		c0-0.1,0-0.1,0.1-0.1h0.3c0.1,0,0.3,0.1,0.3,0.2c0.1,0.2,0.6,1.3,0.8,1.6c0.1,0.1,0.2,0.1,0.3,0.1h0.5c0,0,0.1,0,0.1-0.1
		c0,0,0,0,0-0.1C135.5,104.2,135,103.3,134.8,103z M133.4,102.3c-0.1,0-0.1,0-0.1-0.1V101c0-0.1,0-0.1,0.1-0.1h1
		c0.5,0,0.6,0.2,0.6,0.5v0.3c0,0.4-0.2,0.6-0.7,0.6L133.4,102.3z"/>
</g>
</svg>
