<?xml version="1.0" encoding="utf-8"?>
<!-- Generator: Adobe Illustrator 20.0.0, SVG Export Plug-In . SVG Version: 6.00 Build 0)  -->
<svg version="1.1" xmlns="http://www.w3.org/2000/svg" xmlns:xlink="http://www.w3.org/1999/xlink" x="0px" y="0px"
	 viewBox="0 0 209 173" style="enable-background:new 0 0 209 173;" xml:space="preserve">
<style type="text/css">
	.st0{fill:#231F20;}
</style>
<g id="Layer_2">
</g>
<g id="Layer_1">
	<title>Solti-logo</title>
	<g>
		<path class="st0" d="M88.6,103.8c-0.1,0-0.2,0.1-0.3,0.2c-0.2,0.3-0.3,0.7-0.3,1v1.4h1.3v0.8H88v3.3h1v0.8h-2.7v-0.8H87v-3.3h-0.9
			v-0.8H87v-1.2c-0.1-0.6,0.1-1.3,0.6-1.8c0.3-0.3,0.8-0.5,1.2-0.5c0.6,0,1,0.3,1,0.7c0,0.3-0.2,0.6-0.5,0.6c0,0,0,0-0.1,0
			C89,104.3,88.7,104.1,88.6,103.8z"/>
		<path class="st0" d="M93.9,107.1c0,0.4-0.3,0.6-0.6,0.7c-0.3,0-0.5-0.2-0.7-0.4c-0.5,0.2-0.8,0.6-1,1v2.2h0.9v0.8h-2.6v-0.8h0.8
			v-3.3h-0.8v-0.8h1.7v1.1c0.4-0.7,1-1.2,1.5-1.2c0.4,0,0.8,0.2,0.8,0.6C93.9,107,93.9,107.1,93.9,107.1z"/>
		<path class="st0" d="M94.9,109.2c0.1,0.9,0.9,1.5,1.8,1.4c0.6,0,1.2-0.2,1.8-0.6l-0.1,0.9c-0.6,0.3-1.2,0.5-1.8,0.5
			c-1.4,0.1-2.6-0.9-2.7-2.3c0-0.1,0-0.2,0-0.3c-0.1-1.3,1-2.5,2.3-2.6c0,0,0.1,0,0.1,0c1.2-0.1,2.3,0.9,2.3,2.1c0,0.1,0,0.2,0,0.3
			c0,0.2,0,0.4,0,0.6L94.9,109.2z M94.9,108.5h2.8c0-0.7-0.5-1.3-1.2-1.3c0,0-0.1,0-0.1,0C95.6,107.2,95,107.8,94.9,108.5z"/>
		<path class="st0" d="M100.2,109.2c0.1,0.9,0.9,1.5,1.8,1.4c0.6,0,1.2-0.2,1.8-0.6l-0.1,0.9c-0.6,0.3-1.2,0.5-1.8,0.5
			c-1.4,0.1-2.6-0.9-2.7-2.3c0-0.1,0-0.2,0-0.3c-0.1-1.3,1-2.5,2.3-2.6c0,0,0.1,0,0.1,0c1.2-0.1,2.3,0.9,2.3,2.1c0,0.1,0,0.2,0,0.3
			c0,0.2,0,0.4,0,0.6L100.2,109.2z M100.2,108.5h2.8c0-0.7-0.5-1.3-1.2-1.3c0,0-0.1,0-0.1,0C100.8,107.2,100.2,107.8,100.2,108.5z"
			/>
		<path class="st0" d="M107.9,110.9c-0.1-0.2-0.2-0.5-0.1-0.7v-2.8h-0.9v-0.8h0.9v-1.1l1-0.4v1.5h1.5v0.8h-1.5v2.7
			c0,0.1,0,0.3,0.1,0.4c0.1,0.2,0.3,0.3,0.6,0.2c0.3,0,0.6-0.1,0.9-0.3l-0.1,0.9c-0.3,0.2-0.7,0.3-1.1,0.3
			C108.6,111.5,108.1,111.3,107.9,110.9z"/>
		<path class="st0" d="M110.4,108.9c0-1.4,1.1-2.6,2.6-2.6c1.4,0,2.6,1.1,2.6,2.6c0,1.4-1.1,2.6-2.6,2.6c0,0,0,0,0,0
			c-1.4,0-2.5-1-2.6-2.4C110.4,109,110.4,109,110.4,108.9z M114.6,108.9c-0.1-0.9-0.8-1.5-1.7-1.4c-0.9,0.1-1.5,0.8-1.4,1.7
			c0.1,0.8,0.8,1.4,1.6,1.4c0.9,0,1.6-0.7,1.6-1.6C114.6,109,114.6,109,114.6,108.9L114.6,108.9z"/>
		<path class="st0" d="M118.2,113.6c-0.2-0.2-0.3-0.5-0.3-0.7c0-0.4,0.3-0.7,0.7-0.8c0,0,0,0,0,0c0.4,0,0.7,0.3,0.7,0.7c0,0,0,0,0,0
			c0,0.1,0,0.2-0.1,0.3c0.3,0.1,0.6,0.2,0.9,0.2c0.5,0,0.9-0.1,1.3-0.5c0.3-0.4,0.6-0.9,0.6-1.4l0.2-1.1c-0.4,0.7-1.2,1.1-1.9,1.1
			c-1.3,0-2.1-0.9-2.1-2.3c0-1.8,1.3-3.4,3-3.4c0.8,0,1.5,0.5,1.8,1.3l0.4-1.2h1.1l-1.4,5.8c-0.1,0.7-0.4,1.3-0.8,1.8
			c-0.6,0.5-1.3,0.8-2.1,0.7C119.5,114.2,118.8,114,118.2,113.6z M122.8,108.2c0-0.7-0.5-1.3-1.2-1.4c-0.1,0-0.1,0-0.2,0
			c-1.1,0-1.9,1.1-1.9,2.3c-0.1,0.7,0.5,1.3,1.2,1.4c0.1,0,0.1,0,0.2,0C121.9,110.6,122.8,109.4,122.8,108.2L122.8,108.2z"/>
		<path class="st0" d="M126,106.9H125l0.2-1h2l-0.4,1.6c0.7-1.1,1.4-1.7,2-1.7c0.4,0,0.8,0.3,0.9,0.7c0,0.4-0.3,0.8-0.7,0.9
			c0,0-0.1,0-0.1,0c-0.4,0-0.7-0.2-0.8-0.6c-0.8,0.5-1.3,1.3-1.5,2.2l-0.6,2.5h-1.1L126,106.9z"/>
		<path class="st0" d="M129.4,109.2c0-1.8,1.4-3.3,3.2-3.4c1.3-0.1,2.5,1,2.6,2.3c0,0.1,0,0.1,0,0.2c0,1.8-1.4,3.3-3.2,3.4
			c-1.3,0.1-2.5-1-2.6-2.3C129.4,109.3,129.4,109.2,129.4,109.2z M134,108.3c0.1-0.8-0.5-1.5-1.3-1.5c-0.1,0-0.1,0-0.2,0
			c-1.1,0-2,1.1-2,2.4c-0.1,0.8,0.5,1.5,1.3,1.5c0.1,0,0.1,0,0.2,0C133.1,110.8,134,109.7,134,108.3L134,108.3z"/>
		<path class="st0" d="M136.3,106.9h-1l0.2-1h1.8l0.2,4.3l2-3.7h0.7l0.8,3.8c0.8-1.2,1.4-2.3,1.5-3c-0.3-0.1-0.6-0.4-0.6-0.7
			c0-0.4,0.3-0.8,0.7-0.8c0,0,0,0,0,0c0.5,0,0.9,0.4,0.9,0.9c0,0,0,0.1,0,0.1c0,1-0.8,2.6-2.5,5h-0.7l-0.7-3.5l-2.1,3.4h-0.8
			L136.3,106.9z"/>
		<path class="st0" d="M121.3,71.5c-0.3-0.9-0.8-1.8-1.5-2.4c1.7,0.5,3.6,0.5,5.3,0.1c2.5-0.6,5.1-3.4,4.5-6.2s-4.2-3.3-7.5-2.2
			l-0.3,0.1l0.1-0.2c2.4-3.3,1.3-8.3-1-9.7s-6.4,2.4-7.7,5.4c-0.2,0.5-0.3,0.9-0.4,1.4c-1.5-2-4.5-3.1-6.3-2.5
			c-2.2,0.8-2.1,5.1-0.8,7.4c0.6,1.1,1.3,2,2.2,2.9c-0.4,0.1-0.8,0.2-1.2,0.3c-2.9,1-4.4,3.4-3.9,5.6c0.4,2.3,4.5,2.5,6.7,2
			c1.3-0.4,2.5-1.2,3.3-2.4c-0.3,1.7,0.1,3.4,0.9,4.9c1.6,3,4.4,3.9,5.8,2.9S122.4,75.2,121.3,71.5"/>
		<path class="st0" d="M144.7,69.6c2.1,0.4,1.7,2,2.4,3.9c0.2,0.4,0.2,1.5,0.6,1.7c0.6,0.2,1.7-0.2,2.1-0.3c1.8-0.2,2.7,0,4.5,0.7
			c0.4,0.2,0.8,0.3,1.2,0.5c0.4,0.3,0.1,1,0.2,1.5c0.1,0.4,0.6,0.8,0.5,1.3c-0.6,0.3-1.1,0.4-1.6,0.8c-0.7,0.2-1.4,0.3-2.1,0.4
			c-1.1,0.2-2,0.5-3.4,0.6c0.3,2.2,0.5,3.8,0.6,6.1c0.3,3.1-1.6,8.3-2.7,10.7c-0.8,1.7-2.4,5.1-4.9,4.3c-1.8-0.6-3.3-2.1-2.6-4.2
			l1-2.1c0.9-2.3,1.6-4.8,2-7.2c0.2-0.8,0.2-1.6,0.2-2.4c0-1.1,0-2.2,0-3.3c0-0.3,0-1-0.1-1.2c-0.9-0.2-1.9-0.2-2.9,0l-0.9-0.3
			c-0.3,0-1.2-0.6-0.9-0.9c-0.1-0.1-0.3-0.1-0.4-0.3c-0.1-0.2-0.1-0.5,0-0.7l-0.5-0.3l0.1-0.4c1.3-0.7,2.5-1.4,3.9-2
			c0.3-0.1,1.4-0.2,1.3-0.6c0.3-1.2-0.5-3.9,0.2-5C142.8,69.9,144,69.9,144.7,69.6z"/>
		<path class="st0" d="M60.9,74.9c2.1-0.1,5.3,0.3,6.4,1.4c0.5,0.5,1.1,1.4,0.6,2.4c-0.6,0.9-1.7,0.5-2.8,0.7
			c-2.3,0.4-4,0.2-5.4,1.7c-0.2,0.3-0.6,0.6-0.5,1.2c0.3,1.2,1.9,1.8,2.8,2.4c2,1.5,5.2,4.2,5.1,7.5c0,1.4-0.1,2.4-0.8,3.4
			c-0.6,0.6-1.3,1.2-2,1.7c-0.8,0.6-1.5,1.3-2.4,1.9c-1.7,1.1-5.6,2.1-7.9,1.9c-1.3-0.1-4.2-0.3-4.6-1c0.3-0.5,0.3-1.1,0-1.7
			l-0.5-0.1c-0.9-5.2,9.7-3.5,11-7.2c-2.7-1.8-5.9-2.9-7.7-5.7c-0.8-1.3-1-2.9-0.7-4.4c0.2-0.6,0.5-1.1,0.9-1.6
			c0.5-0.8,1.1-1.6,1.9-2.2c1.4-1,3-1.7,4.7-2.1L60.9,74.9z"/>
		<path class="st0" d="M99.4,75.1l1.5,0.1c0.7,0.2,2.2,1,2.5,1.7c0.3,0.6,0.2,1,0.4,1.6c0.3,0.6,0.6,1.3,0.8,2
			c-1.7,2.6-5.2,0.2-6.8,2.5c-1.4,2-1,6.5-1.3,9.6c-0.2,1.5,0.3,3.2-0.1,4.5c-0.3,0.9-2,1.4-3.1,0.9c-0.9-0.6-1.5-3.4-2-4.5
			c-0.5-1.2-0.9-2.4-1-3.7c0-0.6,0-1.2-0.1-1.8c-0.9-5,1.3-9.2,4.2-11.2c1-0.7,2.3-1,3.6-1.4L99.4,75.1z"/>
		<path class="st0" d="M123.7,80.5c1.9,0,2.5,1.6,2.3,3.7c-0.3,3.1,0.6,8.9,3.6,9.7c0.9,0.2,1.9-0.7,2.2-1.1
			c1.8-2.3,0.8-6.1,0.3-9.2c-0.1-0.9-0.1-2.7,0.5-3l0.4-0.1c0.6,0.4,0.7,1.1,1.3,1.5l1.4,0.6l0.7,0.7c0.2,0.1,0.6-0.1,0.8,0.2
			c0.1,0.1,0.6,1.1,0.7,1.2c0.5,1.1,0.5,2,0.7,3.3c0.9,4.8-1.7,8.9-5.3,10.4c-1.1,0.3-2.2,0.6-3.3,0.6c-3.7,0.5-7-2.9-8.4-5.6
			c-0.8-1.4-1-5-0.9-6.5c0.1-1.7,0.5-5.4,1.8-6.2C122.8,80.7,123.3,80.7,123.7,80.5z"/>
		<path class="st0" d="M82.2,88.6c-0.6,1.9-0.9,2.5-3,3.2c-0.6,0.3-1.2,0.4-1.8,0.4c-2.1-0.3-3.2-3-2.8-5.3c0.1-0.8,0-1.2,0.3-1.9
			c0.2-0.5,1.1-1.7,1.7-1.9l1.5-0.3c2.9-0.1,3.4,0.9,4.1,3.4C82.4,87,82.4,87.8,82.2,88.6 M79.5,76.9c-1.2,0.2-2.3,0.5-3.4,0.9
			c-2.4,1.1-4.3,2.8-5.7,5c-4,7.1-1.3,16.2,2.2,22c0.7,1.2,1.5,3.6,2.4,4.5l0,0.1h0l-0.3-0.6l0.9,0.6c0.5,0.2,0.6,0,1,0
			c1.9,0.2,2.1-0.1,3.6-0.7c0.2-2.2-0.8-4.7-1.5-6.5l-1.8-5c1.9,0.5,3.6-0.2,5.4-0.9c3.2-1.2,5-3.6,5.8-6.8
			C89.8,83.1,85.5,76.5,79.5,76.9z"/>
		<path class="st0" d="M114.6,93.5c-0.6,1.9-3.3,3.7-6.1,2.6c-2.9-1.1-3.2-6.1-0.8-7.9c1-0.7,2.3-1,3.9-1.2
			C114.3,87.1,115.4,90.6,114.6,93.5 M119.4,90.8c0-0.7-0.3-1.4-0.3-2.2c-0.3-0.9-0.8-1.8-1.4-2.6c-0.2-0.4-0.6-0.8-0.7-1.2
			c-1.2-1.6-4-3.4-6.8-3.3l-1.3,0.3c-3.2,1.2-6.3,2.2-8,4.9c-0.6,1-1.1,2-1.3,3.1c-1,4,0.5,6.8,2.2,9c0.5,0.7,1.1,1.3,1.9,1.8
			c0.3,0.1,0.7,0.4,1.1,0.5c1,0.3,2,0.5,3,0.7c0.4,0.1,0.7,0.1,1.1,0c0.6,0,1.3-0.1,1.9-0.2c0.2,0,0.3-0.1,0.5-0.2
			c1-0.3,1.9-0.3,2.7-0.8c0.6-0.4,1.1-0.6,1.7-1c0.6-0.3,1.1-0.7,1.6-1.2c0.6-0.8,0.9-1.6,1.3-2.5c0.5-0.9,0.8-2,1-3
			C119.6,92.2,119.6,91.5,119.4,90.8L119.4,90.8z"/>
		<path class="st0" d="M144.9,105.6h-0.3v0.9c0,0,0,0.1,0,0.1c0,0-0.1,0-0.1,0c0,0-0.1,0-0.1,0c0,0,0-0.1,0-0.1v-0.9h-0.3
			c0,0-0.1,0-0.1,0c0,0,0,0,0-0.1c0,0,0-0.1,0-0.1c0,0,0.1,0,0.1,0h0.8c0,0,0.1,0,0.1,0c0,0,0,0,0,0.1c0,0,0,0.1,0,0.1
			C145,105.6,144.9,105.6,144.9,105.6z"/>
		<path class="st0" d="M145.6,106.5l-0.2-0.8v0.9c0,0,0,0.1,0,0.1c0,0-0.1,0-0.2,0c0,0,0,0,0,0c0,0,0-0.1,0-0.1v-1c0,0,0-0.1,0-0.1
			c0,0,0.1,0,0.1,0h0.1c0,0,0.1,0,0.1,0c0,0,0,0,0,0c0,0,0,0.1,0,0.1l0.2,0.7l0.2-0.7c0,0,0-0.1,0-0.1c0,0,0,0,0,0c0,0,0.1,0,0.1,0
			h0.1c0,0,0.1,0,0.1,0c0,0,0,0.1,0,0.1v1c0,0,0,0.1,0,0.1c0,0-0.1,0-0.1,0c0,0-0.1,0-0.1,0c0,0,0-0.1,0-0.1v-0.9l-0.2,0.8l0,0.1
			c0,0,0,0,0,0.1c0,0-0.1,0-0.1,0c0,0-0.1,0-0.1,0c0,0,0,0,0,0C145.6,106.6,145.6,106.6,145.6,106.5L145.6,106.5z"/>
	</g>
	<polygon class="st0" points="893.9,486.2 893.9,494.2 883.9,494.2 883.9,486.2 879.4,486.2 879.4,508.3 883.9,508.3 883.9,498.4 
		893.9,498.4 893.9,508.3 898.3,508.3 898.3,486.2 	"/>
	<polygon class="st0" points="820.7,494.2 810.6,494.2 810.6,486.2 806.2,486.2 806.2,508.3 810.6,508.3 810.6,498.4 820.7,498.4 
		820.7,508.3 825.1,508.3 825.1,486.2 820.7,486.2 	"/>
	<path class="st0" d="M862,505.8c0.3-0.4,0.5-0.9,0.7-1.2c0.7-1.4,1.3-2.9,1.7-4.4c0.2-0.6,0.6-1,1.1-1.3c1-0.3,1.9-0.8,2.8-1.4
		c0.9-0.7,1.3-2,1.6-3.6c-1,0.1-2,0.3-3,0.7c-0.9,0.5-1.5,1.3-1.7,2.3c-0.2,0.7-0.6,1.4-1.2,1.9c-0.2-0.6-0.3-1.3-0.3-2
		c0-1.4,0.7-3-0.1-4.9c-0.8-1.9-3.6-3.5-3.6-3.5c-0.6,1.7-0.6,3.5-0.1,5.2c0.6,1.8,2.3,2.6,2.8,3.8c0.4,0.9,0.4,1.8,0.2,2.7l0,0
		c-0.3,1.6-1.1,3.1-2.1,4.4l-8.8-8.8c0.2-0.3,0.5-0.7,0.8-1.2l0,0c0.2-0.2,0.3-0.6,0.5-0.9l0.1-0.1l0,0c1-1.9,2.5-5,2.3-7.5
		c-0.4-4.7-4.8-6.8-7.2-6.9c-2.6-0.1-7.2,0.7-8.1,5.9c-0.9,4.8,5,9.7,7.5,12.1c1.4,1.4,6.2,6.1,10.1,10l-0.1,0.1
		c-1.8,1.3-5.7,2.1-8.7,1.6c-5.5-0.9-8.2-5.1-8.6-8.2c-0.4-2.6,0.3-5.3,1.8-7.5l-0.9-1c-1,1.1-3.7,3.7-4.4,7.4
		c-0.7,4.5,1.3,9,5.1,11.4c3.2,2.2,8.5,2.7,12.5,1.1c1.9-0.8,3.6-2,5-3.4c2,1.9,3.4,3.4,3.8,3.6h5.5L862,505.8z M843.8,485.1
		c0-2.2,0.9-4,2.9-4.3c1.9-0.3,4,1.6,5.1,3.5c1.3,2.3,1.1,4.2,0.9,6.2c-0.2,1-0.5,2-1,2.9c-0.2,0.3-0.4,0.7-0.8,1.4l-2.9-2.8
		C846.3,490.2,843.8,487.3,843.8,485.1z"/>
	<polygon class="st0" points="835.1,463.5 833.4,460.9 836.2,459.2 837.8,461.8 839.1,461 835.5,455.1 834.2,455.9 835.5,458.1 
		832.8,459.8 831.4,457.6 830.1,458.5 833.8,464.3 	"/>
	<path class="st0" d="M845.6,457.4l3.2-0.5l0.9,1.4l1.7-0.2l-4.2-6.4l-1.3,0.2l-2.2,7.3l1.6-0.2L845.6,457.4z M846.6,453.6
		L846.6,453.6l1.5,2.3l-2.1,0.3L846.6,453.6z"/>
	<polygon class="st0" points="861.8,458.7 857.8,457.7 859.2,452.3 857.7,451.9 856,458.6 861.5,460 	"/>
	<polygon class="st0" points="865.9,462.1 867.1,463 868.8,460.6 870.9,462.1 871.6,461 869.5,459.6 870.4,458.4 873.8,460.9 
		874.5,459.8 869.9,456.5 	"/>
	<polygon class="st0" points="836.3,534.7 833.5,533 834.9,530.8 833.5,530 829.9,535.9 831.3,536.7 832.9,534.1 835.7,535.8 
		834.1,538.4 835.4,539.2 839,533.3 837.7,532.5 	"/>
	<path class="st0" d="M846.4,535.5l-4.2,6.4l1.6,0.2l0.9-1.4l3.2,0.5l0.4,1.5l1.7,0.2l-2.1-7.3L846.4,535.5z M845.3,539.6l1.4-2.3
		h0.1l0.7,2.6L845.3,539.6z"/>
	<polygon class="st0" points="858.1,540.9 856.9,535.4 855.5,535.7 856.9,542.5 862.4,541.3 862.1,540 	"/>
	<polygon class="st0" points="870.1,532.7 868,534.1 867.2,532.9 870.8,530.6 870.1,529.5 865.2,532.6 869,538.5 870.3,537.6 
		868.7,535.2 870.8,533.8 	"/>
	<path class="st0" d="M1052.7,477.4h-12.9v0.8c3.1,0,3.8,1,3.8,4.4v17.7c0,3.4-0.7,4.4-3.8,4.4v0.8h12.9c10,0,16.1-5.5,16.1-14
		S1062.8,477.4,1052.7,477.4z M1051.9,504.5h-1.6v-26.3h1.7c7.3,0,9.8,6.4,9.8,13.1S1059.2,504.5,1051.9,504.5L1051.9,504.5z"/>
	<path class="st0" d="M1081.6,486.6c-6,0-10.1,4.2-10.1,9.6c0,5,3.5,9.6,10.2,9.6c3.6,0.1,7-1.6,9-4.7l-0.7-0.5
		c-1.3,1.9-3.7,3.9-6.3,3.9c-4,0-5.9-3.4-5.9-9.3h12.9C1090.5,489.8,1086.8,486.6,1081.6,486.6z M1077.8,494.4
		c0.1-3.5,1.1-7.1,3.7-7.1c3.1,0,3.2,5,3.2,7.1H1077.8z"/>
	<path class="st0" d="M1125.3,486.6c-2.4,0-4.2,1.9-5.2,4.2v-4.2l-8.9,1.1v0.8c2.4,0,2.9,1.2,2.9,3.4v9.2c0,2.2-0.5,3.4-2.9,3.4v0.8
		h11.8v-0.8c-2.4,0-2.9-1.2-2.9-3.4v-6.5c0-2.4,1-4.6,2.2-5c-0.1,1.8,1.3,3.3,3.1,3.4c1.8,0.1,3.3-1.3,3.4-3.1s-1.3-3.3-3.1-3.4
		C1125.5,486.6,1125.4,486.6,1125.3,486.6L1125.3,486.6z"/>
	<path class="st0" d="M1106.4,486.6c-2.4,0-4.2,1.9-5.2,4.2v-4.2l-8.9,1.1v0.8c2.4,0,2.9,1.2,2.9,3.4v9.2c0,2.2-0.5,3.4-2.9,3.4v0.8
		h11.8v-0.8c-2.4,0-2.9-1.2-2.9-3.4v-6.5c0-2.4,1-4.6,2.2-5c-0.1,1.8,1.3,3.3,3.1,3.4c1.8,0.1,3.3-1.3,3.4-3.1s-1.3-3.3-3.1-3.4
		C1106.7,486.6,1106.6,486.6,1106.4,486.6L1106.4,486.6z"/>
	<path class="st0" d="M1139,501.1v-14.6l-8.9,1.1v0.8c2.4,0,2.9,1.2,2.9,3.4v9.2c0,2.2-0.5,3.4-2.9,3.4v0.8h11.8v-0.8
		C1139.5,504.6,1139,503.4,1139,501.1z"/>
	<circle class="st0" cx="1135.8" cy="480.6" r="3.5"/>
	<path class="st0" d="M1151,505.1c-4,0-5-2.7-6.4-5.9l-0.7,0l0.2,5.8c2.3,0.5,4.7,0.8,7.1,0.9c5.1,0,8.3-2.1,8.3-6
		c0-7.2-11-5.4-11-10.1c0-1.3,0.9-2.4,3.4-2.4c3.4,0,4.6,2.7,5.9,5.6l0.7,0l-0.2-5.5c-2.2-0.4-4.4-0.7-6.7-0.8
		c-4.9,0-7.6,2.1-7.6,5.7c0,7.2,10.9,5.2,10.9,10.2C1154.9,503.7,1154.1,505.1,1151,505.1z"/>
</g>
</svg>
