<?xml version="1.0" encoding="utf-8"?>
<!-- Generator: Adobe Illustrator 20.0.0, SVG Export Plug-In . SVG Version: 6.00 Build 0)  -->
<svg version="1.1" xmlns="http://www.w3.org/2000/svg" xmlns:xlink="http://www.w3.org/1999/xlink" x="0px" y="0px"
	 viewBox="0 0 209 173" style="enable-background:new 0 0 209 173;" xml:space="preserve">
<style type="text/css">
	.st0{fill:#231F20;}
</style>
<g id="Layer_2">
</g>
<g id="Layer_1">
	<title>Solti-logo</title>
	<g>
		<path d="M135.4,84.9c0-2.2-0.5-2.9-1.7-2.9c-0.7,0-1.4,0.4-2.1,1v13.4c0.5,0.6,1.3,1,2.1,1c1.2,0,1.7-0.8,1.7-3.1L135.4,84.9z
			 M135.4,84.9c0-2.2-0.5-2.9-1.7-2.9c-0.7,0-1.4,0.4-2.1,1v13.4c0.5,0.6,1.3,1,2.1,1c1.2,0,1.7-0.8,1.7-3.1L135.4,84.9z
			 M159.3,73.3c0,0-0.6-4.5-2.6-6.5c-2.5-2.6-5.3-2.6-6.6-2.8c-9.3-0.7-23.1-0.7-23.1-0.7h0c0,0-13.9,0-23.1,0.7
			c-1.3,0.2-4.1,0.2-6.6,2.8c-2,2-2.6,6.5-2.6,6.5c-0.4,3.5-0.6,7.1-0.7,10.7v5c0,3.6,0.2,7.1,0.7,10.7c0,0,0.6,4.5,2.6,6.5
			c2.5,2.6,5.8,2.5,7.3,2.8c5.3,0.5,22.5,0.7,22.5,0.7s13.9,0,23.2-0.7c1.3-0.2,4.1-0.2,6.6-2.8c2-2,2.6-6.5,2.6-6.5
			c0.4-3.5,0.6-7.1,0.7-10.7v-5C160,80.4,159.8,76.9,159.3,73.3z M108.4,100.8h-4.4V75.3h-4.7v-4.2h14v4.2h-4.9V100.8z M120.1,100.8
			v-2.4c-1.6,1.8-2.9,2.8-4.4,2.8c-1.3,0-2.2-0.6-2.6-1.7c-0.3-0.7-0.5-1.7-0.5-3.3V78.7h4.2v17.9c0.1,0.6,0.4,0.8,0.9,0.8
			c0.8,0,1.5-0.7,2.4-2V78.7h4.2v22.2H120.1z M139.6,85.3v8.9c0,2-0.2,3.5-0.4,4.4c-0.5,1.7-1.7,2.5-3.3,2.5c-1.4,0-2.9-0.8-4.2-2.5
			v2.2h-4V71.1h4v9.7c1.3-1.6,2.8-2.5,4.2-2.5c1.6,0,2.7,0.9,3.2,2.6C139.5,82.3,139.6,83.8,139.6,85.3L139.6,85.3z M154.5,93.7
			c0,0.9,0,1.7-0.1,2.6c-0.1,0.9-0.4,1.7-0.9,2.4c-1.1,1.6-2.8,2.4-4.9,2.4c-2.1,0-3.7-0.7-4.9-2.3c-0.9-1.1-1.4-2.8-1.4-5.1V86
			c0-2.4,0.5-4.2,1.4-5.3c1.1-1.5,2.9-2.4,4.8-2.3c1.9-0.1,3.6,0.8,4.7,2.3c0.8,1.1,1.3,2.8,1.3,5.2v4.5h-8v4c0,2,0.6,3.1,1.9,3.1
			c1,0,1.6-0.5,1.8-1.6c0-0.2,0-1.2,0-2.8h4.2L154.5,93.7z M150.2,84.7c0-2-0.5-2.7-1.9-2.7c-1.3,0-1.9,0.6-1.9,2.6v2.4h3.8V84.7z
			 M133.7,82c-0.7,0-1.4,0.4-2.1,1v13.4c0.5,0.6,1.3,1,2.1,1c1.2,0,1.7-0.8,1.7-3.1v-9.5C135.4,82.7,134.9,82,133.7,82z"/>
		<path d="M90.4,100.8h-4.2v-2.4c-1.6,1.8-2.9,2.8-4.4,2.8c-1.3,0-2.2-0.6-2.6-1.7c-0.3-0.7-0.5-1.7-0.5-3.3V78.4h4.2v18.2
			c0.1,0.6,0.4,0.8,0.9,0.8c0.8,0,1.5-0.7,2.4-2V78.4h4.2L90.4,100.8z"/>
		<path d="M75.6,85.8c0-2.4-0.5-4.2-1.3-5.3c-1.1-1.5-2.9-2.2-4.7-2.2c-2,0-3.5,0.6-4.7,2.2c-0.8,1.1-1.3,2.9-1.3,5.3v8
			c0,2.4,0.4,4,1.3,5.1c1.1,1.5,2.9,2.3,4.7,2.3c1.9,0,3.6-0.9,4.7-2.3c0.8-1.1,1.2-2.8,1.2-5.1L75.6,85.8z M71.4,94.2
			c0.2,2.2-0.5,3.3-1.8,3.3s-2-1.1-1.8-3.3v-8.9c-0.2-2.2,0.5-3.3,1.8-3.3s2,1,1.8,3.3V94.2z"/>
		<path d="M59,88.6v12.2h-4.4V88.6c0,0-4.6-14.9-5.5-17.7h4.7l3.1,11.7l3.1-11.7h4.6L59,88.6z"/>
	</g>
	<polygon class="st0" points="308.2,522 308.2,518 310.8,518 310.8,518.5 308.8,518.5 308.8,519.5 309.9,519.5 309.9,520.1 
		308.8,520.1 308.8,521.4 310.8,521.4 310.8,522 	"/>
	<path class="st0" d="M315.3,522l-0.3-1h-1.6l-0.3,1h-0.6l1.4-4h0.6l1.5,4H315.3z M314.5,519.6c-0.1-0.3-0.3-0.8-0.3-0.9
		c0,0.2-0.2,0.6-0.3,0.9l-0.3,0.9h1.2L314.5,519.6z"/>
	<path class="st0" d="M318.9,522c-0.5,0-1.1-0.2-1.4-0.6l0.4-0.4c0.3,0.3,0.6,0.5,1,0.5c0.6,0,0.8-0.2,0.8-0.6
		c0-0.3-0.2-0.5-0.9-0.7c-0.9-0.3-1.3-0.5-1.3-1.2c0-0.7,0.6-1.1,1.3-1.1c0.5,0,1,0.2,1.3,0.5l-0.4,0.4c-0.2-0.3-0.6-0.4-0.9-0.4
		c-0.5,0-0.7,0.2-0.7,0.5c0,0.3,0.2,0.4,0.9,0.6c0.8,0.2,1.3,0.5,1.3,1.2C320.4,521.5,319.9,522,318.9,522"/>
	<polygon class="st0" points="323.6,518.5 323.6,522 323,522 323,518.5 321.9,518.5 321.9,517.9 324.8,517.9 324.8,518.5 	"/>
	<polygon class="st0" points="331.6,522 331.6,520.2 329.7,520.2 329.7,522 329.1,522 329.1,518 329.7,518 329.7,519.6 331.6,519.6 
		331.6,518 332.2,518 332.2,522 	"/>
	<path class="st0" d="M336.9,522l-0.3-1h-1.6l-0.3,1H334l1.4-4h0.6l1.5,4H336.9z M336,519.6c-0.1-0.3-0.3-0.8-0.3-0.9
		c0,0.2-0.2,0.6-0.3,0.9l-0.3,0.9h1.2L336,519.6z"/>
	<path class="st0" d="M342.3,522v-2.1c0-0.2,0-0.6,0-0.7c0,0.1-0.2,0.4-0.3,0.6l-1,2.3l-1-2.3c-0.1-0.2-0.2-0.5-0.3-0.6
		c0,0.1,0,0.5,0,0.7v2.1h-0.6v-4h0.6l0.9,2.1c0.1,0.2,0.2,0.5,0.3,0.7c0.1-0.2,0.2-0.5,0.3-0.7l0.9-2.1h0.6v4L342.3,522z"/>
	<path class="st0" d="M346.5,520.5h-1.1v1.5h-0.6v-4h1.7c0.7,0,1.3,0.4,1.3,1.3C347.9,520,347.3,520.5,346.5,520.5 M346.6,518.5
		h-1.1v1.4h1.1c0.5,0,0.7-0.3,0.7-0.7c0-0.3-0.2-0.7-0.6-0.7C346.7,518.5,346.6,518.5,346.6,518.5"/>
	<polygon class="st0" points="351.1,518.5 351.1,522 350.5,522 350.5,518.5 349.3,518.5 349.3,517.9 352.3,517.9 352.3,518.5 	"/>
	<path class="st0" d="M355.4,522c-1,0-1.7-0.9-1.7-2.1s0.7-2.1,1.7-2.1c1,0,1.7,0.9,1.7,2.1S356.4,522,355.4,522 M355.4,518.5
		c-0.7,0-1.1,0.6-1.1,1.5s0.4,1.5,1.1,1.5c0.7,0,1.1-0.6,1.1-1.5S356.1,518.5,355.4,518.5"/>
	<path class="st0" d="M361.4,522l-1.6-2.5c-0.1-0.2-0.2-0.4-0.3-0.5c0,0.2,0,0.7,0,0.9v2.1h-0.6v-4h0.6l1.5,2.5
		c0.1,0.2,0.3,0.5,0.3,0.6c0-0.2,0-0.7,0-0.9V518h0.6v4L361.4,522z"/>
	<polygon class="st0" points="363.9,521.2 363.8,522.7 364.2,522.7 364.6,521.2 	"/>
	<path class="st0" d="M371.5,522l-1.6-2.5c-0.1-0.2-0.2-0.4-0.3-0.5c0,0.2,0,0.7,0,0.9v2.1H369v-4h0.6l1.5,2.5
		c0.1,0.2,0.3,0.5,0.3,0.6c0-0.2,0-0.7,0-0.9V518h0.6v4L371.5,522z"/>
	<polygon class="st0" points="374.1,522 374.1,518 376.6,518 376.6,518.5 374.7,518.5 374.7,519.5 375.8,519.5 375.8,520.1 
		374.7,520.1 374.7,521.4 376.7,521.4 376.7,522 	"/>
	<path class="st0" d="M381.8,522h-0.6l-0.6-2.6c0-0.1-0.1-0.4-0.1-0.5c0,0.1-0.1,0.4-0.1,0.5l-0.7,2.6h-0.6l-0.8-4h0.6l0.5,2.5
		c0,0.1,0.1,0.4,0.1,0.5c0-0.1,0.1-0.4,0.1-0.5l0.6-2.5h0.5l0.7,2.6c0,0.1,0.1,0.3,0.1,0.5c0-0.2,0.1-0.4,0.1-0.5l0.5-2.6h0.6
		L381.8,522z"/>
	<path class="st0" d="M388.7,520.4v1.6h-0.6v-1.6l-1.4-2.4h0.7l0.6,1.1c0.1,0.2,0.3,0.7,0.4,0.8c0.1-0.2,0.3-0.5,0.4-0.8l0.6-1.1
		h0.7L388.7,520.4z"/>
	<path class="st0" d="M393.1,522c-1,0-1.7-0.9-1.7-2.1s0.7-2.1,1.7-2.1c1,0,1.7,0.9,1.7,2.1S394.2,522,393.1,522 M393.1,518.5
		c-0.7,0-1.1,0.6-1.1,1.5s0.4,1.5,1.1,1.5c0.7,0,1.1-0.6,1.1-1.5S393.8,518.5,393.1,518.5"/>
	<path class="st0" d="M398.8,520.3l0.8,1.6H399l-0.8-1.6h-0.9v1.6h-0.6v-4h1.8c0.7,0,1.3,0.4,1.3,1.2
		C399.7,519.8,399.4,520.2,398.8,520.3 M398.4,518.5h-1.2v1.3h1.2c0.4,0,0.7-0.2,0.7-0.6C399.1,518.7,398.8,518.5,398.4,518.5"/>
	<path class="st0" d="M404.1,522l-1.1-2.1l-0.7,0.9v1.2h-0.6v-4h0.6v1.4c0,0.2,0,0.6,0,0.7c0.1-0.1,0.3-0.4,0.5-0.6l1.2-1.5h0.7
		l-1.2,1.5l1.4,2.6L404.1,522z"/>
	<path class="st0" d="M290.4,509.2h-6.6v-1.2h1.1c0.9,0,1.1-0.1,1.2-0.8c0.1-1.5,0.1-8.3,0-9.5c0-0.8-0.3-1-1-1h-1.3v-1.2
		c0.3,0,3,0,3.4,0c0.9,0,2.1,0,3,0c3.3,0,5.2,1.1,5.2,3.4c0,1.5-0.8,2.6-2.3,3.1c1.7,0.4,2.8,1.5,2.8,3.1
		C295.9,507.7,294.7,509.2,290.4,509.2 M288.5,501.8h1.3c2.3,0,3.1-0.6,3.1-2.7c0-1.5-0.8-2.5-2.9-2.5h-0.7c-0.6,0-0.7,0.3-0.8,0.8
		C288.5,498.1,288.5,499.9,288.5,501.8 M288.5,502.7c0,2,0,4,0,4.7c0,0.7,0.3,0.8,0.7,0.8h1.1c2.3,0,3-1,3-2.9
		c0-1.8-1.1-2.6-3.5-2.6L288.5,502.7z"/>
	<path class="st0" d="M299.1,508.1h1.1c0.9,0,1.1-0.1,1.1-0.8c0.1-1.5,0.1-8.3,0-9.5c0-0.8-0.3-1-1-1h-1.2v-1.2c0,0,2.2,0.1,3.4,0.1
		c1.2,0,3.1-0.1,3.4-0.1v1.2h-1.2c-0.7,0-1,0.2-1,1c-0.1,1.2-0.1,8,0,9.5c0,0.7,0.3,0.8,1.2,0.8h1.1v1.2c0,0-2.2,0-3.4,0
		c-1.2,0-3.4,0-3.4,0L299.1,508.1z"/>
	<path class="st0" d="M319,496.1c1.1,0.6,1.3,0.4,1.4-0.6h1.2c-0.2,1-0.4,3.4-0.3,5c-0.4,0-0.9,0-1.3,0c-0.4-2.2-1-4.1-4.1-4.1
		c-2.8,0-4,1.9-4,6.1c0,4.9,1.7,6.1,3.9,6.1c2,0,3.6-1,3.6-3.4c0-1.3-0.2-1.8-1.3-1.8h-0.8v-1.1c0,0,1.9,0.1,3,0.1s3-0.1,3-0.1v1.1
		h-0.7c-0.6,0-0.8,0.3-0.8,1c0,1,0,3.6,0.1,5c-0.4,0-0.9,0-1.3,0c-0.1-0.5-0.3-1.4-0.6-2.2c-0.7,1.4-2.4,2.5-4.4,2.5
		c-4,0-6.6-2-6.6-7.2c0-5.1,3-7.2,6.7-7.2C316.8,495.3,317.7,495.4,319,496.1"/>
	<path class="st0" d="M340.6,499.3c0,1.1-0.1,2.2-0.1,3s0,2.1,0.1,3.1h-1v-0.4c0-1.5-0.7-2.1-2.4-2.2h-1c0,1.7,0,3.3,0,4
		c0,0.7,0.3,1.2,1.2,1.2h1.4v1.2c0,0-2.3,0-3.6,0s-3.6,0-3.6,0v-1.2h1.1c0.9,0,1.1-0.5,1.2-1.2c0.1-1.5,0.1-7.9,0-9.1
		c0-0.8-0.3-1-1-1h-1.3v-1.2c0.3,0,3.1,0,3.4,0c0.4,0,2,0,4.7,0c0.8,0,3.2,0,4.1-0.1c-0.1,1.4-0.1,3.5-0.1,5h-1.1
		c0-2.9-0.9-3.6-3.2-3.6h-2.2c-0.6,0-0.9,0.4-0.9,0.9s0,2.3,0,4h0.8c1.7,0,2.6-0.4,2.6-2.1v-0.4H340.6z"/>
	<path class="st0" d="M353.5,496.8h-1.2c-0.7,0-1,0.2-1,1c-0.1,1.2-0.1,8,0,9.5c0,0.6,0.4,0.8,1,0.8h1.7c2.2,0,3.2-0.7,3.3-4.1h1.2
		c-0.1,1.3-0.2,4-0.2,5.3c-0.9-0.1-2.8-0.1-3.7-0.1H350c-0.8,0-2.8,0-3.3,0v-1.2h1.1c0.9,0,1.1-0.1,1.1-0.8c0.1-1.5,0.1-8.3,0-9.5
		c0-0.8-0.3-1-1-1h-1.2v-1.2c0,0,2.2,0.1,3.4,0.1c1.2,0,3-0.1,3.4-0.1L353.5,496.8z"/>
	<path class="st0" d="M360.7,502.4c0-4.6,2.8-7.2,6.6-7.2c4.4,0,6.6,2.6,6.6,7.1c0,4.6-2.8,7.2-6.6,7.2
		C363,509.6,360.7,507,360.7,502.4 M371.3,502.4c0-4.4-1.2-6.1-4-6.1c-2.7,0-3.9,2-3.9,6.1c0,4.3,1,6.1,3.9,6.1
		C370.2,508.5,371.3,506.5,371.3,502.4"/>
	<path class="st0" d="M388.2,509.4c-0.6-2.3-2-7.1-2.8-9.9c-0.9,2.8-2.4,7.6-3,9.9h-2c-0.7-2.7-2.4-8.5-3.2-11.2
		c-0.3-0.9-0.6-1.3-1.5-1.3H375v-1.2c0,0,2,0.1,3.2,0.1s2.9-0.1,3.2-0.1v1.2h-0.7c-0.9,0-1.1,0.4-0.9,1.3c0.5,2.1,1.7,6.3,2.4,8.7
		c0.8-2.4,2-6.7,2.5-8.8c0.2-0.9,0.1-1.3-0.9-1.3h-0.4v-1.2c0,0,1.8,0.1,2.8,0.1s2.5-0.1,2.8-0.1v1.2h-0.6c-0.8,0-1,0.4-0.8,1.2
		c0.6,2.1,1.7,6.4,2.5,8.8c0.7-2.4,1.9-6.5,2.3-8.5c0.2-1,0-1.5-1-1.5h-0.4v-1.2c0,0,1.7,0.1,2.6,0.1c0.9,0,2.2-0.1,2.5-0.1v1.2
		h-0.7c-0.9,0-1.3,0.4-1.7,1.6c-0.8,2.6-2.6,8.3-3.3,11L388.2,509.4z"/>
	<path class="st0" d="M406.8,499.3h1.1c0,1.1-0.1,1.6-0.1,3s0,2.1,0.1,3.2h-1.1v-0.2c0-1.7-0.7-2.4-2.6-2.4h-0.9
		c0,1.9,0,3.7,0.1,4.3c0,0.7,0.5,1,1,1h2.8c2.5,0,3.2-1.2,3.2-4h1.2c-0.1,1.5-0.2,3.6-0.2,5.3c-0.9-0.1-2.9-0.1-3.7-0.1H402
		c-0.9,0-3.3,0-3.3,0v-1.2h1.1c0.9,0,1.1-0.5,1.2-1.2c0.1-1.1,0.1-7.9,0-9.1c-0.1-0.8-0.3-1-1-1h-1.2v-1.2c0.3,0,3.1,0,3.4,0
		s2.5,0,5.3,0c0.8,0,3.2,0,4.1-0.1c-0.1,1.4-0.1,3.5-0.1,4.9h-1.1c0-2.9-0.7-3.6-3.1-3.6h-3c-0.7,0-0.9,0.4-0.9,0.9
		c0,0.6-0.1,2.2-0.1,4h1c1.7,0,2.5-0.5,2.5-2.3L406.8,499.3z"/>
	<path class="st0" d="M428.2,507c0,0.8-0.3,1.3-0.8,1.3c-0.7,0-1.1-0.4-1.4-2.8c-0.2-1.4-1-2.3-2.5-2.6c1.8-0.2,3.2-1.6,3.2-3.5
		c0-2.4-1.9-3.6-5.2-3.6c-0.8,0-2.4,0-3.3,0c-0.4,0-3.1,0-3.4,0v1.2h1.3c0.7,0,1,0.2,1,1c0.1,1.2,0.1,8,0,9.1c0,0.9-0.5,1.2-1.3,1.2
		h-0.9v1.2c0,0,2.1,0,3.4,0c1,0,3.4,0,3.4,0v-1.2h-0.9c-0.7,0-1.1-0.3-1.1-1.2c0-0.5-0.1-2.1-0.1-3.8h1.4c1.3,0,2.6,0.4,2.7,2.6
		c0.1,2.5,1.1,4.2,3.7,4.1c1.3-0.1,2-1,2-2.6C428.9,507.1,428.5,507.1,428.2,507 M420.9,502.2h-1.6c0-2,0-4,0.1-4.7
		c0-0.5,0.2-0.8,0.8-0.8h1c2.1,0,2.9,0.7,2.9,2.7S423.3,502.2,420.9,502.2"/>
	<path class="st0" d="M357.2,459.2c0,0.4-0.3,0.7-0.7,0.7c-0.4,0-0.7-0.3-0.7-0.7c0-0.4,0.3-0.7,0.7-0.7
		C356.9,458.4,357.2,458.8,357.2,459.2L357.2,459.2"/>
	<path class="st0" d="M354.4,459.5c0.2,0.3,0.1,0.8-0.3,1c-0.3,0.2-0.8,0.1-1-0.3c-0.2-0.3-0.1-0.8,0.3-1
		C353.7,459.1,354.2,459.2,354.4,459.5C354.4,459.5,354.4,459.5,354.4,459.5"/>
	<path class="st0" d="M352.1,461.3c0.3,0.2,0.5,0.6,0.3,1c-0.2,0.3-0.6,0.5-1,0.3c-0.3-0.2-0.5-0.6-0.3-1
		C351.3,461.2,351.7,461.1,352.1,461.3C352.1,461.3,352.1,461.3,352.1,461.3"/>
	<path class="st0" d="M351,463.9c0.4,0,0.7,0.3,0.7,0.7s-0.3,0.7-0.7,0.7s-0.7-0.3-0.7-0.7S350.6,463.9,351,463.9L351,463.9"/>
	<path class="st0" d="M351.4,466.8c0.3-0.2,0.8-0.1,1,0.3c0.2,0.3,0.1,0.8-0.3,1c-0.3,0.2-0.8,0.1-1-0.3
		C350.9,467.4,351,467,351.4,466.8C351.4,466.8,351.4,466.8,351.4,466.8"/>
	<path class="st0" d="M353.1,469.1c0.2-0.3,0.6-0.5,1-0.3c0.3,0.2,0.5,0.6,0.3,1c-0.2,0.3-0.6,0.5-1,0.3
		C353,469.8,352.9,469.4,353.1,469.1C353.1,469.1,353.1,469.1,353.1,469.1"/>
	<path class="st0" d="M355.8,470.1c0-0.4,0.3-0.7,0.7-0.7s0.7,0.3,0.7,0.7c0,0.4-0.3,0.7-0.7,0.7S355.8,470.5,355.8,470.1
		L355.8,470.1"/>
	<path class="st0" d="M358.6,469.8c-0.2-0.3-0.1-0.8,0.3-1c0.3-0.2,0.8-0.1,1,0.3c0.2,0.3,0.1,0.8-0.3,1
		C359.2,470.2,358.8,470.1,358.6,469.8C358.6,469.8,358.6,469.8,358.6,469.8"/>
	<path class="st0" d="M360.9,468c-0.3-0.2-0.5-0.6-0.3-1s0.6-0.5,1-0.3c0.3,0.2,0.5,0.6,0.3,1C361.7,468.1,361.2,468.2,360.9,468
		C360.9,468,360.9,468,360.9,468"/>
	<path class="st0" d="M362,465.4c-0.4,0-0.7-0.3-0.7-0.7s0.3-0.7,0.7-0.7s0.7,0.3,0.7,0.7S362.4,465.4,362,465.4L362,465.4"/>
	<path class="st0" d="M361.6,462.5c-0.3,0.2-0.8,0.1-1-0.3c-0.2-0.3-0.1-0.8,0.3-1c0.3-0.2,0.8-0.1,1,0.3c0,0,0,0,0,0
		C362.1,461.9,361.9,462.3,361.6,462.5C361.6,462.5,361.6,462.5,361.6,462.5"/>
	<path class="st0" d="M359.8,460.3c-0.2,0.3-0.6,0.5-1,0.3c-0.3-0.2-0.5-0.6-0.3-1c0.2-0.3,0.6-0.5,1-0.3
		C359.9,459.5,360,459.9,359.8,460.3C359.8,460.3,359.8,460.3,359.8,460.3"/>
	<path class="st0" d="M358.6,450.4c-0.1-0.4-0.5-1-1.1-1.7c-0.6-0.6-0.9-0.8-1-0.8c0,0-0.4,0.1-1,0.8c-0.6,0.7-1,1.3-1.1,1.7
		c-0.1,0.4,0.2,2.8,1,4.9c0.3-0.4,0.7-0.8,1-0.8c0.4,0,0.7,0.4,1,0.8C358.4,453.2,358.7,450.8,358.6,450.4"/>
	<path class="st0" d="M349.8,451.9c-0.3-0.3-1-0.5-1.9-0.7c-0.9-0.2-1.2-0.1-1.2-0.1c0,0-0.2,0.3-0.3,1.2c-0.1,0.9-0.1,1.6,0.1,2
		c0.2,0.4,1.8,2.1,3.7,3.3c0-0.5,0.1-1,0.4-1.3s0.9-0.1,1.3,0C351.3,454.3,350.1,452.2,349.8,451.9"/>
	<path class="st0" d="M366.5,454.4c0.2-0.4,0.2-1.1,0.1-2c-0.1-0.9-0.3-1.2-0.3-1.2c0,0-0.4-0.1-1.2,0c-0.9,0.2-1.6,0.4-1.9,0.7
		s-1.5,2.4-2,4.5c0.5-0.1,1-0.3,1.3,0c0.3,0.2,0.3,0.8,0.4,1.3C364.7,456.5,366.4,454.8,366.5,454.4"/>
	<path class="st0" d="M343.6,458.3c-0.4,0-1.1,0.1-1.9,0.5c-0.8,0.4-1,0.7-1,0.7c0,0,0,0.4,0.4,1.2c0.4,0.8,0.9,1.4,1.2,1.6
		s2.7,0.7,4.9,0.5c-0.3-0.4-0.6-0.9-0.5-1.2c0.1-0.4,0.7-0.6,1.1-0.7C346.2,459.3,344,458.3,343.6,458.3"/>
	<path class="st0" d="M342.3,467.1c-0.4,0.2-0.8,0.7-1.2,1.6c-0.4,0.8-0.4,1.1-0.4,1.2c0,0,0.3,0.3,1,0.7c0.8,0.4,1.5,0.6,1.9,0.5
		s2.6-1.1,4.3-2.5c-0.4-0.2-1-0.4-1.1-0.7c-0.1-0.4,0.2-0.8,0.5-1.2C345.1,466.4,342.7,466.9,342.3,467.1"/>
	<path class="st0" d="M346.5,474.9c-0.2,0.4-0.2,1.1-0.1,2c0.1,0.9,0.3,1.2,0.3,1.2c0,0,0.4,0.1,1.2,0c0.9-0.2,1.6-0.4,1.9-0.7
		s1.5-2.4,2-4.5c-0.5,0.1-1,0.3-1.3,0c-0.3-0.2-0.3-0.8-0.4-1.3C348.3,472.8,346.6,474.6,346.5,474.9"/>
	<path class="st0" d="M354.4,478.9c0.1,0.4,0.5,1,1.1,1.7c0.6,0.6,0.9,0.8,1,0.8c0,0,0.4-0.1,1-0.8c0.6-0.7,1-1.3,1.1-1.7
		c0.1-0.4-0.2-2.8-1-4.9c-0.3,0.4-0.7,0.8-1,0.8s-0.7-0.4-1-0.8C354.6,476.1,354.3,478.5,354.4,478.9"/>
	<path class="st0" d="M363.2,477.4c0.3,0.3,1,0.5,1.9,0.7c0.9,0.2,1.2,0.1,1.2,0.1c0,0,0.2-0.3,0.3-1.2c0.1-0.9,0.1-1.6-0.1-2
		c-0.2-0.4-1.8-2.1-3.7-3.3c0,0.5-0.1,1-0.4,1.3s-0.9,0.1-1.3,0C361.7,475,362.9,477.1,363.2,477.4"/>
	<path class="st0" d="M369.4,471c0.4,0,1.1-0.1,1.9-0.5c0.8-0.4,1-0.7,1-0.7c0,0,0-0.4-0.4-1.2c-0.4-0.8-0.9-1.4-1.2-1.6
		c-0.4-0.2-2.7-0.7-4.9-0.5c0.3,0.4,0.6,0.9,0.5,1.2c-0.1,0.4-0.7,0.6-1.1,0.7C366.8,470,369,471,369.4,471"/>
	<path class="st0" d="M370.6,462.2c0.4-0.2,0.8-0.7,1.2-1.6c0.4-0.8,0.4-1.1,0.4-1.2c0,0-0.3-0.3-1-0.7c-0.8-0.4-1.5-0.6-1.9-0.5
		s-2.6,1.1-4.3,2.5c0.4,0.2,1,0.4,1.1,0.7c0.1,0.4-0.2,0.8-0.5,1.2C367.9,462.9,370.3,462.4,370.6,462.2"/>
	<path class="st0" d="M352.5,449.3c-0.8-0.4-1.1-0.4-1.2-0.4c0,0-0.3,0.3-0.7,1c-0.2,0.3-0.3,0.7-0.4,1c0.1,0.1,0.6,0.3,0.9,0.8
		c0.2,0.4,0.4,0.8,0.6,1.2c0.4,0.9,0.8,2.1,0.9,2.8c0.1-0.3,0.3-0.6,0.6-0.7c0.3-0.1,0.6,0.1,0.9,0.2c-0.2-0.6-0.6-1.8-0.9-2.8
		c-0.1-0.4-0.2-0.9-0.2-1.4c0-0.6,0.2-1.1,0.3-1.2C353.2,449.6,352.8,449.4,352.5,449.3"/>
	<path class="st0" d="M344.2,454.5c-0.9,0.1-1.2,0.3-1.2,0.3c0,0-0.1,0.4,0.1,1.2c0.1,0.4,0.2,0.7,0.3,1.1c0.1,0,0.7-0.1,1.2,0.1
		c0.4,0.2,0.8,0.4,1.2,0.6c0.8,0.5,1.9,1.3,2.4,1.7c-0.1-0.3-0.1-0.7,0.1-0.9c0.2-0.2,0.5-0.3,0.9-0.3c-0.6-0.4-1.6-1.1-2.3-1.8
		c-0.4-0.3-0.7-0.6-1-1c-0.4-0.4-0.5-1-0.5-1.1C345,454.5,344.6,454.5,344.2,454.5"/>
	<path class="st0" d="M340.6,463.7c-0.6,0.6-0.8,0.9-0.8,1c0,0,0.1,0.4,0.8,1c0.3,0.3,0.6,0.5,0.9,0.7c0.1-0.1,0.5-0.5,1.1-0.6
		c0.4-0.1,0.9-0.2,1.4-0.2c1-0.1,2.3-0.1,2.9,0c-0.3-0.2-0.5-0.5-0.5-0.8s0.2-0.5,0.5-0.8c-0.7,0-1.9,0-2.9,0
		c-0.5,0-0.9-0.1-1.4-0.2c-0.6-0.1-1-0.6-1.1-0.6C341.2,463.2,340.9,463.4,340.6,463.7"/>
	<path class="st0" d="M343.1,473.2c-0.2,0.9-0.1,1.2-0.1,1.2c0,0,0.3,0.2,1.2,0.3c0.4,0,0.7,0.1,1.1,0.1c0-0.1,0.1-0.7,0.5-1.1
		c0.3-0.3,0.6-0.7,1-1c0.8-0.6,1.8-1.4,2.3-1.8c-0.4,0-0.7-0.1-0.9-0.3c-0.2-0.2-0.1-0.6-0.1-0.9c-0.5,0.4-1.6,1.2-2.4,1.7
		c-0.4,0.2-0.8,0.4-1.2,0.6c-0.5,0.2-1.1,0.1-1.2,0.1C343.2,472.5,343.1,472.8,343.1,473.2"/>
	<path class="st0" d="M350.6,479.4c0.4,0.8,0.7,1,0.7,1c0,0,0.4,0,1.2-0.4c0.3-0.2,0.6-0.4,0.9-0.6c0-0.1-0.3-0.6-0.3-1.2
		c0-0.5,0.1-0.9,0.2-1.4c0.2-1,0.6-2.2,0.9-2.8c-0.3,0.2-0.6,0.3-0.9,0.2c-0.3-0.1-0.4-0.4-0.6-0.7c-0.2,0.6-0.6,1.9-0.9,2.8
		c-0.2,0.4-0.4,0.8-0.6,1.2c-0.3,0.5-0.8,0.8-0.9,0.8C350.4,478.8,350.5,479.1,350.6,479.4"/>
	<path class="st0" d="M360.5,480.1c0.8,0.4,1.1,0.4,1.2,0.4c0,0,0.3-0.3,0.7-1c0.2-0.3,0.3-0.7,0.4-1c-0.1-0.1-0.6-0.3-0.9-0.8
		c-0.2-0.4-0.4-0.8-0.6-1.2c-0.4-0.9-0.8-2.1-0.9-2.8c-0.1,0.3-0.3,0.6-0.6,0.7s-0.6-0.1-0.9-0.2c0.2,0.6,0.6,1.8,0.9,2.8
		c0.1,0.4,0.2,0.9,0.2,1.4c0,0.6-0.2,1.1-0.3,1.2C359.8,479.7,360.1,479.9,360.5,480.1"/>
	<path class="st0" d="M368.8,474.8c0.9-0.1,1.2-0.3,1.2-0.3c0,0,0.1-0.4-0.1-1.2c-0.1-0.4-0.2-0.7-0.3-1.1c-0.1,0-0.7,0.1-1.2-0.1
		c-0.4-0.2-0.8-0.4-1.2-0.6c-0.8-0.5-1.9-1.3-2.4-1.7c0.1,0.3,0.1,0.7-0.1,0.9c-0.2,0.2-0.5,0.3-0.9,0.3c0.6,0.4,1.6,1.1,2.3,1.8
		c0.4,0.3,0.7,0.6,1,1c0.4,0.4,0.5,1,0.5,1.1C368,474.8,368.4,474.8,368.8,474.8"/>
	<path class="st0" d="M372.4,465.6c0.6-0.6,0.8-0.9,0.8-1c0,0-0.1-0.4-0.8-1c-0.3-0.3-0.6-0.5-0.9-0.7c-0.1,0.1-0.5,0.5-1.1,0.6
		c-0.4,0.1-0.9,0.2-1.4,0.2c-1,0.1-2.3,0.1-2.9,0c0.3,0.2,0.5,0.5,0.5,0.8s-0.2,0.5-0.5,0.8c0.7,0,1.9,0,2.9,0
		c0.5,0,0.9,0.1,1.4,0.2c0.6,0.1,1,0.6,1.1,0.6C371.8,466.1,372.1,465.9,372.4,465.6"/>
	<path class="st0" d="M369.9,456.1c0.2-0.9,0.1-1.2,0.1-1.2c0,0-0.3-0.2-1.2-0.3c-0.4,0-0.7-0.1-1.1-0.1c0,0.1-0.1,0.7-0.5,1.1
		c-0.3,0.3-0.6,0.7-1,1c-0.8,0.6-1.8,1.4-2.3,1.8c0.3,0,0.7,0.1,0.9,0.3c0.2,0.2,0.1,0.6,0.1,0.9c0.5-0.4,1.6-1.2,2.4-1.7
		c0.4-0.2,0.8-0.4,1.2-0.6c0.5-0.2,1.1-0.1,1.2-0.1C369.8,456.8,369.8,456.5,369.9,456.1"/>
	<path class="st0" d="M362.3,449.9c-0.4-0.8-0.7-1-0.7-1c0,0-0.4,0-1.2,0.4c-0.3,0.2-0.6,0.4-0.9,0.6c0,0.1,0.3,0.6,0.3,1.2
		c0,0.5-0.1,0.9-0.2,1.4c-0.2,1-0.6,2.2-0.9,2.8c0.3-0.2,0.6-0.3,0.9-0.2c0.3,0.1,0.4,0.4,0.6,0.7c0.2-0.6,0.6-1.9,0.9-2.8
		c0.2-0.4,0.4-0.8,0.6-1.2c0.3-0.5,0.8-0.8,0.9-0.8C362.6,450.5,362.5,450.2,362.3,449.9"/>
	<path class="st0" d="M357.2,456.7c0,0.4-0.3,0.7-0.7,0.7s-0.7-0.3-0.7-0.7s0.3-0.7,0.7-0.7S357.2,456.3,357.2,456.7
		C357.2,456.7,357.2,456.7,357.2,456.7"/>
	<path class="st0" d="M354.7,456.8c0.1,0.4-0.1,0.8-0.5,0.9c-0.4,0.1-0.8-0.1-0.9-0.5c-0.1-0.4,0.1-0.8,0.5-0.9
		C354.2,456.2,354.6,456.4,354.7,456.8C354.7,456.8,354.7,456.8,354.7,456.8"/>
	<path class="st0" d="M352.4,457.8c0.2,0.3,0.2,0.8-0.2,1c-0.3,0.2-0.8,0.2-1-0.2c-0.2-0.3-0.2-0.8,0.2-1
		C351.7,457.4,352.1,457.4,352.4,457.8"/>
	<path class="st0" d="M350.4,459.4c0.3,0.2,0.4,0.7,0.2,1c-0.2,0.3-0.7,0.4-1,0.2c-0.3-0.2-0.4-0.7-0.2-1
		C349.7,459.2,350.1,459.1,350.4,459.4"/>
	<path class="st0" d="M349.1,461.5c0.4,0.1,0.6,0.5,0.5,0.9c-0.1,0.4-0.5,0.6-0.9,0.5c-0.4-0.1-0.6-0.5-0.5-0.9
		C348.3,461.6,348.7,461.4,349.1,461.5C349.1,461.5,349.1,461.5,349.1,461.5"/>
	<path class="st0" d="M348.5,463.9c0.4,0,0.7,0.3,0.7,0.7s-0.3,0.7-0.7,0.7s-0.7-0.3-0.7-0.7S348.1,463.9,348.5,463.9L348.5,463.9"
		/>
	<path class="st0" d="M348.7,466.4c0.4-0.1,0.8,0.1,0.9,0.5c0.1,0.4-0.1,0.8-0.5,0.9c-0.4,0.1-0.8-0.1-0.9-0.5
		C348.1,467,348.3,466.6,348.7,466.4C348.7,466.4,348.7,466.4,348.7,466.4"/>
	<path class="st0" d="M349.6,468.8c0.3-0.2,0.8-0.2,1,0.2c0.2,0.3,0.2,0.8-0.2,1c-0.3,0.2-0.8,0.2-1-0.2
		C349.2,469.5,349.3,469,349.6,468.8"/>
	<path class="st0" d="M351.2,470.7c0.2-0.3,0.7-0.4,1-0.2c0.3,0.2,0.4,0.7,0.2,1c-0.2,0.3-0.7,0.4-1,0.2
		C351,471.5,351,471,351.2,470.7"/>
	<path class="st0" d="M353.3,472c0.1-0.4,0.5-0.6,0.9-0.5c0.4,0.1,0.6,0.5,0.5,0.9c-0.1,0.4-0.5,0.6-0.9,0.5
		C353.4,472.8,353.2,472.4,353.3,472C353.3,472,353.3,472,353.3,472"/>
	<path class="st0" d="M355.8,472.7c0-0.4,0.3-0.7,0.7-0.7s0.7,0.3,0.7,0.7s-0.3,0.7-0.7,0.7S355.8,473,355.8,472.7L355.8,472.7"/>
	<path class="st0" d="M358.3,472.5c-0.1-0.4,0.1-0.8,0.5-0.9c0.4-0.1,0.8,0.1,0.9,0.5c0.1,0.4-0.1,0.8-0.5,0.9
		C358.8,473.1,358.4,472.9,358.3,472.5C358.3,472.5,358.3,472.5,358.3,472.5"/>
	<path class="st0" d="M360.6,471.5c-0.2-0.3-0.2-0.8,0.2-1c0.3-0.2,0.8-0.2,1,0.2c0.2,0.3,0.2,0.8-0.2,1
		C361.3,471.9,360.8,471.9,360.6,471.5"/>
	<path class="st0" d="M362.5,469.9c-0.3-0.2-0.4-0.7-0.2-1s0.7-0.4,1-0.2c0.3,0.2,0.4,0.7,0.2,1
		C363.3,470.1,362.9,470.2,362.5,469.9"/>
	<path class="st0" d="M363.9,467.8c-0.4-0.1-0.6-0.5-0.5-0.9s0.5-0.6,0.9-0.5c0.4,0.1,0.6,0.5,0.5,0.9
		C364.7,467.7,364.2,467.9,363.9,467.8C363.9,467.8,363.9,467.8,363.9,467.8"/>
	<path class="st0" d="M364.5,465.4c-0.4,0-0.7-0.3-0.7-0.7s0.3-0.7,0.7-0.7c0.4,0,0.7,0.3,0.7,0.7S364.9,465.4,364.5,465.4
		L364.5,465.4"/>
	<path class="st0" d="M364.3,462.9c-0.4,0.1-0.8-0.1-0.9-0.5s0.1-0.8,0.5-0.9c0.4-0.1,0.8,0.1,0.9,0.5
		C364.9,462.3,364.7,462.7,364.3,462.9C364.3,462.9,364.3,462.9,364.3,462.9"/>
	<path class="st0" d="M363.4,460.5c-0.3,0.2-0.8,0.2-1-0.2c-0.2-0.3-0.2-0.8,0.2-1c0.3-0.2,0.8-0.2,1,0.2
		C363.8,459.8,363.7,460.3,363.4,460.5"/>
	<path class="st0" d="M361.8,458.6c-0.2,0.3-0.7,0.4-1,0.2c-0.3-0.2-0.4-0.7-0.2-1c0.2-0.3,0.7-0.4,1-0.2
		C361.9,457.8,362,458.3,361.8,458.6"/>
	<path class="st0" d="M359.6,457.3c-0.1,0.4-0.5,0.6-0.9,0.5c-0.4-0.1-0.6-0.5-0.5-0.9c0.1-0.4,0.5-0.6,0.9-0.5
		C359.6,456.5,359.8,456.9,359.6,457.3C359.6,457.3,359.6,457.3,359.6,457.3"/>
	<path class="st0" d="M585.4,510.4c-0.1,0-0.2,0.1-0.3,0.2c-0.2,0.3-0.3,0.7-0.3,1v1.4h1.3v0.8h-1.3v3.3h1v0.8h-2.7v-0.8h0.8v-3.3
		H583v-0.8h0.9v-1.2c-0.1-0.6,0.1-1.3,0.6-1.8c0.3-0.3,0.8-0.5,1.2-0.5c0.6,0,1,0.3,1,0.7c0,0.3-0.2,0.6-0.5,0.6c0,0,0,0-0.1,0
		C585.7,510.9,585.5,510.7,585.4,510.4z"/>
	<path class="st0" d="M590.7,513.7c0,0.4-0.3,0.6-0.6,0.7c-0.3,0-0.5-0.2-0.7-0.4c-0.5,0.2-0.8,0.6-1,1v2.2h0.9v0.8h-2.6v-0.8h0.8
		v-3.3h-0.8v-0.8h1.7v1.1c0.4-0.7,1-1.2,1.5-1.2c0.4,0,0.8,0.2,0.8,0.6C590.7,513.6,590.7,513.7,590.7,513.7z"/>
	<path class="st0" d="M591.7,515.9c0.1,0.9,0.9,1.5,1.8,1.4c0.6,0,1.2-0.2,1.8-0.6l-0.1,0.9c-0.6,0.3-1.2,0.5-1.8,0.5
		c-1.4,0.1-2.6-0.9-2.7-2.3c0-0.1,0-0.2,0-0.3c-0.1-1.3,1-2.5,2.3-2.6c0,0,0.1,0,0.1,0c1.2-0.1,2.3,0.9,2.3,2.1c0,0.1,0,0.2,0,0.3
		c0,0.2,0,0.4,0,0.6L591.7,515.9z M591.7,515.1h2.8c0-0.7-0.5-1.3-1.2-1.3c0,0-0.1,0-0.1,0C592.4,513.8,591.8,514.4,591.7,515.1z"/>
	<path class="st0" d="M597,515.9c0.1,0.9,0.9,1.5,1.8,1.4c0.6,0,1.2-0.2,1.8-0.6l-0.1,0.9c-0.6,0.3-1.2,0.5-1.8,0.5
		c-1.4,0.1-2.6-0.9-2.7-2.3c0-0.1,0-0.2,0-0.3c-0.1-1.3,1-2.5,2.3-2.6c0,0,0.1,0,0.1,0c1.2-0.1,2.3,0.9,2.3,2.1c0,0.1,0,0.2,0,0.3
		c0,0.2,0,0.4,0,0.6L597,515.9z M597,515.1h2.8c0-0.7-0.5-1.3-1.2-1.3c0,0-0.1,0-0.1,0C597.6,513.8,597,514.4,597,515.1z"/>
	<path class="st0" d="M604.7,517.5c-0.1-0.2-0.2-0.5-0.1-0.7v-2.8h-0.9v-0.8h0.9v-1.1l1-0.4v1.5h1.5v0.8h-1.5v2.7
		c0,0.1,0,0.3,0.1,0.4c0.1,0.2,0.3,0.3,0.6,0.2c0.3,0,0.6-0.1,0.9-0.3l-0.1,0.9c-0.3,0.2-0.7,0.3-1.1,0.3
		C605.4,518.2,604.9,517.9,604.7,517.5z"/>
	<path class="st0" d="M607.2,515.6c0-1.4,1.1-2.6,2.6-2.6c1.4,0,2.6,1.1,2.6,2.6c0,1.4-1.1,2.6-2.6,2.6c0,0,0,0,0,0
		c-1.4,0-2.5-1-2.6-2.4C607.2,515.7,607.2,515.6,607.2,515.6z M611.3,515.6c-0.1-0.9-0.8-1.5-1.7-1.4c-0.9,0.1-1.5,0.8-1.4,1.7
		c0.1,0.8,0.8,1.4,1.6,1.4c0.9,0,1.6-0.7,1.6-1.6C611.3,515.6,611.3,515.6,611.3,515.6L611.3,515.6z"/>
	<path class="st0" d="M615,520.2c-0.2-0.2-0.3-0.5-0.3-0.7c0-0.4,0.3-0.7,0.7-0.8c0,0,0,0,0,0c0.4,0,0.7,0.3,0.7,0.7c0,0,0,0,0,0
		c0,0.1,0,0.2-0.1,0.3c0.3,0.1,0.6,0.2,0.9,0.2c0.5,0,0.9-0.1,1.3-0.5c0.3-0.4,0.6-0.9,0.6-1.4l0.2-1.1c-0.4,0.7-1.2,1.1-1.9,1.1
		c-1.3,0-2.1-0.9-2.1-2.3c0-1.8,1.3-3.4,3-3.4c0.8,0,1.5,0.5,1.8,1.3l0.4-1.2h1.1l-1.4,5.8c-0.1,0.7-0.4,1.3-0.8,1.8
		c-0.6,0.5-1.3,0.8-2.1,0.7C616.3,520.9,615.6,520.6,615,520.2z M619.6,514.8c0-0.7-0.5-1.3-1.2-1.4c-0.1,0-0.1,0-0.2,0
		c-1.1,0-1.9,1.1-1.9,2.3c-0.1,0.7,0.5,1.3,1.2,1.4c0.1,0,0.1,0,0.2,0C618.7,517.2,619.6,516.1,619.6,514.8L619.6,514.8z"/>
	<path class="st0" d="M622.8,513.5h-1.1l0.2-1h2l-0.4,1.6c0.7-1.1,1.4-1.7,2-1.7c0.4,0,0.8,0.3,0.9,0.7c0,0.4-0.3,0.8-0.7,0.9
		c0,0-0.1,0-0.1,0c-0.4,0-0.7-0.2-0.8-0.6c-0.8,0.5-1.3,1.3-1.5,2.2l-0.6,2.5h-1.1L622.8,513.5z"/>
	<path class="st0" d="M626.2,515.8c0-1.8,1.4-3.3,3.2-3.4c1.3-0.1,2.5,1,2.6,2.3c0,0.1,0,0.1,0,0.2c0,1.8-1.4,3.3-3.2,3.4
		c-1.3,0.1-2.5-1-2.6-2.3C626.2,516,626.2,515.9,626.2,515.8z M630.8,515c0.1-0.8-0.5-1.5-1.3-1.5c-0.1,0-0.1,0-0.2,0
		c-1.1,0-2,1.1-2,2.4c-0.1,0.8,0.5,1.5,1.3,1.5c0.1,0,0.1,0,0.2,0C629.9,517.4,630.8,516.3,630.8,515L630.8,515z"/>
	<path class="st0" d="M633.1,513.5h-1l0.2-1h1.8l0.2,4.3l2-3.7h0.7l0.8,3.8c0.8-1.2,1.4-2.3,1.5-3c-0.3-0.1-0.6-0.4-0.6-0.7
		c0-0.4,0.3-0.8,0.7-0.8c0,0,0,0,0,0c0.5,0,0.9,0.4,0.9,0.9c0,0,0,0.1,0,0.1c0,1-0.8,2.6-2.5,5h-0.7l-0.7-3.5l-2.1,3.4h-0.8
		L633.1,513.5z"/>
	<path class="st0" d="M618.1,478.1c-0.3-0.9-0.8-1.8-1.5-2.4c1.7,0.5,3.6,0.5,5.3,0.1c2.5-0.6,5.1-3.4,4.5-6.2
		c-0.6-2.8-4.2-3.3-7.5-2.2l-0.3,0.1l0.1-0.2c2.4-3.3,1.3-8.3-1-9.7s-6.4,2.4-7.7,5.4c-0.2,0.5-0.3,0.9-0.4,1.4
		c-1.5-2-4.5-3.1-6.3-2.5c-2.2,0.8-2.1,5.1-0.8,7.4c0.6,1.1,1.3,2,2.2,2.9c-0.4,0.1-0.8,0.2-1.2,0.3c-2.9,1-4.4,3.4-3.9,5.6
		c0.4,2.3,4.5,2.5,6.7,2c1.3-0.4,2.5-1.2,3.3-2.4c-0.3,1.7,0.1,3.4,0.9,4.9c1.6,3,4.4,3.9,5.8,2.9
		C617.6,484.7,619.2,481.8,618.1,478.1"/>
	<path class="st0" d="M641.5,476.2c2.1,0.4,1.7,2,2.4,3.9c0.2,0.4,0.2,1.5,0.6,1.7c0.6,0.2,1.7-0.2,2.1-0.3c1.8-0.2,2.7,0,4.5,0.7
		c0.4,0.2,0.8,0.3,1.2,0.5c0.4,0.3,0.1,1,0.2,1.5c0.1,0.4,0.6,0.8,0.5,1.3c-0.6,0.3-1.1,0.4-1.6,0.8c-0.7,0.2-1.4,0.3-2.1,0.4
		c-1.1,0.2-2,0.5-3.4,0.6c0.3,2.2,0.5,3.8,0.6,6.1c0.3,3.1-1.6,8.3-2.7,10.7c-0.8,1.7-2.4,5.1-4.9,4.3c-1.8-0.6-3.3-2.1-2.6-4.2
		l1-2.1c0.9-2.3,1.6-4.8,2-7.2c0.2-0.8,0.2-1.6,0.2-2.4c0-1.1,0-2.2,0-3.3c0-0.3,0-1-0.1-1.2c-0.9-0.2-1.9-0.2-2.9,0l-0.9-0.3
		c-0.3,0-1.2-0.6-0.9-0.9c-0.1-0.1-0.3-0.1-0.4-0.3c-0.1-0.2-0.1-0.5,0-0.7l-0.5-0.3l0.1-0.4c1.3-0.7,2.5-1.4,3.9-2
		c0.3-0.1,1.4-0.2,1.3-0.6c0.3-1.2-0.5-3.9,0.2-5C639.6,476.6,640.8,476.5,641.5,476.2z"/>
	<path class="st0" d="M557.7,481.6c2.1-0.1,5.3,0.3,6.4,1.4c0.5,0.5,1.1,1.4,0.6,2.4c-0.6,0.9-1.7,0.5-2.8,0.7
		c-2.3,0.4-4,0.2-5.4,1.7c-0.2,0.3-0.6,0.6-0.5,1.2c0.3,1.2,1.9,1.8,2.8,2.4c2,1.5,5.2,4.2,5.1,7.5c0,1.4-0.1,2.4-0.8,3.4
		c-0.6,0.6-1.3,1.2-2,1.7c-0.8,0.6-1.5,1.3-2.4,1.9c-1.7,1.1-5.6,2.1-7.9,1.9c-1.3-0.1-4.2-0.3-4.6-1c0.3-0.5,0.3-1.1,0-1.7
		l-0.5-0.1c-0.9-5.2,9.7-3.5,11-7.2c-2.7-1.8-5.9-2.9-7.7-5.7c-0.8-1.3-1-2.9-0.7-4.4c0.2-0.6,0.5-1.1,0.9-1.6
		c0.5-0.8,1.1-1.6,1.9-2.2c1.4-1,3-1.7,4.7-2.1L557.7,481.6z"/>
	<path class="st0" d="M596.2,481.7l1.5,0.1c0.7,0.2,2.2,1,2.5,1.7c0.3,0.6,0.2,1,0.4,1.6c0.3,0.6,0.6,1.3,0.8,2
		c-1.7,2.6-5.2,0.2-6.8,2.5c-1.4,2-1,6.5-1.3,9.6c-0.2,1.5,0.3,3.2-0.1,4.5c-0.3,0.9-2,1.4-3.1,0.9c-0.9-0.6-1.5-3.4-2-4.5
		c-0.5-1.2-0.9-2.4-1-3.7c0-0.6,0-1.2-0.1-1.8c-0.9-5,1.3-9.2,4.2-11.2c1-0.7,2.3-1,3.6-1.4L596.2,481.7z"/>
	<path class="st0" d="M620.5,487.2c1.9,0,2.5,1.6,2.3,3.7c-0.3,3.1,0.6,8.9,3.6,9.7c0.9,0.2,1.9-0.7,2.2-1.1
		c1.8-2.3,0.8-6.1,0.3-9.2c-0.1-0.9-0.1-2.7,0.5-3l0.4-0.1c0.6,0.4,0.7,1.1,1.3,1.5l1.4,0.6l0.7,0.7c0.2,0.1,0.6-0.1,0.8,0.2
		c0.1,0.1,0.6,1.1,0.7,1.2c0.5,1.1,0.5,2,0.7,3.3c0.9,4.8-1.7,8.9-5.3,10.4c-1.1,0.3-2.2,0.6-3.3,0.6c-3.7,0.5-7-2.9-8.4-5.6
		c-0.8-1.4-1-5-0.9-6.5c0.1-1.7,0.5-5.4,1.8-6.2C619.6,487.3,620.1,487.3,620.5,487.2z"/>
	<path class="st0" d="M579,495.2c-0.6,1.9-0.9,2.5-3,3.2c-0.6,0.3-1.2,0.4-1.8,0.4c-2.1-0.3-3.2-3-2.8-5.3c0.1-0.8,0-1.2,0.3-1.9
		c0.2-0.5,1.1-1.7,1.7-1.9l1.5-0.3c2.9-0.1,3.4,0.9,4.1,3.4C579.1,493.6,579.2,494.4,579,495.2 M576.3,483.5
		c-1.2,0.2-2.3,0.5-3.4,0.9c-2.4,1.1-4.3,2.8-5.7,5c-4,7.1-1.3,16.2,2.2,22c0.7,1.2,1.5,3.6,2.4,4.5l0,0.1h0l-0.3-0.6l0.9,0.6
		c0.5,0.2,0.6,0,1,0c1.9,0.2,2.1-0.1,3.6-0.7c0.2-2.2-0.8-4.7-1.5-6.5l-1.8-5c1.9,0.5,3.6-0.2,5.4-0.9c3.2-1.2,5-3.6,5.8-6.8
		C586.6,489.7,582.3,483.2,576.3,483.5z"/>
	<path class="st0" d="M611.4,500.1c-0.6,1.9-3.3,3.7-6.1,2.6c-2.9-1.1-3.2-6.1-0.8-7.9c1-0.7,2.3-1,3.9-1.2
		C611.1,493.8,612.2,497.3,611.4,500.1 M616.2,497.4c0-0.7-0.3-1.4-0.3-2.2c-0.3-0.9-0.8-1.8-1.4-2.6c-0.2-0.4-0.6-0.8-0.7-1.2
		c-1.2-1.6-4-3.4-6.8-3.3l-1.3,0.3c-3.2,1.2-6.3,2.2-8,4.9c-0.6,1-1.1,2-1.3,3.1c-1,4,0.5,6.8,2.2,9c0.5,0.7,1.1,1.3,1.9,1.8
		c0.3,0.1,0.7,0.4,1.1,0.5c1,0.3,2,0.5,3,0.7c0.4,0.1,0.7,0.1,1.1,0c0.6,0,1.3-0.1,1.9-0.2c0.2,0,0.3-0.1,0.5-0.2
		c1-0.3,1.9-0.3,2.7-0.8c0.6-0.4,1.1-0.6,1.7-1c0.6-0.3,1.1-0.7,1.6-1.2c0.6-0.8,0.9-1.6,1.3-2.5c0.5-0.9,0.8-2,1-3
		C616.4,498.8,616.4,498.1,616.2,497.4L616.2,497.4z"/>
	<path class="st0" d="M641.7,512.2h-0.3v0.9c0,0,0,0.1,0,0.1c0,0-0.1,0-0.1,0c0,0-0.1,0-0.1,0c0,0,0-0.1,0-0.1v-0.9h-0.3
		c0,0-0.1,0-0.1,0c0,0,0,0,0-0.1c0,0,0-0.1,0-0.1c0,0,0.1,0,0.1,0h0.8c0,0,0.1,0,0.1,0c0,0,0,0,0,0.1c0,0,0,0.1,0,0.1
		C641.8,512.2,641.7,512.2,641.7,512.2z"/>
	<path class="st0" d="M642.4,513.1l-0.2-0.8v0.9c0,0,0,0.1,0,0.1c0,0-0.1,0-0.2,0c0,0,0,0,0,0c0,0,0-0.1,0-0.1v-1c0,0,0-0.1,0-0.1
		c0,0,0.1,0,0.1,0h0.1c0,0,0.1,0,0.1,0c0,0,0,0,0,0c0,0,0,0.1,0,0.1l0.2,0.7l0.2-0.7c0,0,0-0.1,0-0.1c0,0,0,0,0,0c0,0,0.1,0,0.1,0
		h0.1c0,0,0.1,0,0.1,0c0,0,0,0.1,0,0.1v1c0,0,0,0.1,0,0.1c0,0-0.1,0-0.1,0c0,0-0.1,0-0.1,0c0,0,0-0.1,0-0.1v-0.9l-0.2,0.8l0,0.1
		c0,0,0,0,0,0.1c0,0-0.1,0-0.1,0c0,0-0.1,0-0.1,0c0,0,0,0,0,0C642.4,513.2,642.4,513.2,642.4,513.1L642.4,513.1z"/>
	<polygon class="st0" points="893.9,486.2 893.9,494.2 883.9,494.2 883.9,486.2 879.4,486.2 879.4,508.3 883.9,508.3 883.9,498.4 
		893.9,498.4 893.9,508.3 898.3,508.3 898.3,486.2 	"/>
	<polygon class="st0" points="820.7,494.2 810.6,494.2 810.6,486.2 806.2,486.2 806.2,508.3 810.6,508.3 810.6,498.4 820.7,498.4 
		820.7,508.3 825.1,508.3 825.1,486.2 820.7,486.2 	"/>
	<path class="st0" d="M862,505.8c0.3-0.4,0.5-0.9,0.7-1.2c0.7-1.4,1.3-2.9,1.7-4.4c0.2-0.6,0.6-1,1.1-1.3c1-0.3,1.9-0.8,2.8-1.4
		c0.9-0.7,1.3-2,1.6-3.6c-1,0.1-2,0.3-3,0.7c-0.9,0.5-1.5,1.3-1.7,2.3c-0.2,0.7-0.6,1.4-1.2,1.9c-0.2-0.6-0.3-1.3-0.3-2
		c0-1.4,0.7-3-0.1-4.9c-0.8-1.9-3.6-3.5-3.6-3.5c-0.6,1.7-0.6,3.5-0.1,5.2c0.6,1.8,2.3,2.6,2.8,3.8c0.4,0.9,0.4,1.8,0.2,2.7l0,0
		c-0.3,1.6-1.1,3.1-2.1,4.4l-8.8-8.8c0.2-0.3,0.5-0.7,0.8-1.2l0,0c0.2-0.2,0.3-0.6,0.5-0.9l0.1-0.1l0,0c1-1.9,2.5-5,2.3-7.5
		c-0.4-4.7-4.8-6.8-7.2-6.9c-2.6-0.1-7.2,0.7-8.1,5.9c-0.9,4.8,5,9.7,7.5,12.1c1.4,1.4,6.2,6.1,10.1,10l-0.1,0.1
		c-1.8,1.3-5.7,2.1-8.7,1.6c-5.5-0.9-8.2-5.1-8.6-8.2c-0.4-2.6,0.3-5.3,1.8-7.5l-0.9-1c-1,1.1-3.7,3.7-4.4,7.4
		c-0.7,4.5,1.3,9,5.1,11.4c3.2,2.2,8.5,2.7,12.5,1.1c1.9-0.8,3.6-2,5-3.4c2,1.9,3.4,3.4,3.8,3.6h5.5L862,505.8z M843.8,485.1
		c0-2.2,0.9-4,2.9-4.3c1.9-0.3,4,1.6,5.1,3.5c1.3,2.3,1.1,4.2,0.9,6.2c-0.2,1-0.5,2-1,2.9c-0.2,0.3-0.4,0.7-0.8,1.4l-2.9-2.8
		C846.3,490.2,843.8,487.3,843.8,485.1z"/>
	<polygon class="st0" points="835.1,463.5 833.4,460.9 836.2,459.2 837.8,461.8 839.1,461 835.5,455.1 834.2,455.9 835.5,458.1 
		832.8,459.8 831.4,457.6 830.1,458.5 833.8,464.3 	"/>
	<path class="st0" d="M845.6,457.4l3.2-0.5l0.9,1.4l1.7-0.2l-4.2-6.4l-1.3,0.2l-2.2,7.3l1.6-0.2L845.6,457.4z M846.6,453.6
		L846.6,453.6l1.5,2.3l-2.1,0.3L846.6,453.6z"/>
	<polygon class="st0" points="861.8,458.7 857.8,457.7 859.2,452.3 857.7,451.9 856,458.6 861.5,460 	"/>
	<polygon class="st0" points="865.9,462.1 867.1,463 868.8,460.6 870.9,462.1 871.6,461 869.5,459.6 870.4,458.4 873.8,460.9 
		874.5,459.8 869.9,456.5 	"/>
	<polygon class="st0" points="836.3,534.7 833.5,533 834.9,530.8 833.5,530 829.9,535.9 831.3,536.7 832.9,534.1 835.7,535.8 
		834.1,538.4 835.4,539.2 839,533.3 837.7,532.5 	"/>
	<path class="st0" d="M846.4,535.5l-4.2,6.4l1.6,0.2l0.9-1.4l3.2,0.5l0.4,1.5l1.7,0.2l-2.1-7.3L846.4,535.5z M845.3,539.6l1.4-2.3
		h0.1l0.7,2.6L845.3,539.6z"/>
	<polygon class="st0" points="858.1,540.9 856.9,535.4 855.5,535.7 856.9,542.5 862.4,541.3 862.1,540 	"/>
	<polygon class="st0" points="870.1,532.7 868,534.1 867.2,532.9 870.8,530.6 870.1,529.5 865.2,532.6 869,538.5 870.3,537.6 
		868.7,535.2 870.8,533.8 	"/>
	<path class="st0" d="M1052.7,477.4h-12.9v0.8c3.1,0,3.8,1,3.8,4.4v17.7c0,3.4-0.7,4.4-3.8,4.4v0.8h12.9c10,0,16.1-5.5,16.1-14
		S1062.8,477.4,1052.7,477.4z M1051.9,504.5h-1.6v-26.3h1.7c7.3,0,9.8,6.4,9.8,13.1S1059.2,504.5,1051.9,504.5L1051.9,504.5z"/>
	<path class="st0" d="M1081.6,486.6c-6,0-10.1,4.2-10.1,9.6c0,5,3.5,9.6,10.2,9.6c3.6,0.1,7-1.6,9-4.7l-0.7-0.5
		c-1.3,1.9-3.7,3.9-6.3,3.9c-4,0-5.9-3.4-5.9-9.3h12.9C1090.5,489.8,1086.8,486.6,1081.6,486.6z M1077.8,494.4
		c0.1-3.5,1.1-7.1,3.7-7.1c3.1,0,3.2,5,3.2,7.1H1077.8z"/>
	<path class="st0" d="M1125.3,486.6c-2.4,0-4.2,1.9-5.2,4.2v-4.2l-8.9,1.1v0.8c2.4,0,2.9,1.2,2.9,3.4v9.2c0,2.2-0.5,3.4-2.9,3.4v0.8
		h11.8v-0.8c-2.4,0-2.9-1.2-2.9-3.4v-6.5c0-2.4,1-4.6,2.2-5c-0.1,1.8,1.3,3.3,3.1,3.4c1.8,0.1,3.3-1.3,3.4-3.1s-1.3-3.3-3.1-3.4
		C1125.5,486.6,1125.4,486.6,1125.3,486.6L1125.3,486.6z"/>
	<path class="st0" d="M1106.4,486.6c-2.4,0-4.2,1.9-5.2,4.2v-4.2l-8.9,1.1v0.8c2.4,0,2.9,1.2,2.9,3.4v9.2c0,2.2-0.5,3.4-2.9,3.4v0.8
		h11.8v-0.8c-2.4,0-2.9-1.2-2.9-3.4v-6.5c0-2.4,1-4.6,2.2-5c-0.1,1.8,1.3,3.3,3.1,3.4c1.8,0.1,3.3-1.3,3.4-3.1s-1.3-3.3-3.1-3.4
		C1106.7,486.6,1106.6,486.6,1106.4,486.6L1106.4,486.6z"/>
	<path class="st0" d="M1139,501.1v-14.6l-8.9,1.1v0.8c2.4,0,2.9,1.2,2.9,3.4v9.2c0,2.2-0.5,3.4-2.9,3.4v0.8h11.8v-0.8
		C1139.5,504.6,1139,503.4,1139,501.1z"/>
	<circle class="st0" cx="1135.8" cy="480.6" r="3.5"/>
	<path class="st0" d="M1151,505.1c-4,0-5-2.7-6.4-5.9l-0.7,0l0.2,5.8c2.3,0.5,4.7,0.8,7.1,0.9c5.1,0,8.3-2.1,8.3-6
		c0-7.2-11-5.4-11-10.1c0-1.3,0.9-2.4,3.4-2.4c3.4,0,4.6,2.7,5.9,5.6l0.7,0l-0.2-5.5c-2.2-0.4-4.4-0.7-6.7-0.8
		c-4.9,0-7.6,2.1-7.6,5.7c0,7.2,10.9,5.2,10.9,10.2C1154.9,503.7,1154.1,505.1,1151,505.1z"/>
</g>
</svg>
